<mxGraphModel dx="0" dy="0" grid="1" gridSize="10" guides="1" tooltips="1" connect="1" arrows="1" fold="1" page="0" pageScale="1" background="none" math="0" shadow="0">
  <root>
    <mxCell id="0" />
    <mxCell id="1" parent="0" />
    <mxCell id="node54" parent="1" vertex="1" value="&lt;p style=&quot;margin:0px;margin-top:4px;text-align:center;&quot;&gt;&lt;b&gt;AbstractDTO&lt;/b&gt;&lt;/p&gt;&lt;hr size=&quot;1&quot;/&gt;&lt;p style=&quot;margin:0 0 0 4px;line-height:1.6;&quot;&gt;+ AbstractDTO(): &lt;br/&gt;+ AbstractDTO(int): &lt;/p&gt;&lt;hr size=&quot;1&quot;/&gt;&lt;p style=&quot;margin:0 0 0 4px;line-height:1.6;&quot;&gt;# id: int&lt;/p&gt;&lt;hr size=&quot;1&quot;/&gt;&lt;p style=&quot;margin:0 0 0 4px;line-height:1.6;&quot;&gt;+ equals(Object): boolean&lt;br/&gt;# canEqual(Object): boolean&lt;br/&gt;+ hashCode(): int&lt;br/&gt;+ toString(): String&lt;/p&gt;&lt;hr size=&quot;1&quot;/&gt;&lt;p style=&quot;margin:0 0 0 4px;line-height:1.6;&quot;&gt; id: int&lt;/p&gt;" style="verticalAlign=top;align=left;overflow=fill;fontSize=14;fontFamily=Helvetica;html=1;rounded=0;shadow=0;comic=0;labelBackgroundColor=none;strokeWidth=1;">
      <mxGeometry x="1573" y="1141" width="196" height="226" as="geometry" />
    </mxCell>
    <mxCell id="node126" parent="1" vertex="1" value="&lt;p style=&quot;margin:0px;margin-top:4px;text-align:center;&quot;&gt;&lt;b&gt;AbstractThongKe&lt;/b&gt;&lt;/p&gt;&lt;hr size=&quot;1&quot;/&gt;&lt;p style=&quot;margin:0 0 0 4px;line-height:1.6;&quot;&gt;+ AbstractThongKe(Long, Long, Long): &lt;br/&gt;+ AbstractThongKe(): &lt;br/&gt;+ AbstractThongKe(Long, Long): &lt;/p&gt;&lt;hr size=&quot;1&quot;/&gt;&lt;p style=&quot;margin:0 0 0 4px;line-height:1.6;&quot;&gt;# chiPhi: Long&lt;br/&gt;# tongTien: Long&lt;br/&gt;# loiNhuan: Long&lt;/p&gt;&lt;hr size=&quot;1&quot;/&gt;&lt;p style=&quot;margin:0 0 0 4px;line-height:1.6;&quot;&gt;+ toString(): String&lt;br/&gt;+ equals(Object): boolean&lt;br/&gt;# canEqual(Object): boolean&lt;br/&gt;+ hashCode(): int&lt;br/&gt;+ tinhLoiNhuan(): Long&lt;/p&gt;&lt;hr size=&quot;1&quot;/&gt;&lt;p style=&quot;margin:0 0 0 4px;line-height:1.6;&quot;&gt; tongTien: Long&lt;br/&gt; loiNhuan: Long&lt;br/&gt; chiPhi: Long&lt;/p&gt;" style="verticalAlign=top;align=left;overflow=fill;fontSize=14;fontFamily=Helvetica;html=1;rounded=0;shadow=0;comic=0;labelBackgroundColor=none;strokeWidth=1;">
      <mxGeometry x="3570" y="2194" width="258" height="358" as="geometry" />
    </mxCell>
    <mxCell id="node77" parent="1" vertex="1" value="&lt;p style=&quot;margin:0px;margin-top:4px;text-align:center;&quot;&gt;&lt;b&gt;AbstractViewObject&lt;/b&gt;&lt;/p&gt;&lt;hr size=&quot;1&quot;/&gt;&lt;p style=&quot;margin:0 0 0 4px;line-height:1.6;&quot;&gt;+ AbstractViewObject(): &lt;br/&gt;+ AbstractViewObject(int, String): &lt;/p&gt;&lt;hr size=&quot;1&quot;/&gt;&lt;p style=&quot;margin:0 0 0 4px;line-height:1.6;&quot;&gt;# checkBoxDelete: JCheckBox&lt;br/&gt;# id: int&lt;br/&gt;# name: String&lt;/p&gt;&lt;hr size=&quot;1&quot;/&gt;&lt;p style=&quot;margin:0 0 0 4px;line-height:1.6;&quot;&gt;+ equals(Object): boolean&lt;br/&gt;# canEqual(Object): boolean&lt;br/&gt;+ hashCode(): int&lt;br/&gt;+ toString(): String&lt;br/&gt;+ toObject(ExecutorService, JTable, Set, List&amp;lt;JCheckBox&amp;gt;): Object[]&lt;/p&gt;&lt;hr size=&quot;1&quot;/&gt;&lt;p style=&quot;margin:0 0 0 4px;line-height:1.6;&quot;&gt; name: String&lt;br/&gt; checkBoxDelete: JCheckBox&lt;br/&gt; id: int&lt;/p&gt;" style="verticalAlign=top;align=left;overflow=fill;fontSize=14;fontFamily=Helvetica;html=1;rounded=0;shadow=0;comic=0;labelBackgroundColor=none;strokeWidth=1;">
      <mxGeometry x="1186" y="2194" width="429" height="336" as="geometry" />
    </mxCell>
    <mxCell id="node109" parent="1" vertex="1" value="&lt;p style=&quot;margin:0px;margin-top:4px;text-align:center;&quot;&gt;&lt;b&gt;Account&lt;/b&gt;&lt;/p&gt;&lt;hr size=&quot;1&quot;/&gt;&lt;p style=&quot;margin:0 0 0 4px;line-height:1.6;&quot;&gt;+ Account(): &lt;br/&gt;+ Account(int, String, String, String, String, String, String, LocalDateTime, boolean, Boolean, boolean, Collection&amp;lt;DonHang&amp;gt;): &lt;/p&gt;&lt;hr size=&quot;1&quot;/&gt;&lt;p style=&quot;margin:0 0 0 4px;line-height:1.6;&quot;&gt;- vaiTro: boolean&lt;br/&gt;- username: String&lt;br/&gt;- tenNhanVien: String&lt;br/&gt;- anh: String&lt;br/&gt;- trangThai: boolean&lt;br/&gt;- donHangs: Collection&amp;lt;DonHang&amp;gt;&lt;br/&gt;- sdt: String&lt;br/&gt;- password: String&lt;br/&gt;- gioiTinh: Boolean&lt;br/&gt;- email: String&lt;br/&gt;- id: int&lt;br/&gt;- ngayDangKi: LocalDateTime&lt;/p&gt;&lt;hr size=&quot;1&quot;/&gt;&lt;p style=&quot;margin:0 0 0 4px;line-height:1.6;&quot;&gt; password: String&lt;br/&gt; vaiTro: boolean&lt;br/&gt; tenNhanVien: String&lt;br/&gt; gioiTinh: Boolean&lt;br/&gt; email: String&lt;br/&gt; trangThai: boolean&lt;br/&gt; donHangs: Collection&amp;lt;DonHang&amp;gt;&lt;br/&gt; username: String&lt;br/&gt; id: int&lt;br/&gt; sdt: String&lt;br/&gt; anh: String&lt;br/&gt; ngayDangKi: LocalDateTime&lt;/p&gt;" style="verticalAlign=top;align=left;overflow=fill;fontSize=14;fontFamily=Helvetica;html=1;rounded=0;shadow=0;comic=0;labelBackgroundColor=none;strokeWidth=1;">
      <mxGeometry x="4012" y="2194" width="365" height="618" as="geometry" />
    </mxCell>
    <mxCell id="node124" parent="1" vertex="1" value="&lt;p style=&quot;margin:0px;margin-top:4px;text-align:center;&quot;&gt;&lt;b&gt;AccountDTO&lt;/b&gt;&lt;/p&gt;&lt;hr size=&quot;1&quot;/&gt;&lt;p style=&quot;margin:0 0 0 4px;line-height:1.6;&quot;&gt;+ AccountDTO(String, String, boolean, String, String, String, String, LocalDateTime, boolean, Boolean): &lt;br/&gt;+ AccountDTO(): &lt;/p&gt;&lt;hr size=&quot;1&quot;/&gt;&lt;p style=&quot;margin:0 0 0 4px;line-height:1.6;&quot;&gt;- anh: String&lt;br/&gt;- email: String&lt;br/&gt;- ngayDangKi: LocalDateTime&lt;br/&gt;- sdt: String&lt;br/&gt;- gioiTinh: boolean&lt;br/&gt;- username: String&lt;br/&gt;- password: String&lt;br/&gt;- trangThai: Boolean&lt;br/&gt;- tenNhanVien: String&lt;br/&gt;- vaiTro: boolean&lt;/p&gt;&lt;hr size=&quot;1&quot;/&gt;&lt;p style=&quot;margin:0 0 0 4px;line-height:1.6;&quot;&gt;# canEqual(Object): boolean&lt;br/&gt;+ hashCode(): int&lt;br/&gt;+ equals(Object): boolean&lt;br/&gt;+ toString(): String&lt;/p&gt;&lt;hr size=&quot;1&quot;/&gt;&lt;p style=&quot;margin:0 0 0 4px;line-height:1.6;&quot;&gt; password: String&lt;br/&gt; vaiTro: boolean&lt;br/&gt; tenNhanVien: String&lt;br/&gt; gioiTinh: boolean&lt;br/&gt; email: String&lt;br/&gt; trangThai: Boolean&lt;br/&gt; username: String&lt;br/&gt; sdt: String&lt;br/&gt; anh: String&lt;br/&gt; ngayDangKi: LocalDateTime&lt;/p&gt;" style="verticalAlign=top;align=left;overflow=fill;fontSize=14;fontFamily=Helvetica;html=1;rounded=0;shadow=0;comic=0;labelBackgroundColor=none;strokeWidth=1;">
      <mxGeometry x="3036" y="1472" width="372" height="622" as="geometry" />
    </mxCell>
    <mxCell id="node114" parent="1" vertex="1" value="&lt;p style=&quot;margin:0px;margin-top:4px;text-align:center;&quot;&gt;&lt;b&gt;AccountService&lt;/b&gt;&lt;/p&gt;&lt;hr size=&quot;1&quot;/&gt;&lt;p style=&quot;margin:0 0 0 4px;line-height:1.6;&quot;&gt;+ AccountService(): &lt;/p&gt;&lt;hr size=&quot;1&quot;/&gt;&lt;p style=&quot;margin:0 0 0 4px;line-height:1.6;&quot;&gt;+ searchByKeyword(String): List&amp;lt;AccountDTO&amp;gt;&lt;br/&gt;+ insert(AccountDTO): AccountDTO&lt;br/&gt;+ getPage(Pageable): List&amp;lt;AccountDTO&amp;gt;&lt;br/&gt;+ deleteAll(Set&amp;lt;Integer&amp;gt;): void&lt;br/&gt;+ delete(Integer): void&lt;br/&gt;+ getTotalPage(Pageable): int&lt;br/&gt;+ getAllByIds(List&amp;lt;Integer&amp;gt;): List&amp;lt;AccountDTO&amp;gt;&lt;br/&gt;+ getById(Integer): AccountDTO&lt;br/&gt;+ getByEmail(String): AccountDTO&lt;br/&gt;+ updateUsernamePassword(AccountDTO): void&lt;br/&gt;+ update(AccountDTO): void&lt;br/&gt;+ createAccount(AccountDTO): void&lt;br/&gt;+ getByUsername(String): AccountDTO&lt;/p&gt;&lt;hr size=&quot;1&quot;/&gt;&lt;p style=&quot;margin:0 0 0 4px;line-height:1.6;&quot;&gt; all: List&amp;lt;AccountDTO&amp;gt;&lt;/p&gt;" style="verticalAlign=top;align=left;overflow=fill;fontSize=14;fontFamily=Helvetica;html=1;rounded=0;shadow=0;comic=0;labelBackgroundColor=none;strokeWidth=1;">
      <mxGeometry x="2593" y="654" width="310" height="376" as="geometry" />
    </mxCell>
    <mxCell id="node78" parent="1" vertex="1" value="&lt;p style=&quot;margin:0px;margin-top:4px;text-align:center;&quot;&gt;&lt;b&gt;AccountUtils&lt;/b&gt;&lt;/p&gt;&lt;hr size=&quot;1&quot;/&gt;&lt;p style=&quot;margin:0 0 0 4px;line-height:1.6;&quot;&gt;+ AccountUtils(): &lt;/p&gt;&lt;hr size=&quot;1&quot;/&gt;&lt;p style=&quot;margin:0 0 0 4px;line-height:1.6;&quot;&gt;+ retrieve(): AccountDTO&lt;br/&gt;+ remember(AccountDTO): void&lt;br/&gt;+ deleteFile(): void&lt;/p&gt;" style="verticalAlign=top;align=left;overflow=fill;fontSize=14;fontFamily=Helvetica;html=1;rounded=0;shadow=0;comic=0;labelBackgroundColor=none;strokeWidth=1;">
      <mxGeometry x="1058" y="4360" width="215" height="140" as="geometry" />
    </mxCell>
    <mxCell id="node36" parent="1" vertex="1" value="&lt;p style=&quot;margin:0px;margin-top:4px;text-align:center;&quot;&gt;&lt;b&gt;Application&lt;/b&gt;&lt;/p&gt;&lt;hr size=&quot;1&quot;/&gt;&lt;p style=&quot;margin:0 0 0 4px;line-height:1.6;&quot;&gt;+ Application(): &lt;/p&gt;&lt;hr size=&quot;1&quot;/&gt;&lt;p style=&quot;margin:0 0 0 4px;line-height:1.6;&quot;&gt;+ main(String[]): void&lt;/p&gt;" style="verticalAlign=top;align=left;overflow=fill;fontSize=14;fontFamily=Helvetica;html=1;rounded=0;shadow=0;comic=0;labelBackgroundColor=none;strokeWidth=1;">
      <mxGeometry x="2878" y="4553" width="156" height="93" as="geometry" />
    </mxCell>
    <mxCell id="node10" parent="1" vertex="1" value="&lt;p style=&quot;margin:0px;margin-top:4px;text-align:center;&quot;&gt;&lt;b&gt;ButtonToolItem&lt;/b&gt;&lt;/p&gt;&lt;hr size=&quot;1&quot;/&gt;&lt;p style=&quot;margin:0 0 0 4px;line-height:1.6;&quot;&gt;+ ButtonToolItem(String, String): &lt;/p&gt;" style="verticalAlign=top;align=left;overflow=fill;fontSize=14;fontFamily=Helvetica;html=1;rounded=0;shadow=0;comic=0;labelBackgroundColor=none;strokeWidth=1;">
      <mxGeometry x="4570" y="4553" width="221" height="65" as="geometry" />
    </mxCell>
    <mxCell id="node15" parent="1" vertex="1" value="&lt;p style=&quot;margin:0px;margin-top:4px;text-align:center;&quot;&gt;&lt;b&gt;CameraDialog&lt;/b&gt;&lt;/p&gt;&lt;hr size=&quot;1&quot;/&gt;&lt;p style=&quot;margin:0 0 0 4px;line-height:1.6;&quot;&gt;+ CameraDialog(JTextField): &lt;/p&gt;" style="verticalAlign=top;align=left;overflow=fill;fontSize=14;fontFamily=Helvetica;html=1;rounded=0;shadow=0;comic=0;labelBackgroundColor=none;strokeWidth=1;">
      <mxGeometry x="361" y="4684" width="201" height="65" as="geometry" />
    </mxCell>
    <mxCell id="node67" parent="1" vertex="1" value="&lt;p style=&quot;margin:0px;margin-top:4px;text-align:center;&quot;&gt;&lt;b&gt;Cart&lt;/b&gt;&lt;/p&gt;&lt;hr size=&quot;1&quot;/&gt;&lt;p style=&quot;margin:0 0 0 4px;line-height:1.6;&quot;&gt;+ Cart(): &lt;/p&gt;&lt;hr size=&quot;1&quot;/&gt;&lt;p style=&quot;margin:0 0 0 4px;line-height:1.6;&quot;&gt;+ tinhTien(JTable, JLabel, JLabel, JLabel, JCheckBox): void&lt;/p&gt;&lt;hr size=&quot;1&quot;/&gt;&lt;p style=&quot;margin:0 0 0 4px;line-height:1.6;&quot;&gt; cart: List&amp;lt;CartModel&amp;gt;&lt;/p&gt;" style="verticalAlign=top;align=left;overflow=fill;fontSize=14;fontFamily=Helvetica;html=1;rounded=0;shadow=0;comic=0;labelBackgroundColor=none;strokeWidth=1;">
      <mxGeometry x="1805" y="4360" width="378" height="121" as="geometry" />
    </mxCell>
    <mxCell id="node65" parent="1" vertex="1" value="&lt;p style=&quot;margin:0px;margin-top:4px;text-align:center;&quot;&gt;&lt;b&gt;CartModel&lt;/b&gt;&lt;/p&gt;&lt;hr size=&quot;1&quot;/&gt;&lt;p style=&quot;margin:0 0 0 4px;line-height:1.6;&quot;&gt;+ CartModel(SachDTO, JXTable, JLabel, JLabel, JLabel, JCheckBox): &lt;/p&gt;&lt;hr size=&quot;1&quot;/&gt;&lt;p style=&quot;margin:0 0 0 4px;line-height:1.6;&quot;&gt;- soLuong: CustomSpinner&lt;br/&gt;- id: int&lt;br/&gt;- xoa: JButton&lt;br/&gt;- giaBan: long&lt;br/&gt;- name: String&lt;br/&gt;- icon: String&lt;br/&gt;- donGia: long&lt;/p&gt;&lt;hr size=&quot;1&quot;/&gt;&lt;p style=&quot;margin:0 0 0 4px;line-height:1.6;&quot;&gt; name: String&lt;br/&gt; donGia: long&lt;br/&gt; icon: String&lt;br/&gt; id: int&lt;br/&gt; giaBan: long&lt;br/&gt; xoa: JButton&lt;br/&gt; soLuong: CustomSpinner&lt;/p&gt;" style="verticalAlign=top;align=left;overflow=fill;fontSize=14;fontFamily=Helvetica;html=1;rounded=0;shadow=0;comic=0;labelBackgroundColor=none;strokeWidth=1;">
      <mxGeometry x="2674" y="3203" width="423" height="376" as="geometry" />
    </mxCell>
    <mxCell id="node113" parent="1" vertex="1" value="&lt;p style=&quot;margin:0px;margin-top:4px;text-align:center;&quot;&gt;&lt;b&gt;CellNameRender&lt;/b&gt;&lt;/p&gt;&lt;hr size=&quot;1&quot;/&gt;&lt;p style=&quot;margin:0 0 0 4px;line-height:1.6;&quot;&gt;+ CellNameRender(ExecutorService, JTable, String, String): &lt;/p&gt;&lt;hr size=&quot;1&quot;/&gt;&lt;p style=&quot;margin:0 0 0 4px;line-height:1.6;&quot;&gt;- createUIComponents(): void&lt;/p&gt;" style="verticalAlign=top;align=left;overflow=fill;fontSize=14;fontFamily=Helvetica;html=1;rounded=0;shadow=0;comic=0;labelBackgroundColor=none;strokeWidth=1;">
      <mxGeometry x="331" y="4553" width="375" height="93" as="geometry" />
    </mxCell>
    <mxCell id="node129" parent="1" vertex="1" value="&lt;p style=&quot;margin:0px;margin-top:4px;text-align:center;&quot;&gt;&lt;b&gt;ChiTietDonHang&lt;/b&gt;&lt;/p&gt;&lt;hr size=&quot;1&quot;/&gt;&lt;p style=&quot;margin:0 0 0 4px;line-height:1.6;&quot;&gt;+ ChiTietDonHang(int, long, long, int, String, int, int, DonHang, Sach): &lt;br/&gt;+ ChiTietDonHang(): &lt;/p&gt;&lt;hr size=&quot;1&quot;/&gt;&lt;p style=&quot;margin:0 0 0 4px;line-height:1.6;&quot;&gt;- soLuong: int&lt;br/&gt;- donHang: DonHang&lt;br/&gt;- id: int&lt;br/&gt;- idSach: int&lt;br/&gt;- idDonHang: int&lt;br/&gt;- giaBan: long&lt;br/&gt;- ghichu: String&lt;br/&gt;- sach: Sach&lt;br/&gt;- giaGiam: long&lt;/p&gt;&lt;hr size=&quot;1&quot;/&gt;&lt;p style=&quot;margin:0 0 0 4px;line-height:1.6;&quot;&gt; idDonHang: int&lt;br/&gt; idSach: int&lt;br/&gt; soLuong: int&lt;br/&gt; giaGiam: long&lt;br/&gt; ghichu: String&lt;br/&gt; donHang: DonHang&lt;br/&gt; sach: Sach&lt;br/&gt; id: int&lt;br/&gt; giaBan: long&lt;/p&gt;" style="verticalAlign=top;align=left;overflow=fill;fontSize=14;fontFamily=Helvetica;html=1;rounded=0;shadow=0;comic=0;labelBackgroundColor=none;strokeWidth=1;">
      <mxGeometry x="220" y="3203" width="375" height="486" as="geometry" />
    </mxCell>
    <mxCell id="node34" parent="1" vertex="1" value="&lt;p style=&quot;margin:0px;margin-top:4px;text-align:center;&quot;&gt;&lt;b&gt;ChiTietDonHangDTO&lt;/b&gt;&lt;/p&gt;&lt;hr size=&quot;1&quot;/&gt;&lt;p style=&quot;margin:0 0 0 4px;line-height:1.6;&quot;&gt;+ ChiTietDonHangDTO(SachDTO, long, long, Integer, String): &lt;br/&gt;+ ChiTietDonHangDTO(): &lt;/p&gt;&lt;hr size=&quot;1&quot;/&gt;&lt;p style=&quot;margin:0 0 0 4px;line-height:1.6;&quot;&gt;- giaGiam: long&lt;br/&gt;- ghichu: String&lt;br/&gt;- soLuong: Integer&lt;br/&gt;- giaBan: long&lt;br/&gt;- sach: SachDTO&lt;/p&gt;&lt;hr size=&quot;1&quot;/&gt;&lt;p style=&quot;margin:0 0 0 4px;line-height:1.6;&quot;&gt;+ equals(Object): boolean&lt;br/&gt;+ toString(): String&lt;br/&gt;# canEqual(Object): boolean&lt;br/&gt;+ hashCode(): int&lt;/p&gt;&lt;hr size=&quot;1&quot;/&gt;&lt;p style=&quot;margin:0 0 0 4px;line-height:1.6;&quot;&gt; sach: SachDTO&lt;br/&gt; giaGiam: long&lt;br/&gt; ghichu: String&lt;br/&gt; giaBan: long&lt;br/&gt; soLuong: Integer&lt;/p&gt;" style="verticalAlign=top;align=left;overflow=fill;fontSize=14;fontFamily=Helvetica;html=1;rounded=0;shadow=0;comic=0;labelBackgroundColor=none;strokeWidth=1;">
      <mxGeometry x="1060" y="1582" width="385" height="402" as="geometry" />
    </mxCell>
    <mxCell id="node56" parent="1" vertex="1" value="&lt;p style=&quot;margin:0px;margin-top:4px;text-align:center;&quot;&gt;&lt;b&gt;ComboBoxSearch&lt;/b&gt;&lt;/p&gt;&lt;hr size=&quot;1&quot;/&gt;&lt;p style=&quot;margin:0 0 0 4px;line-height:1.6;&quot;&gt;+ ComboBoxSearch(): &lt;/p&gt;" style="verticalAlign=top;align=left;overflow=fill;fontSize=14;fontFamily=Helvetica;html=1;rounded=0;shadow=0;comic=0;labelBackgroundColor=none;strokeWidth=1;">
      <mxGeometry x="1296" y="4684" width="180" height="65" as="geometry" />
    </mxCell>
    <mxCell id="node128" parent="1" vertex="1" value="&lt;p style=&quot;margin:0px;margin-top:4px;text-align:center;&quot;&gt;&lt;b&gt;ContextUtils&lt;/b&gt;&lt;/p&gt;&lt;hr size=&quot;1&quot;/&gt;&lt;p style=&quot;margin:0 0 0 4px;line-height:1.6;&quot;&gt;+ ContextUtils(): &lt;/p&gt;&lt;hr size=&quot;1&quot;/&gt;&lt;p style=&quot;margin:0 0 0 4px;line-height:1.6;&quot;&gt;+ getBean(Class&amp;lt;T&amp;gt;): T&lt;/p&gt;" style="verticalAlign=top;align=left;overflow=fill;fontSize=14;fontFamily=Helvetica;html=1;rounded=0;shadow=0;comic=0;labelBackgroundColor=none;strokeWidth=1;">
      <mxGeometry x="2661" y="4553" width="172" height="93" as="geometry" />
    </mxCell>
    <mxCell id="node7" parent="1" vertex="1" value="&lt;p style=&quot;margin:0px;margin-top:4px;text-align:center;&quot;&gt;&lt;b&gt;Ctkm&lt;/b&gt;&lt;/p&gt;&lt;hr size=&quot;1&quot;/&gt;&lt;p style=&quot;margin:0 0 0 4px;line-height:1.6;&quot;&gt;+ Ctkm(int, String, LocalDateTime, LocalDateTime, boolean, Collection&amp;lt;CtkmSach&amp;gt;): &lt;br/&gt;+ Ctkm(): &lt;/p&gt;&lt;hr size=&quot;1&quot;/&gt;&lt;p style=&quot;margin:0 0 0 4px;line-height:1.6;&quot;&gt;- kieuGiamGia: boolean&lt;br/&gt;- id: int&lt;br/&gt;- ngayBatDau: LocalDateTime&lt;br/&gt;- ngayKetThuc: LocalDateTime&lt;br/&gt;- tenSuKien: String&lt;br/&gt;- ctkm: Collection&amp;lt;CtkmSach&amp;gt;&lt;/p&gt;&lt;hr size=&quot;1&quot;/&gt;&lt;p style=&quot;margin:0 0 0 4px;line-height:1.6;&quot;&gt; ngayKetThuc: LocalDateTime&lt;br/&gt; ngayBatDau: LocalDateTime&lt;br/&gt; id: int&lt;br/&gt; tenSuKien: String&lt;br/&gt; ctkm: Collection&amp;lt;CtkmSach&amp;gt;&lt;br/&gt; kieuGiamGia: boolean&lt;/p&gt;" style="verticalAlign=top;align=left;overflow=fill;fontSize=14;fontFamily=Helvetica;html=1;rounded=0;shadow=0;comic=0;labelBackgroundColor=none;strokeWidth=1;">
      <mxGeometry x="3614" y="3203" width="403" height="354" as="geometry" />
    </mxCell>
    <mxCell id="node84" parent="1" vertex="1" value="&lt;p style=&quot;margin:0px;margin-top:4px;text-align:center;&quot;&gt;&lt;b&gt;CtkmDTO&lt;/b&gt;&lt;/p&gt;&lt;hr size=&quot;1&quot;/&gt;&lt;p style=&quot;margin:0 0 0 4px;line-height:1.6;&quot;&gt;+ CtkmDTO(String, LocalDateTime, LocalDateTime, boolean): &lt;br/&gt;+ CtkmDTO(): &lt;/p&gt;&lt;hr size=&quot;1&quot;/&gt;&lt;p style=&quot;margin:0 0 0 4px;line-height:1.6;&quot;&gt;- kieuGiamGia: boolean&lt;br/&gt;- ngayKetThuc: LocalDateTime&lt;br/&gt;- ngayBatDau: LocalDateTime&lt;br/&gt;- tenSuKien: String&lt;/p&gt;&lt;hr size=&quot;1&quot;/&gt;&lt;p style=&quot;margin:0 0 0 4px;line-height:1.6;&quot;&gt;+ hashCode(): int&lt;br/&gt;# canEqual(Object): boolean&lt;br/&gt;+ equals(Object): boolean&lt;br/&gt;+ toString(): String&lt;/p&gt;&lt;hr size=&quot;1&quot;/&gt;&lt;p style=&quot;margin:0 0 0 4px;line-height:1.6;&quot;&gt; ngayKetThuc: LocalDateTime&lt;br/&gt; ngayBatDau: LocalDateTime&lt;br/&gt; tenSuKien: String&lt;br/&gt; kieuGiamGia: boolean&lt;/p&gt;" style="verticalAlign=top;align=left;overflow=fill;fontSize=14;fontFamily=Helvetica;html=1;rounded=0;shadow=0;comic=0;labelBackgroundColor=none;strokeWidth=1;">
      <mxGeometry x="2307" y="1604" width="389" height="358" as="geometry" />
    </mxCell>
    <mxCell id="node20" parent="1" vertex="1" value="&lt;p style=&quot;margin:0px;margin-top:4px;text-align:center;&quot;&gt;&lt;b&gt;CtkmDialog&lt;/b&gt;&lt;/p&gt;&lt;hr size=&quot;1&quot;/&gt;&lt;p style=&quot;margin:0 0 0 4px;line-height:1.6;&quot;&gt;+ CtkmDialog(): &lt;/p&gt;&lt;hr size=&quot;1&quot;/&gt;&lt;p style=&quot;margin:0 0 0 4px;line-height:1.6;&quot;&gt;- initComponent(): void&lt;br/&gt;- readForm(): CtkmDTO?&lt;br/&gt;+ fillForm(): void&lt;br/&gt;- createUIComponents(): void&lt;br/&gt;- save(): void&lt;/p&gt;" style="verticalAlign=top;align=left;overflow=fill;fontSize=14;fontFamily=Helvetica;html=1;rounded=0;shadow=0;comic=0;labelBackgroundColor=none;strokeWidth=1;">
      <mxGeometry x="2331" y="4111" width="205" height="174" as="geometry" />
    </mxCell>
    <mxCell id="node92" parent="1" vertex="1" value="&lt;p style=&quot;margin:0px;margin-top:4px;text-align:center;&quot;&gt;&lt;b&gt;CtkmSach&lt;/b&gt;&lt;/p&gt;&lt;hr size=&quot;1&quot;/&gt;&lt;p style=&quot;margin:0 0 0 4px;line-height:1.6;&quot;&gt;+ CtkmSach(int, long, int, int, Sach, Ctkm): &lt;br/&gt;+ CtkmSach(): &lt;/p&gt;&lt;hr size=&quot;1&quot;/&gt;&lt;p style=&quot;margin:0 0 0 4px;line-height:1.6;&quot;&gt;- giaTriGiam: long&lt;br/&gt;- id: int&lt;br/&gt;- idKM: int&lt;br/&gt;- ctkm: Ctkm&lt;br/&gt;- sach: Sach&lt;br/&gt;- idSach: int&lt;/p&gt;&lt;hr size=&quot;1&quot;/&gt;&lt;p style=&quot;margin:0 0 0 4px;line-height:1.6;&quot;&gt; sach: Sach&lt;br/&gt; idSach: int&lt;br/&gt; ctkm: Ctkm&lt;br/&gt; id: int&lt;br/&gt; idKM: int&lt;br/&gt; giaTriGiam: long&lt;/p&gt;" style="verticalAlign=top;align=left;overflow=fill;fontSize=14;fontFamily=Helvetica;html=1;rounded=0;shadow=0;comic=0;labelBackgroundColor=none;strokeWidth=1;">
      <mxGeometry x="4062" y="3203" width="281" height="354" as="geometry" />
    </mxCell>
    <mxCell id="node102" parent="1" vertex="1" value="&lt;p style=&quot;margin:0px;margin-top:4px;text-align:center;&quot;&gt;&lt;b&gt;CtkmSachDTO&lt;/b&gt;&lt;/p&gt;&lt;hr size=&quot;1&quot;/&gt;&lt;p style=&quot;margin:0 0 0 4px;line-height:1.6;&quot;&gt;+ CtkmSachDTO(): &lt;br/&gt;+ CtkmSachDTO(SachDTO, CtkmDTO, Long): &lt;/p&gt;&lt;hr size=&quot;1&quot;/&gt;&lt;p style=&quot;margin:0 0 0 4px;line-height:1.6;&quot;&gt;- giaTriGiam: Long&lt;br/&gt;- sach: SachDTO&lt;br/&gt;- ctkm: CtkmDTO&lt;/p&gt;&lt;hr size=&quot;1&quot;/&gt;&lt;p style=&quot;margin:0 0 0 4px;line-height:1.6;&quot;&gt;+ toString(): String&lt;br/&gt;+ hashCode(): int&lt;br/&gt;+ equals(Object): boolean&lt;br/&gt;# canEqual(Object): boolean&lt;/p&gt;&lt;hr size=&quot;1&quot;/&gt;&lt;p style=&quot;margin:0 0 0 4px;line-height:1.6;&quot;&gt; sach: SachDTO&lt;br/&gt; ctkm: CtkmDTO&lt;br/&gt; giaTriGiam: Long&lt;/p&gt;" style="verticalAlign=top;align=left;overflow=fill;fontSize=14;fontFamily=Helvetica;html=1;rounded=0;shadow=0;comic=0;labelBackgroundColor=none;strokeWidth=1;">
      <mxGeometry x="2716" y="1626" width="300" height="314" as="geometry" />
    </mxCell>
    <mxCell id="node11" parent="1" vertex="1" value="&lt;p style=&quot;margin:0px;margin-top:4px;text-align:center;&quot;&gt;&lt;b&gt;CtkmSachDialog&lt;/b&gt;&lt;/p&gt;&lt;hr size=&quot;1&quot;/&gt;&lt;p style=&quot;margin:0 0 0 4px;line-height:1.6;&quot;&gt;+ CtkmSachDialog(): &lt;/p&gt;&lt;hr size=&quot;1&quot;/&gt;&lt;p style=&quot;margin:0 0 0 4px;line-height:1.6;&quot;&gt;- initComponent(): void&lt;br/&gt;- createUIComponents(): void&lt;br/&gt;+ fillForm(): void&lt;br/&gt;+ save(): void&lt;br/&gt;- fillTable(List&amp;lt;AbstractViewObject&amp;gt;): void&lt;br/&gt;- delete(): void&lt;br/&gt;- addToTable(): void&lt;/p&gt;" style="verticalAlign=top;align=left;overflow=fill;fontSize=14;fontFamily=Helvetica;html=1;rounded=0;shadow=0;comic=0;labelBackgroundColor=none;strokeWidth=1;">
      <mxGeometry x="4249" y="3738" width="279" height="218" as="geometry" />
    </mxCell>
    <mxCell id="node14" parent="1" vertex="1" value="&lt;p style=&quot;margin:0px;margin-top:4px;text-align:center;&quot;&gt;&lt;b&gt;CtkmSachService&lt;/b&gt;&lt;/p&gt;&lt;hr size=&quot;1&quot;/&gt;&lt;p style=&quot;margin:0 0 0 4px;line-height:1.6;&quot;&gt;+ CtkmSachService(): &lt;/p&gt;&lt;hr size=&quot;1&quot;/&gt;&lt;p style=&quot;margin:0 0 0 4px;line-height:1.6;&quot;&gt;+ getById(Integer): CtkmSachDTO&lt;br/&gt;+ getPage(Pageable): List&amp;lt;CtkmSachDTO&amp;gt;&lt;br/&gt;+ searchAllSachInCtkm(String, CtkmDTO): List&amp;lt;CtkmSachDTO&amp;gt;&lt;br/&gt;+ deleteAll(Set&amp;lt;Integer&amp;gt;): void&lt;br/&gt;+ delete(Integer): void&lt;br/&gt;+ insert(CtkmSachDTO): CtkmSachDTO&lt;br/&gt;+ searchByKeyword(String): List&amp;lt;CtkmSachDTO&amp;gt;&lt;br/&gt;+ getTotalPage(Pageable): int&lt;br/&gt;+ update(CtkmSachDTO): void&lt;br/&gt;+ getAllSachInCtkm(CtkmDTO): List&amp;lt;CtkmSachDTO&amp;gt;&lt;br/&gt;+ getAllByIds(List&amp;lt;Integer&amp;gt;): List&amp;lt;CtkmSachDTO&amp;gt;&lt;br/&gt;+ insetAll(List&amp;lt;CtkmSachDTO&amp;gt;): List&amp;lt;CtkmSachDTO&amp;gt;&lt;/p&gt;&lt;hr size=&quot;1&quot;/&gt;&lt;p style=&quot;margin:0 0 0 4px;line-height:1.6;&quot;&gt; all: List&amp;lt;CtkmSachDTO&amp;gt;&lt;/p&gt;" style="verticalAlign=top;align=left;overflow=fill;fontSize=14;fontFamily=Helvetica;html=1;rounded=0;shadow=0;comic=0;labelBackgroundColor=none;strokeWidth=1;">
      <mxGeometry x="1388" y="665" width="400" height="354" as="geometry" />
    </mxCell>
    <mxCell id="node104" parent="1" vertex="1" value="&lt;p style=&quot;margin:0px;margin-top:4px;text-align:center;&quot;&gt;&lt;b&gt;CtkmSachViewObject&lt;/b&gt;&lt;/p&gt;&lt;hr size=&quot;1&quot;/&gt;&lt;p style=&quot;margin:0 0 0 4px;line-height:1.6;&quot;&gt;+ CtkmSachViewObject(CtkmSachDTO): &lt;/p&gt;&lt;hr size=&quot;1&quot;/&gt;&lt;p style=&quot;margin:0 0 0 4px;line-height:1.6;&quot;&gt;- ctkm: CtkmDTO&lt;br/&gt;- sach: SachDTO&lt;br/&gt;- giaTriGiam: Long&lt;/p&gt;&lt;hr size=&quot;1&quot;/&gt;&lt;p style=&quot;margin:0 0 0 4px;line-height:1.6;&quot;&gt;+ equals(Object): boolean&lt;br/&gt;# canEqual(Object): boolean&lt;br/&gt;+ hashCode(): int&lt;br/&gt;+ toString(): String&lt;br/&gt;+ toObject(ExecutorService, JTable, Set, List&amp;lt;JCheckBox&amp;gt;): Object[]&lt;/p&gt;&lt;hr size=&quot;1&quot;/&gt;&lt;p style=&quot;margin:0 0 0 4px;line-height:1.6;&quot;&gt; sach: SachDTO&lt;br/&gt; ctkm: CtkmDTO&lt;br/&gt; trangThai: String&lt;br/&gt; giaTriGiam: Long&lt;/p&gt;" style="verticalAlign=top;align=left;overflow=fill;fontSize=14;fontFamily=Helvetica;html=1;rounded=0;shadow=0;comic=0;labelBackgroundColor=none;strokeWidth=1;">
      <mxGeometry x="737" y="2701" width="429" height="336" as="geometry" />
    </mxCell>
    <mxCell id="node31" parent="1" vertex="1" value="&lt;p style=&quot;margin:0px;margin-top:4px;text-align:center;&quot;&gt;&lt;b&gt;CtkmService&lt;/b&gt;&lt;/p&gt;&lt;hr size=&quot;1&quot;/&gt;&lt;p style=&quot;margin:0 0 0 4px;line-height:1.6;&quot;&gt;+ CtkmService(): &lt;/p&gt;&lt;hr size=&quot;1&quot;/&gt;&lt;p style=&quot;margin:0 0 0 4px;line-height:1.6;&quot;&gt;+ delete(Integer): void&lt;br/&gt;+ getAllAvailableToTalPage(Pageable): int&lt;br/&gt;+ getAllNotAvailableToTalPage(Pageable): int&lt;br/&gt;+ getById(Integer): CtkmDTO&lt;br/&gt;+ insert(CtkmDTO): CtkmDTO&lt;br/&gt;+ searchByKeyword(String): List&amp;lt;CtkmDTO&amp;gt;&lt;br/&gt;+ getAllNotAvailable(Pageable): List&amp;lt;CtkmDTO&amp;gt;&lt;br/&gt;+ getAllAvailable(Pageable): List&amp;lt;CtkmDTO&amp;gt;&lt;br/&gt;+ getAllByIds(List&amp;lt;Integer&amp;gt;): List&amp;lt;CtkmDTO&amp;gt;&lt;br/&gt;+ getPage(Pageable): List&amp;lt;CtkmDTO&amp;gt;&lt;br/&gt;+ deleteAll(Set&amp;lt;Integer&amp;gt;): void&lt;br/&gt;+ update(CtkmDTO): void&lt;br/&gt;+ getTotalPage(Pageable): int&lt;/p&gt;&lt;hr size=&quot;1&quot;/&gt;&lt;p style=&quot;margin:0 0 0 4px;line-height:1.6;&quot;&gt; all: List&amp;lt;CtkmDTO&amp;gt;&lt;/p&gt;" style="verticalAlign=top;align=left;overflow=fill;fontSize=14;fontFamily=Helvetica;html=1;rounded=0;shadow=0;comic=0;labelBackgroundColor=none;strokeWidth=1;">
      <mxGeometry x="2923" y="654" width="311" height="376" as="geometry" />
    </mxCell>
    <mxCell id="node74" parent="1" vertex="1" value="&lt;p style=&quot;margin:0px;margin-top:4px;text-align:center;&quot;&gt;&lt;b&gt;CtkmViewObject&lt;/b&gt;&lt;/p&gt;&lt;hr size=&quot;1&quot;/&gt;&lt;p style=&quot;margin:0 0 0 4px;line-height:1.6;&quot;&gt;+ CtkmViewObject(CtkmDTO): &lt;/p&gt;&lt;hr size=&quot;1&quot;/&gt;&lt;p style=&quot;margin:0 0 0 4px;line-height:1.6;&quot;&gt;- kieuGiamGia: boolean&lt;br/&gt;- ngayBatDau: LocalDateTime&lt;br/&gt;- ngayKetThuc: LocalDateTime&lt;/p&gt;&lt;hr size=&quot;1&quot;/&gt;&lt;p style=&quot;margin:0 0 0 4px;line-height:1.6;&quot;&gt;+ equals(Object): boolean&lt;br/&gt;# canEqual(Object): boolean&lt;br/&gt;+ hashCode(): int&lt;br/&gt;+ toString(): String&lt;br/&gt;+ toObject(ExecutorService, JTable, Set, List&amp;lt;JCheckBox&amp;gt;): Object[]&lt;/p&gt;&lt;hr size=&quot;1&quot;/&gt;&lt;p style=&quot;margin:0 0 0 4px;line-height:1.6;&quot;&gt; ngayKetThuc: LocalDateTime&lt;br/&gt; ngayBatDau: LocalDateTime&lt;br/&gt; kieuGiamGia: boolean&lt;br/&gt; trangThai: String&lt;/p&gt;" style="verticalAlign=top;align=left;overflow=fill;fontSize=14;fontFamily=Helvetica;html=1;rounded=0;shadow=0;comic=0;labelBackgroundColor=none;strokeWidth=1;">
      <mxGeometry x="2533" y="2701" width="429" height="336" as="geometry" />
    </mxCell>
    <mxCell id="node49" parent="1" vertex="1" value="&lt;p style=&quot;margin:0px;margin-top:4px;text-align:center;&quot;&gt;&lt;b&gt;CurrencyConvert&lt;/b&gt;&lt;/p&gt;&lt;hr size=&quot;1&quot;/&gt;&lt;p style=&quot;margin:0 0 0 4px;line-height:1.6;&quot;&gt;+ CurrencyConvert(): &lt;/p&gt;&lt;hr size=&quot;1&quot;/&gt;&lt;p style=&quot;margin:0 0 0 4px;line-height:1.6;&quot;&gt;+ parseString(long): String&lt;br/&gt;+ parseLong(String): long&lt;br/&gt;+ parseString(String): String&lt;/p&gt;" style="verticalAlign=top;align=left;overflow=fill;fontSize=14;fontFamily=Helvetica;html=1;rounded=0;shadow=0;comic=0;labelBackgroundColor=none;strokeWidth=1;">
      <mxGeometry x="1568" y="4360" width="192" height="140" as="geometry" />
    </mxCell>
    <mxCell id="node18" parent="1" vertex="1" value="&lt;p style=&quot;margin:0px;margin-top:4px;text-align:center;&quot;&gt;&lt;b&gt;CurvesPanel&lt;/b&gt;&lt;/p&gt;&lt;hr size=&quot;1&quot;/&gt;&lt;p style=&quot;margin:0 0 0 4px;line-height:1.6;&quot;&gt;+ CurvesPanel(int): &lt;/p&gt;&lt;hr size=&quot;1&quot;/&gt;&lt;p style=&quot;margin:0 0 0 4px;line-height:1.6;&quot;&gt;- drawCurve(Graphics2D, float, float, float, float, float, float, float, float, float, float, float, float, float, float, boolean): void&lt;br/&gt;+ paintComponent(Graphics): void&lt;/p&gt;" style="verticalAlign=top;align=left;overflow=fill;fontSize=14;fontFamily=Helvetica;html=1;rounded=0;shadow=0;comic=0;labelBackgroundColor=none;strokeWidth=1;">
      <mxGeometry x="-161" y="3361" width="336" height="117" as="geometry" />
    </mxCell>
    <mxCell id="node46" parent="1" vertex="1" value="&lt;p style=&quot;margin:0px;margin-top:4px;text-align:center;&quot;&gt;&lt;b&gt;CustomCart&lt;/b&gt;&lt;/p&gt;&lt;hr size=&quot;1&quot;/&gt;&lt;p style=&quot;margin:0 0 0 4px;line-height:1.6;&quot;&gt;+ CustomCart(List&amp;lt;CartModel&amp;gt;): &lt;/p&gt;&lt;hr size=&quot;1&quot;/&gt;&lt;p style=&quot;margin:0 0 0 4px;line-height:1.6;&quot;&gt;+ initComponent(): void&lt;/p&gt;" style="verticalAlign=top;align=left;overflow=fill;fontSize=14;fontFamily=Helvetica;html=1;rounded=0;shadow=0;comic=0;labelBackgroundColor=none;strokeWidth=1;">
      <mxGeometry x="1417" y="4553" width="224" height="93" as="geometry" />
    </mxCell>
    <mxCell id="node47" parent="1" vertex="1" value="&lt;p style=&quot;margin:0px;margin-top:4px;text-align:center;&quot;&gt;&lt;b&gt;CustomComboBox&lt;/b&gt;&lt;/p&gt;&lt;hr size=&quot;1&quot;/&gt;&lt;p style=&quot;margin:0 0 0 4px;line-height:1.6;&quot;&gt;+ CustomComboBox(int): &lt;/p&gt;" style="verticalAlign=top;align=left;overflow=fill;fontSize=14;fontFamily=Helvetica;html=1;rounded=0;shadow=0;comic=0;labelBackgroundColor=none;strokeWidth=1;">
      <mxGeometry x="607" y="4684" width="185" height="65" as="geometry" />
    </mxCell>
    <mxCell id="node40" parent="1" vertex="1" value="&lt;p style=&quot;margin:0px;margin-top:4px;text-align:center;&quot;&gt;&lt;b&gt;CustomHeaderTableCellRenderer&lt;T&gt;&lt;/b&gt;&lt;/p&gt;&lt;hr size=&quot;1&quot;/&gt;&lt;p style=&quot;margin:0 0 0 4px;line-height:1.6;&quot;&gt;+ CustomHeaderTableCellRenderer(): &lt;/p&gt;&lt;hr size=&quot;1&quot;/&gt;&lt;p style=&quot;margin:0 0 0 4px;line-height:1.6;&quot;&gt;+ getTableCellRendererComponent(JTable, Object, boolean, boolean, int, int): Component&lt;/p&gt;" style="verticalAlign=top;align=left;overflow=fill;fontSize=14;fontFamily=Helvetica;html=1;rounded=0;shadow=0;comic=0;labelBackgroundColor=none;strokeWidth=1;">
      <mxGeometry x="4429" y="4360" width="447" height="93" as="geometry" />
    </mxCell>
    <mxCell id="node51" parent="1" vertex="1" value="&lt;p style=&quot;margin:0px;margin-top:4px;text-align:center;&quot;&gt;&lt;b&gt;CustomMenu&lt;/b&gt;&lt;/p&gt;&lt;hr size=&quot;1&quot;/&gt;&lt;p style=&quot;margin:0 0 0 4px;line-height:1.6;&quot;&gt;+ CustomMenu(): &lt;/p&gt;" style="verticalAlign=top;align=left;overflow=fill;fontSize=14;fontFamily=Helvetica;html=1;rounded=0;shadow=0;comic=0;labelBackgroundColor=none;strokeWidth=1;">
      <mxGeometry x="2161" y="4684" width="147" height="65" as="geometry" />
    </mxCell>
    <mxCell id="node53" parent="1" vertex="1" value="&lt;p style=&quot;margin:0px;margin-top:4px;text-align:center;&quot;&gt;&lt;b&gt;CustomScrollPane&lt;/b&gt;&lt;/p&gt;&lt;hr size=&quot;1&quot;/&gt;&lt;p style=&quot;margin:0 0 0 4px;line-height:1.6;&quot;&gt;+ CustomScrollPane(): &lt;/p&gt;" style="verticalAlign=top;align=left;overflow=fill;fontSize=14;fontFamily=Helvetica;html=1;rounded=0;shadow=0;comic=0;labelBackgroundColor=none;strokeWidth=1;">
      <mxGeometry x="1067" y="4684" width="184" height="65" as="geometry" />
    </mxCell>
    <mxCell id="node41" parent="1" vertex="1" value="&lt;p style=&quot;margin:0px;margin-top:4px;text-align:center;&quot;&gt;&lt;b&gt;CustomSpinner&lt;/b&gt;&lt;/p&gt;&lt;hr size=&quot;1&quot;/&gt;&lt;p style=&quot;margin:0 0 0 4px;line-height:1.6;&quot;&gt;+ CustomSpinner(): &lt;/p&gt;" style="verticalAlign=top;align=left;overflow=fill;fontSize=14;fontFamily=Helvetica;html=1;rounded=0;shadow=0;comic=0;labelBackgroundColor=none;strokeWidth=1;">
      <mxGeometry x="1953" y="4684" width="163" height="65" as="geometry" />
    </mxCell>
    <mxCell id="node87" parent="1" vertex="1" value="&lt;p style=&quot;margin:0px;margin-top:4px;text-align:center;&quot;&gt;&lt;b&gt;CustomTableCellEditor&lt;/b&gt;&lt;/p&gt;&lt;hr size=&quot;1&quot;/&gt;&lt;p style=&quot;margin:0 0 0 4px;line-height:1.6;&quot;&gt;+ CustomTableCellEditor(List&amp;lt;AbstractViewObject&amp;gt;): &lt;/p&gt;&lt;hr size=&quot;1&quot;/&gt;&lt;p style=&quot;margin:0 0 0 4px;line-height:1.6;&quot;&gt;+ getTableCellEditorComponent(JTable, Object, boolean, int, int): Component&lt;/p&gt;" style="verticalAlign=top;align=left;overflow=fill;fontSize=14;fontFamily=Helvetica;html=1;rounded=0;shadow=0;comic=0;labelBackgroundColor=none;strokeWidth=1;">
      <mxGeometry x="3926" y="4360" width="458" height="93" as="geometry" />
    </mxCell>
    <mxCell id="node64" parent="1" vertex="1" value="&lt;p style=&quot;margin:0px;margin-top:4px;text-align:center;&quot;&gt;&lt;b&gt;CustomTableCellRender&lt;/b&gt;&lt;/p&gt;&lt;hr size=&quot;1&quot;/&gt;&lt;p style=&quot;margin:0 0 0 4px;line-height:1.6;&quot;&gt;+ CustomTableCellRender(List&amp;lt;AbstractViewObject&amp;gt;, JCheckBox): &lt;/p&gt;&lt;hr size=&quot;1&quot;/&gt;&lt;p style=&quot;margin:0 0 0 4px;line-height:1.6;&quot;&gt;+ getTableCellRendererComponent(JTable, Object, boolean, boolean, int, int): Component&lt;/p&gt;" style="verticalAlign=top;align=left;overflow=fill;fontSize=14;fontFamily=Helvetica;html=1;rounded=0;shadow=0;comic=0;labelBackgroundColor=none;strokeWidth=1;">
      <mxGeometry x="-161" y="4553" width="447" height="93" as="geometry" />
    </mxCell>
    <mxCell id="node121" parent="1" vertex="1" value="&lt;p style=&quot;margin:0px;margin-top:4px;text-align:center;&quot;&gt;&lt;b&gt;CustomTextArea&lt;/b&gt;&lt;/p&gt;&lt;hr size=&quot;1&quot;/&gt;&lt;p style=&quot;margin:0 0 0 4px;line-height:1.6;&quot;&gt;+ CustomTextArea(): &lt;/p&gt;" style="verticalAlign=top;align=left;overflow=fill;fontSize=14;fontFamily=Helvetica;html=1;rounded=0;shadow=0;comic=0;labelBackgroundColor=none;strokeWidth=1;">
      <mxGeometry x="1521" y="4684" width="172" height="65" as="geometry" />
    </mxCell>
    <mxCell id="node58" parent="1" vertex="1" value="&lt;p style=&quot;margin:0px;margin-top:4px;text-align:center;&quot;&gt;&lt;b&gt;DTOUtils&lt;/b&gt;&lt;/p&gt;&lt;hr size=&quot;1&quot;/&gt;&lt;p style=&quot;margin:0 0 0 4px;line-height:1.6;&quot;&gt;- DTOUtils(): &lt;/p&gt;&lt;hr size=&quot;1&quot;/&gt;&lt;p style=&quot;margin:0 0 0 4px;line-height:1.6;&quot;&gt;- instance: DTOUtils&lt;/p&gt;&lt;hr size=&quot;1&quot;/&gt;&lt;p style=&quot;margin:0 0 0 4px;line-height:1.6;&quot;&gt;+ converter(S, Class&amp;lt;D&amp;gt;): D&lt;br/&gt;+ convertToDTOList(List&amp;lt;S&amp;gt;, Class&amp;lt;D&amp;gt;): List&amp;lt;D&amp;gt;&lt;br/&gt;+ convertToDTOSet(Set&amp;lt;S&amp;gt;, Class&amp;lt;D&amp;gt;): Set&amp;lt;D&amp;gt;&lt;/p&gt;&lt;hr size=&quot;1&quot;/&gt;&lt;p style=&quot;margin:0 0 0 4px;line-height:1.6;&quot;&gt; instance: DTOUtils&lt;/p&gt;" style="verticalAlign=top;align=left;overflow=fill;fontSize=14;fontFamily=Helvetica;html=1;rounded=0;shadow=0;comic=0;labelBackgroundColor=none;strokeWidth=1;">
      <mxGeometry x="1282" y="4111" width="318" height="182" as="geometry" />
    </mxCell>
    <mxCell id="node28" parent="1" vertex="1" value="&lt;p style=&quot;margin:0px;margin-top:4px;text-align:center;&quot;&gt;&lt;b&gt;DanhMuc&lt;/b&gt;&lt;/p&gt;&lt;hr size=&quot;1&quot;/&gt;&lt;p style=&quot;margin:0 0 0 4px;line-height:1.6;&quot;&gt;+ DanhMuc(int, String, String, DanhMuc, Set&amp;lt;DanhMuc&amp;gt;, Set&amp;lt;Sach&amp;gt;): &lt;br/&gt;+ DanhMuc(): &lt;/p&gt;&lt;hr size=&quot;1&quot;/&gt;&lt;p style=&quot;margin:0 0 0 4px;line-height:1.6;&quot;&gt;- id: int&lt;br/&gt;- tenDanhMuc: String&lt;br/&gt;- danhMucCon: Set&amp;lt;DanhMuc&amp;gt;&lt;br/&gt;- setSach: Set&amp;lt;Sach&amp;gt;&lt;br/&gt;- ghiChu: String&lt;br/&gt;- danhMucCha: DanhMuc&lt;/p&gt;&lt;hr size=&quot;1&quot;/&gt;&lt;p style=&quot;margin:0 0 0 4px;line-height:1.6;&quot;&gt; ghiChu: String&lt;br/&gt; danhMucCon: Set&amp;lt;DanhMuc&amp;gt;&lt;br/&gt; setSach: Set&amp;lt;Sach&amp;gt;&lt;br/&gt; id: int&lt;br/&gt; danhMucCha: DanhMuc&lt;br/&gt; tenDanhMuc: String&lt;/p&gt;" style="verticalAlign=top;align=left;overflow=fill;fontSize=14;fontFamily=Helvetica;html=1;rounded=0;shadow=0;comic=0;labelBackgroundColor=none;strokeWidth=1;">
      <mxGeometry x="3142" y="3203" width="427" height="354" as="geometry" />
    </mxCell>
    <mxCell id="node32" parent="1" vertex="1" value="&lt;p style=&quot;margin:0px;margin-top:4px;text-align:center;&quot;&gt;&lt;b&gt;DanhMucDTO&lt;/b&gt;&lt;/p&gt;&lt;hr size=&quot;1&quot;/&gt;&lt;p style=&quot;margin:0 0 0 4px;line-height:1.6;&quot;&gt;+ DanhMucDTO(String, DanhMucDTO, String): &lt;br/&gt;+ DanhMucDTO(): &lt;/p&gt;&lt;hr size=&quot;1&quot;/&gt;&lt;p style=&quot;margin:0 0 0 4px;line-height:1.6;&quot;&gt;- ghiChu: String&lt;br/&gt;- danhMucCha: DanhMucDTO&lt;br/&gt;- tenDanhMuc: String&lt;/p&gt;&lt;hr size=&quot;1&quot;/&gt;&lt;p style=&quot;margin:0 0 0 4px;line-height:1.6;&quot;&gt;+ equals(Object): boolean&lt;br/&gt;+ toString(): String&lt;/p&gt;&lt;hr size=&quot;1&quot;/&gt;&lt;p style=&quot;margin:0 0 0 4px;line-height:1.6;&quot;&gt; danhMucCha: DanhMucDTO&lt;br/&gt; tenDanhMuc: String&lt;br/&gt; ghiChu: String&lt;/p&gt;" style="verticalAlign=top;align=left;overflow=fill;fontSize=14;fontFamily=Helvetica;html=1;rounded=0;shadow=0;comic=0;labelBackgroundColor=none;strokeWidth=1;">
      <mxGeometry x="736" y="1648" width="304" height="270" as="geometry" />
    </mxCell>
    <mxCell id="node52" parent="1" vertex="1" value="&lt;p style=&quot;margin:0px;margin-top:4px;text-align:center;&quot;&gt;&lt;b&gt;DanhMucPane&lt;/b&gt;&lt;/p&gt;&lt;hr size=&quot;1&quot;/&gt;&lt;p style=&quot;margin:0 0 0 4px;line-height:1.6;&quot;&gt;+ DanhMucPane(): &lt;/p&gt;&lt;hr size=&quot;1&quot;/&gt;&lt;p style=&quot;margin:0 0 0 4px;line-height:1.6;&quot;&gt;+ save(): void&lt;br/&gt;- createUIComponents(): void&lt;br/&gt;+ initComponent(): void&lt;br/&gt;+ searchByKeyword(): void&lt;br/&gt;+ fillTable(List&amp;lt;AbstractViewObject&amp;gt;): void&lt;br/&gt;+ showItem(int): void&lt;br/&gt;+ fillDanhMucCha(): void&lt;br/&gt;+ readForm(): DanhMucDTO&lt;br/&gt;+ delete(): void&lt;/p&gt;" style="verticalAlign=top;align=left;overflow=fill;fontSize=14;fontFamily=Helvetica;html=1;rounded=0;shadow=0;comic=0;labelBackgroundColor=none;strokeWidth=1;">
      <mxGeometry x="2893" y="3738" width="279" height="262" as="geometry" />
    </mxCell>
    <mxCell id="node44" parent="1" vertex="1" value="&lt;p style=&quot;margin:0px;margin-top:4px;text-align:center;&quot;&gt;&lt;b&gt;DanhMucService&lt;/b&gt;&lt;/p&gt;&lt;hr size=&quot;1&quot;/&gt;&lt;p style=&quot;margin:0 0 0 4px;line-height:1.6;&quot;&gt;+ DanhMucService(): &lt;/p&gt;&lt;hr size=&quot;1&quot;/&gt;&lt;p style=&quot;margin:0 0 0 4px;line-height:1.6;&quot;&gt;+ update(DanhMucDTO): void&lt;br/&gt;+ getById(Integer): DanhMucDTO&lt;br/&gt;+ getPage(Pageable): List&amp;lt;DanhMucDTO&amp;gt;&lt;br/&gt;+ getTotalPage(Pageable): int&lt;br/&gt;+ getAllByIds(List&amp;lt;Integer&amp;gt;): List&amp;lt;DanhMucDTO&amp;gt;&lt;br/&gt;~ getChildDanhMucDTO(DanhMuc, int): List&amp;lt;DanhMucDTO&amp;gt;&lt;br/&gt;+ delete(Integer): void&lt;br/&gt;+ searchByKeyword(String): List&amp;lt;DanhMucDTO&amp;gt;&lt;br/&gt;+ deleteAll(Set&amp;lt;Integer&amp;gt;): void&lt;br/&gt;+ insert(DanhMucDTO): DanhMucDTO&lt;/p&gt;&lt;hr size=&quot;1&quot;/&gt;&lt;p style=&quot;margin:0 0 0 4px;line-height:1.6;&quot;&gt; all: List&amp;lt;DanhMucDTO&amp;gt;&lt;br/&gt; allDanhMucCha: List&amp;lt;DanhMucDTO&amp;gt;&lt;/p&gt;" style="verticalAlign=top;align=left;overflow=fill;fontSize=14;fontFamily=Helvetica;html=1;rounded=0;shadow=0;comic=0;labelBackgroundColor=none;strokeWidth=1;">
      <mxGeometry x="604" y="676" width="383" height="332" as="geometry" />
    </mxCell>
    <mxCell id="node127" parent="1" vertex="1" value="&lt;p style=&quot;margin:0px;margin-top:4px;text-align:center;&quot;&gt;&lt;b&gt;DanhMucViewObject&lt;/b&gt;&lt;/p&gt;&lt;hr size=&quot;1&quot;/&gt;&lt;p style=&quot;margin:0 0 0 4px;line-height:1.6;&quot;&gt;+ DanhMucViewObject(DanhMucDTO): &lt;/p&gt;&lt;hr size=&quot;1&quot;/&gt;&lt;p style=&quot;margin:0 0 0 4px;line-height:1.6;&quot;&gt;- moTa: String&lt;br/&gt;- tenDanhMucCha: String&lt;/p&gt;&lt;hr size=&quot;1&quot;/&gt;&lt;p style=&quot;margin:0 0 0 4px;line-height:1.6;&quot;&gt;+ equals(Object): boolean&lt;br/&gt;# canEqual(Object): boolean&lt;br/&gt;+ hashCode(): int&lt;br/&gt;+ toObject(ExecutorService, JTable, Set, List&amp;lt;JCheckBox&amp;gt;): Object[]&lt;br/&gt;+ toString(): String&lt;/p&gt;&lt;hr size=&quot;1&quot;/&gt;&lt;p style=&quot;margin:0 0 0 4px;line-height:1.6;&quot;&gt; moTa: String&lt;br/&gt; tenDanhMucCha: String&lt;/p&gt;" style="verticalAlign=top;align=left;overflow=fill;fontSize=14;fontFamily=Helvetica;html=1;rounded=0;shadow=0;comic=0;labelBackgroundColor=none;strokeWidth=1;">
      <mxGeometry x="1635" y="2734" width="429" height="270" as="geometry" />
    </mxCell>
    <mxCell id="node120" parent="1" vertex="1" value="&lt;p style=&quot;margin:0px;margin-top:4px;text-align:center;&quot;&gt;&lt;b&gt;DoanhThuNamDTO&lt;/b&gt;&lt;/p&gt;&lt;hr size=&quot;1&quot;/&gt;&lt;p style=&quot;margin:0 0 0 4px;line-height:1.6;&quot;&gt;+ DoanhThuNamDTO(int): &lt;br/&gt;+ DoanhThuNamDTO(): &lt;br/&gt;+ DoanhThuNamDTO(Long, Long, int): &lt;/p&gt;&lt;hr size=&quot;1&quot;/&gt;&lt;p style=&quot;margin:0 0 0 4px;line-height:1.6;&quot;&gt;- thang: int&lt;/p&gt;&lt;hr size=&quot;1&quot;/&gt;&lt;p style=&quot;margin:0 0 0 4px;line-height:1.6;&quot;&gt;+ toString(): String&lt;br/&gt;+ equals(Object): boolean&lt;br/&gt;# canEqual(Object): boolean&lt;br/&gt;+ hashCode(): int&lt;/p&gt;&lt;hr size=&quot;1&quot;/&gt;&lt;p style=&quot;margin:0 0 0 4px;line-height:1.6;&quot;&gt; thang: int&lt;/p&gt;" style="verticalAlign=top;align=left;overflow=fill;fontSize=14;fontFamily=Helvetica;html=1;rounded=0;shadow=0;comic=0;labelBackgroundColor=none;strokeWidth=1;">
      <mxGeometry x="3710" y="2602" width="257" height="248" as="geometry" />
    </mxCell>
    <mxCell id="node29" parent="1" vertex="1" value="&lt;p style=&quot;margin:0px;margin-top:4px;text-align:center;&quot;&gt;&lt;b&gt;DoanhThuNgayDTO&lt;/b&gt;&lt;/p&gt;&lt;hr size=&quot;1&quot;/&gt;&lt;p style=&quot;margin:0 0 0 4px;line-height:1.6;&quot;&gt;+ DoanhThuNgayDTO(int): &lt;br/&gt;+ DoanhThuNgayDTO(): &lt;br/&gt;+ DoanhThuNgayDTO(Long, Long, int): &lt;/p&gt;&lt;hr size=&quot;1&quot;/&gt;&lt;p style=&quot;margin:0 0 0 4px;line-height:1.6;&quot;&gt;- ngay: int&lt;/p&gt;&lt;hr size=&quot;1&quot;/&gt;&lt;p style=&quot;margin:0 0 0 4px;line-height:1.6;&quot;&gt;+ toString(): String&lt;br/&gt;+ equals(Object): boolean&lt;br/&gt;# canEqual(Object): boolean&lt;br/&gt;+ hashCode(): int&lt;/p&gt;&lt;hr size=&quot;1&quot;/&gt;&lt;p style=&quot;margin:0 0 0 4px;line-height:1.6;&quot;&gt; ngay: int&lt;/p&gt;" style="verticalAlign=top;align=left;overflow=fill;fontSize=14;fontFamily=Helvetica;html=1;rounded=0;shadow=0;comic=0;labelBackgroundColor=none;strokeWidth=1;">
      <mxGeometry x="3429" y="2602" width="261" height="248" as="geometry" />
    </mxCell>
    <mxCell id="node2" parent="1" vertex="1" value="&lt;p style=&quot;margin:0px;margin-top:4px;text-align:center;&quot;&gt;&lt;b&gt;DonHang&lt;/b&gt;&lt;/p&gt;&lt;hr size=&quot;1&quot;/&gt;&lt;p style=&quot;margin:0 0 0 4px;line-height:1.6;&quot;&gt;+ DonHang(int, long, long, Long, LocalDateTime, int, int, Boolean, KhachHang, Account, Collection&amp;lt;ChiTietDonHang&amp;gt;): &lt;br/&gt;+ DonHang(): &lt;/p&gt;&lt;hr size=&quot;1&quot;/&gt;&lt;p style=&quot;margin:0 0 0 4px;line-height:1.6;&quot;&gt;- idKhach: int&lt;br/&gt;- tongTien: Long&lt;br/&gt;- chiTietDonHangs: Collection&amp;lt;ChiTietDonHang&amp;gt;&lt;br/&gt;- account: Account&lt;br/&gt;- ngayTao: LocalDateTime&lt;br/&gt;- pttt: Boolean&lt;br/&gt;- khachHangByIdKhach: KhachHang&lt;br/&gt;- tienHang: long&lt;br/&gt;- idTaiKhoan: int&lt;br/&gt;- chietKhau: long&lt;br/&gt;- id: int&lt;/p&gt;&lt;hr size=&quot;1&quot;/&gt;&lt;p style=&quot;margin:0 0 0 4px;line-height:1.6;&quot;&gt; pttt: Boolean&lt;br/&gt; tongTien: Long&lt;br/&gt; chiTietDonHangs: Collection&amp;lt;ChiTietDonHang&amp;gt;&lt;br/&gt; idTaiKhoan: int&lt;br/&gt; account: Account&lt;br/&gt; tienHang: long&lt;br/&gt; idKhach: int&lt;br/&gt; chietKhau: long&lt;br/&gt; ngayTao: LocalDateTime&lt;br/&gt; id: int&lt;br/&gt; khachHangByIdKhach: KhachHang&lt;/p&gt;" style="verticalAlign=top;align=left;overflow=fill;fontSize=14;fontFamily=Helvetica;html=1;rounded=0;shadow=0;comic=0;labelBackgroundColor=none;strokeWidth=1;">
      <mxGeometry x="4422" y="2194" width="384" height="574" as="geometry" />
    </mxCell>
    <mxCell id="node48" parent="1" vertex="1" value="&lt;p style=&quot;margin:0px;margin-top:4px;text-align:center;&quot;&gt;&lt;b&gt;DonHangChiTietService&lt;/b&gt;&lt;/p&gt;&lt;hr size=&quot;1&quot;/&gt;&lt;p style=&quot;margin:0 0 0 4px;line-height:1.6;&quot;&gt;+ DonHangChiTietService(): &lt;/p&gt;&lt;hr size=&quot;1&quot;/&gt;&lt;p style=&quot;margin:0 0 0 4px;line-height:1.6;&quot;&gt;+ update(ChiTietDonHangDTO): void&lt;br/&gt;+ searchByKeyword(String): List&amp;lt;ChiTietDonHangDTO&amp;gt;&lt;br/&gt;+ deleteAll(Set&amp;lt;Integer&amp;gt;): void&lt;br/&gt;+ insert(ChiTietDonHangDTO): ChiTietDonHangDTO&lt;br/&gt;+ getAllByIds(List&amp;lt;Integer&amp;gt;): List&amp;lt;ChiTietDonHangDTO&amp;gt;&lt;br/&gt;+ getById(Integer): ChiTietDonHangDTO&lt;br/&gt;+ getAllByDonHang(DonHangDTO): List&amp;lt;ChiTietDonHangDTO&amp;gt;&lt;br/&gt;+ getPage(Pageable): List&amp;lt;ChiTietDonHangDTO&amp;gt;&lt;br/&gt;+ getTotalPage(Pageable): int&lt;br/&gt;+ delete(Integer): void&lt;/p&gt;&lt;hr size=&quot;1&quot;/&gt;&lt;p style=&quot;margin:0 0 0 4px;line-height:1.6;&quot;&gt; all: List&amp;lt;ChiTietDonHangDTO&amp;gt;&lt;/p&gt;" style="verticalAlign=top;align=left;overflow=fill;fontSize=14;fontFamily=Helvetica;html=1;rounded=0;shadow=0;comic=0;labelBackgroundColor=none;strokeWidth=1;">
      <mxGeometry x="187" y="687" width="397" height="310" as="geometry" />
    </mxCell>
    <mxCell id="node9" parent="1" vertex="1" value="&lt;p style=&quot;margin:0px;margin-top:4px;text-align:center;&quot;&gt;&lt;b&gt;DonHangDTO&lt;/b&gt;&lt;/p&gt;&lt;hr size=&quot;1&quot;/&gt;&lt;p style=&quot;margin:0 0 0 4px;line-height:1.6;&quot;&gt;+ DonHangDTO(KhachHangDTO, AccountDTO, Long, Boolean, List&amp;lt;ChiTietDonHangDTO&amp;gt;): &lt;br/&gt;+ DonHangDTO(KhachHangDTO, AccountDTO, Long, LocalDateTime, Boolean, long, long, List&amp;lt;ChiTietDonHangDTO&amp;gt;): &lt;br/&gt;+ DonHangDTO(): &lt;/p&gt;&lt;hr size=&quot;1&quot;/&gt;&lt;p style=&quot;margin:0 0 0 4px;line-height:1.6;&quot;&gt;- chiTietDonHangs: List&amp;lt;ChiTietDonHangDTO&amp;gt;&lt;br/&gt;- tongTien: Long&lt;br/&gt;- tienHang: long&lt;br/&gt;- khach: KhachHangDTO&lt;br/&gt;- chietKhau: long&lt;br/&gt;- pttt: Boolean&lt;br/&gt;- ngayTao: LocalDateTime&lt;br/&gt;- account: AccountDTO&lt;/p&gt;&lt;hr size=&quot;1&quot;/&gt;&lt;p style=&quot;margin:0 0 0 4px;line-height:1.6;&quot;&gt;+ toString(): String&lt;br/&gt;+ equals(Object): boolean&lt;br/&gt;# canEqual(Object): boolean&lt;br/&gt;+ hashCode(): int&lt;/p&gt;&lt;hr size=&quot;1&quot;/&gt;&lt;p style=&quot;margin:0 0 0 4px;line-height:1.6;&quot;&gt; pttt: Boolean&lt;br/&gt; tongTien: Long&lt;br/&gt; khach: KhachHangDTO&lt;br/&gt; chiTietDonHangs: List&amp;lt;ChiTietDonHangDTO&amp;gt;&lt;br/&gt; account: AccountDTO&lt;br/&gt; tienHang: long&lt;br/&gt; chietKhau: long&lt;br/&gt; ngayTao: LocalDateTime&lt;/p&gt;" style="verticalAlign=top;align=left;overflow=fill;fontSize=14;fontFamily=Helvetica;html=1;rounded=0;shadow=0;comic=0;labelBackgroundColor=none;strokeWidth=1;">
      <mxGeometry x="-161" y="1505" width="446" height="556" as="geometry" />
    </mxCell>
    <mxCell id="node63" parent="1" vertex="1" value="&lt;p style=&quot;margin:0px;margin-top:4px;text-align:center;&quot;&gt;&lt;b&gt;DonHangDialog&lt;/b&gt;&lt;/p&gt;&lt;hr size=&quot;1&quot;/&gt;&lt;p style=&quot;margin:0 0 0 4px;line-height:1.6;&quot;&gt;+ DonHangDialog(Component): &lt;/p&gt;" style="verticalAlign=top;align=left;overflow=fill;fontSize=14;fontFamily=Helvetica;html=1;rounded=0;shadow=0;comic=0;labelBackgroundColor=none;strokeWidth=1;">
      <mxGeometry x="-161" y="4684" width="216" height="65" as="geometry" />
    </mxCell>
    <mxCell id="node50" parent="1" vertex="1" value="&lt;p style=&quot;margin:0px;margin-top:4px;text-align:center;&quot;&gt;&lt;b&gt;DonHangPane&lt;/b&gt;&lt;/p&gt;&lt;hr size=&quot;1&quot;/&gt;&lt;p style=&quot;margin:0 0 0 4px;line-height:1.6;&quot;&gt;+ DonHangPane(): &lt;/p&gt;&lt;hr size=&quot;1&quot;/&gt;&lt;p style=&quot;margin:0 0 0 4px;line-height:1.6;&quot;&gt;- delete(): void&lt;br/&gt;- createUIComponents(): void&lt;br/&gt;+ initComponent(): void&lt;br/&gt;+ selectSizeDisplay(): void&lt;br/&gt;+ fillTable(List&amp;lt;AbstractViewObject&amp;gt;): void&lt;br/&gt;+ searchByKeyword(): void&lt;br/&gt;- update(): void&lt;br/&gt;- add(): void&lt;br/&gt;+ selectPageDisplay(): void&lt;br/&gt;+ fillListPage(int): void&lt;/p&gt;" style="verticalAlign=top;align=left;overflow=fill;fontSize=14;fontFamily=Helvetica;html=1;rounded=0;shadow=0;comic=0;labelBackgroundColor=none;strokeWidth=1;">
      <mxGeometry x="1779" y="3738" width="279" height="284" as="geometry" />
    </mxCell>
    <mxCell id="node88" parent="1" vertex="1" value="&lt;p style=&quot;margin:0px;margin-top:4px;text-align:center;&quot;&gt;&lt;b&gt;DonHangService&lt;/b&gt;&lt;/p&gt;&lt;hr size=&quot;1&quot;/&gt;&lt;p style=&quot;margin:0 0 0 4px;line-height:1.6;&quot;&gt;+ DonHangService(): &lt;/p&gt;&lt;hr size=&quot;1&quot;/&gt;&lt;p style=&quot;margin:0 0 0 4px;line-height:1.6;&quot;&gt;+ getById(Integer): DonHangDTO&lt;br/&gt;+ deleteAll(Set&amp;lt;Integer&amp;gt;): void&lt;br/&gt;+ getTotalPage(Pageable): int&lt;br/&gt;+ insert(DonHangDTO): DonHangDTO&lt;br/&gt;+ searchByKeyword(String): List&amp;lt;DonHangDTO&amp;gt;&lt;br/&gt;+ getAllByIds(List&amp;lt;Integer&amp;gt;): List&amp;lt;DonHangDTO&amp;gt;&lt;br/&gt;+ update(DonHangDTO): void&lt;br/&gt;+ delete(Integer): void&lt;br/&gt;+ getPage(Pageable): List&amp;lt;DonHangDTO&amp;gt;&lt;/p&gt;&lt;hr size=&quot;1&quot;/&gt;&lt;p style=&quot;margin:0 0 0 4px;line-height:1.6;&quot;&gt; all: List&amp;lt;DonHangDTO&amp;gt;&lt;/p&gt;" style="verticalAlign=top;align=left;overflow=fill;fontSize=14;fontFamily=Helvetica;html=1;rounded=0;shadow=0;comic=0;labelBackgroundColor=none;strokeWidth=1;">
      <mxGeometry x="1808" y="698" width="315" height="288" as="geometry" />
    </mxCell>
    <mxCell id="node13" parent="1" vertex="1" value="&lt;p style=&quot;margin:0px;margin-top:4px;text-align:center;&quot;&gt;&lt;b&gt;DonHangViewObject&lt;/b&gt;&lt;/p&gt;&lt;hr size=&quot;1&quot;/&gt;&lt;p style=&quot;margin:0 0 0 4px;line-height:1.6;&quot;&gt;+ DonHangViewObject(DonHangDTO): &lt;/p&gt;&lt;hr size=&quot;1&quot;/&gt;&lt;p style=&quot;margin:0 0 0 4px;line-height:1.6;&quot;&gt;- ngayTao: LocalDateTime&lt;br/&gt;- maNV: int&lt;br/&gt;- pttt: boolean&lt;br/&gt;- tongTien: String&lt;/p&gt;&lt;hr size=&quot;1&quot;/&gt;&lt;p style=&quot;margin:0 0 0 4px;line-height:1.6;&quot;&gt;+ equals(Object): boolean&lt;br/&gt;+ toString(): String&lt;br/&gt;# canEqual(Object): boolean&lt;br/&gt;+ hashCode(): int&lt;br/&gt;+ toObject(ExecutorService, JTable, Set, List&amp;lt;JCheckBox&amp;gt;): Object[]&lt;/p&gt;&lt;hr size=&quot;1&quot;/&gt;&lt;p style=&quot;margin:0 0 0 4px;line-height:1.6;&quot;&gt; pttt: boolean&lt;br/&gt; maNV: int&lt;br/&gt; ngayTao: LocalDateTime&lt;br/&gt; tongTien: String&lt;/p&gt;" style="verticalAlign=top;align=left;overflow=fill;fontSize=14;fontFamily=Helvetica;html=1;rounded=0;shadow=0;comic=0;labelBackgroundColor=none;strokeWidth=1;">
      <mxGeometry x="1186" y="2690" width="429" height="358" as="geometry" />
    </mxCell>
    <mxCell id="node83" parent="1" vertex="1" value="&lt;p style=&quot;margin:0px;margin-top:4px;text-align:center;&quot;&gt;&lt;b&gt;ExportSachToXlsx&lt;/b&gt;&lt;/p&gt;&lt;hr size=&quot;1&quot;/&gt;&lt;p style=&quot;margin:0 0 0 4px;line-height:1.6;&quot;&gt;+ ExportSachToXlsx(): &lt;/p&gt;&lt;hr size=&quot;1&quot;/&gt;&lt;p style=&quot;margin:0 0 0 4px;line-height:1.6;&quot;&gt;+ exportToExcel(List&amp;lt;SachDTO&amp;gt;, String): void&lt;br/&gt;- formatLocalDateTime(LocalDateTime): String&lt;/p&gt;" style="verticalAlign=top;align=left;overflow=fill;fontSize=14;fontFamily=Helvetica;html=1;rounded=0;shadow=0;comic=0;labelBackgroundColor=none;strokeWidth=1;">
      <mxGeometry x="2228" y="4360" width="303" height="117" as="geometry" />
    </mxCell>
    <mxCell id="node61" parent="1" vertex="1" value="&lt;p style=&quot;margin:0px;margin-top:4px;text-align:center;&quot;&gt;&lt;b&gt;GradientPanel&lt;/b&gt;&lt;/p&gt;&lt;hr size=&quot;1&quot;/&gt;&lt;p style=&quot;margin:0 0 0 4px;line-height:1.6;&quot;&gt;+ GradientPanel(int): &lt;br/&gt;+ GradientPanel(): &lt;/p&gt;&lt;hr size=&quot;1&quot;/&gt;&lt;p style=&quot;margin:0 0 0 4px;line-height:1.6;&quot;&gt;+ paintComponent(Graphics): void&lt;/p&gt;" style="verticalAlign=top;align=left;overflow=fill;fontSize=14;fontFamily=Helvetica;html=1;rounded=0;shadow=0;comic=0;labelBackgroundColor=none;strokeWidth=1;">
      <mxGeometry x="-107" y="3203" width="229" height="117" as="geometry" />
    </mxCell>
    <mxCell id="node101" parent="1" vertex="1" value="&lt;p style=&quot;margin:0px;margin-top:4px;text-align:center;&quot;&gt;&lt;b&gt;GraphicsUtilities&lt;/b&gt;&lt;/p&gt;&lt;hr size=&quot;1&quot;/&gt;&lt;p style=&quot;margin:0 0 0 4px;line-height:1.6;&quot;&gt;- GraphicsUtilities(): &lt;/p&gt;&lt;hr size=&quot;1&quot;/&gt;&lt;p style=&quot;margin:0 0 0 4px;line-height:1.6;&quot;&gt;+ loadCompatibleImage(URL): BufferedImage&lt;br/&gt;+ createCompatibleImage(int, int): BufferedImage&lt;br/&gt;+ createColorModelCompatibleImage(BufferedImage): BufferedImage&lt;br/&gt;+ createCompatibleTranslucentImage(int, int): BufferedImage&lt;br/&gt;+ getPixels(BufferedImage, int, int, int, int, int[]): int[]&lt;br/&gt;+ createCompatibleImage(BufferedImage): BufferedImage&lt;br/&gt;+ setPixels(BufferedImage, int, int, int, int, int[]): void&lt;br/&gt;+ toCompatibleImage(BufferedImage): BufferedImage&lt;br/&gt;+ createThumbnailFast(BufferedImage, int, int): BufferedImage&lt;br/&gt;+ createThumbnail(BufferedImage, int, int): BufferedImage&lt;br/&gt;+ createThumbnailFast(BufferedImage, int): BufferedImage&lt;br/&gt;+ createCompatibleImage(BufferedImage, int, int): BufferedImage&lt;br/&gt;+ createThumbnail(BufferedImage, int): BufferedImage&lt;/p&gt;&lt;hr size=&quot;1&quot;/&gt;&lt;p style=&quot;margin:0 0 0 4px;line-height:1.6;&quot;&gt; graphicsConfiguration: GraphicsConfiguration&lt;/p&gt;" style="verticalAlign=top;align=left;overflow=fill;fontSize=14;fontFamily=Helvetica;html=1;rounded=0;shadow=0;comic=0;labelBackgroundColor=none;strokeWidth=1;">
      <mxGeometry x="2204" y="3203" width="425" height="376" as="geometry" />
    </mxCell>
    <mxCell id="node117" parent="1" vertex="1" value="&lt;p style=&quot;margin:0px;margin-top:4px;text-align:center;&quot;&gt;&lt;b&gt;HashUtils&lt;/b&gt;&lt;/p&gt;&lt;hr size=&quot;1&quot;/&gt;&lt;p style=&quot;margin:0 0 0 4px;line-height:1.6;&quot;&gt;+ HashUtils(): &lt;/p&gt;&lt;hr size=&quot;1&quot;/&gt;&lt;p style=&quot;margin:0 0 0 4px;line-height:1.6;&quot;&gt;+ decryptMD5(String): String&lt;br/&gt;+ checkPassword(String, String): boolean&lt;br/&gt;+ hashPassword(String): String&lt;/p&gt;" style="verticalAlign=top;align=left;overflow=fill;fontSize=14;fontFamily=Helvetica;html=1;rounded=0;shadow=0;comic=0;labelBackgroundColor=none;strokeWidth=1;">
      <mxGeometry x="175" y="4360" width="270" height="140" as="geometry" />
    </mxCell>
    <mxCell id="node62" parent="1" vertex="1" value="&lt;p style=&quot;margin:0px;margin-top:4px;text-align:center;&quot;&gt;&lt;b&gt;HoaDonDialog&lt;/b&gt;&lt;/p&gt;&lt;hr size=&quot;1&quot;/&gt;&lt;p style=&quot;margin:0 0 0 4px;line-height:1.6;&quot;&gt;+ HoaDonDialog(Component, DonHangDTO, boolean): &lt;/p&gt;&lt;hr size=&quot;1&quot;/&gt;&lt;p style=&quot;margin:0 0 0 4px;line-height:1.6;&quot;&gt;- createUIComponents(): void&lt;/p&gt;" style="verticalAlign=top;align=left;overflow=fill;fontSize=14;fontFamily=Helvetica;html=1;rounded=0;shadow=0;comic=0;labelBackgroundColor=none;strokeWidth=1;">
      <mxGeometry x="751" y="4553" width="347" height="93" as="geometry" />
    </mxCell>
    <mxCell id="node110" parent="1" vertex="1" value="&lt;p style=&quot;margin:0px;margin-top:4px;text-align:center;&quot;&gt;&lt;i&gt;&amp;lt;&amp;lt;interface&amp;gt;&amp;gt;&lt;/i&gt;&lt;br/&gt;&lt;b&gt;IAccountRepository&lt;/b&gt;&lt;/p&gt;&lt;hr size=&quot;1&quot;/&gt;&lt;p style=&quot;margin:0 0 0 4px;line-height:1.6;&quot;&gt;+ findByEmail(String): Account&lt;br/&gt;+ findByUsername(String): Account&lt;br/&gt;+ findAllByKeyword(String): List&amp;lt;Account&amp;gt;&lt;/p&gt;" style="verticalAlign=top;align=left;overflow=fill;fontSize=14;fontFamily=Helvetica;html=1;rounded=0;shadow=0;comic=0;labelBackgroundColor=none;strokeWidth=1;">
      <mxGeometry x="3603" y="4360" width="278" height="130" as="geometry" />
    </mxCell>
    <mxCell id="node125" parent="1" vertex="1" value="&lt;p style=&quot;margin:0px;margin-top:4px;text-align:center;&quot;&gt;&lt;i&gt;&amp;lt;&amp;lt;interface&amp;gt;&amp;gt;&lt;/i&gt;&lt;br/&gt;&lt;b&gt;IAccountService&lt;/b&gt;&lt;/p&gt;&lt;hr size=&quot;1&quot;/&gt;&lt;p style=&quot;margin:0 0 0 4px;line-height:1.6;&quot;&gt;+ getByUsername(String): AccountDTO&lt;br/&gt;+ createAccount(AccountDTO): void&lt;br/&gt;+ updateUsernamePassword(AccountDTO): void&lt;br/&gt;+ getByEmail(String): AccountDTO&lt;/p&gt;" style="verticalAlign=top;align=left;overflow=fill;fontSize=14;fontFamily=Helvetica;html=1;rounded=0;shadow=0;comic=0;labelBackgroundColor=none;strokeWidth=1;">
      <mxGeometry x="2593" y="355" width="310" height="158" as="geometry" />
    </mxCell>
    <mxCell id="node23" parent="1" vertex="1" value="&lt;p style=&quot;margin:0px;margin-top:4px;text-align:center;&quot;&gt;&lt;i&gt;&amp;lt;&amp;lt;interface&amp;gt;&amp;gt;&lt;/i&gt;&lt;br/&gt;&lt;b&gt;ICrudServices&lt;T, K&gt;&lt;/b&gt;&lt;/p&gt;&lt;hr size=&quot;1&quot;/&gt;&lt;p style=&quot;margin:0 0 0 4px;line-height:1.6;&quot;&gt;+ getAllByIds(List&amp;lt;K&amp;gt;): List&amp;lt;T&amp;gt;&lt;br/&gt;+ getTotalPage(Pageable): int&lt;br/&gt;+ getById(K): T&lt;br/&gt;+ delete(K): void&lt;br/&gt;+ deleteAll(Set&amp;lt;K&amp;gt;): void&lt;br/&gt;+ getPage(Pageable): List&amp;lt;T&amp;gt;&lt;br/&gt;+ insert(T): T&lt;br/&gt;+ searchByKeyword(String): List&amp;lt;T&amp;gt;&lt;br/&gt;+ update(T): void&lt;/p&gt;&lt;hr size=&quot;1&quot;/&gt;&lt;p style=&quot;margin:0 0 0 4px;line-height:1.6;&quot;&gt; all: List&amp;lt;T&amp;gt;&lt;/p&gt;" style="verticalAlign=top;align=left;overflow=fill;fontSize=14;fontFamily=Helvetica;html=1;rounded=0;shadow=0;comic=0;labelBackgroundColor=none;strokeWidth=1;">
      <mxGeometry x="1467" y="-14" width="242" height="262" as="geometry" />
    </mxCell>
    <mxCell id="node116" parent="1" vertex="1" value="&lt;p style=&quot;margin:0px;margin-top:4px;text-align:center;&quot;&gt;&lt;i&gt;&amp;lt;&amp;lt;interface&amp;gt;&amp;gt;&lt;/i&gt;&lt;br/&gt;&lt;b&gt;ICtkmRepository&lt;/b&gt;&lt;/p&gt;&lt;hr size=&quot;1&quot;/&gt;&lt;p style=&quot;margin:0 0 0 4px;line-height:1.6;&quot;&gt;+ findAllByKeyword(String): List&amp;lt;Ctkm&amp;gt;&lt;br/&gt;+ findNotAvailablePromote(Pageable): Page&amp;lt;Ctkm&amp;gt;&lt;br/&gt;+ findAvailablePromote(Pageable): Page&amp;lt;Ctkm&amp;gt;&lt;/p&gt;" style="verticalAlign=top;align=left;overflow=fill;fontSize=14;fontFamily=Helvetica;html=1;rounded=0;shadow=0;comic=0;labelBackgroundColor=none;strokeWidth=1;">
      <mxGeometry x="3228" y="4360" width="330" height="130" as="geometry" />
    </mxCell>
    <mxCell id="node72" parent="1" vertex="1" value="&lt;p style=&quot;margin:0px;margin-top:4px;text-align:center;&quot;&gt;&lt;i&gt;&amp;lt;&amp;lt;interface&amp;gt;&amp;gt;&lt;/i&gt;&lt;br/&gt;&lt;b&gt;ICtkmSachRepository&lt;/b&gt;&lt;/p&gt;&lt;hr size=&quot;1&quot;/&gt;&lt;p style=&quot;margin:0 0 0 4px;line-height:1.6;&quot;&gt;+ findAllByKeyword(String): List&amp;lt;CtkmSach&amp;gt;&lt;br/&gt;+ findAllByCtkm(Ctkm): List&amp;lt;CtkmSach&amp;gt;&lt;br/&gt;+ searchAllSachInCtkm(String, Ctkm): List&amp;lt;CtkmSach&amp;gt;&lt;/p&gt;" style="verticalAlign=top;align=left;overflow=fill;fontSize=14;fontFamily=Helvetica;html=1;rounded=0;shadow=0;comic=0;labelBackgroundColor=none;strokeWidth=1;">
      <mxGeometry x="2835" y="4360" width="348" height="130" as="geometry" />
    </mxCell>
    <mxCell id="node69" parent="1" vertex="1" value="&lt;p style=&quot;margin:0px;margin-top:4px;text-align:center;&quot;&gt;&lt;i&gt;&amp;lt;&amp;lt;interface&amp;gt;&amp;gt;&lt;/i&gt;&lt;br/&gt;&lt;b&gt;ICtkmSachService&lt;/b&gt;&lt;/p&gt;&lt;hr size=&quot;1&quot;/&gt;&lt;p style=&quot;margin:0 0 0 4px;line-height:1.6;&quot;&gt;+ getAllSachInCtkm(CtkmDTO): List&amp;lt;CtkmSachDTO&amp;gt;&lt;br/&gt;+ searchAllSachInCtkm(String, CtkmDTO): List&amp;lt;CtkmSachDTO&amp;gt;&lt;br/&gt;+ insetAll(List&amp;lt;CtkmSachDTO&amp;gt;): List&amp;lt;CtkmSachDTO&amp;gt;&lt;/p&gt;" style="verticalAlign=top;align=left;overflow=fill;fontSize=14;fontFamily=Helvetica;html=1;rounded=0;shadow=0;comic=0;labelBackgroundColor=none;strokeWidth=1;">
      <mxGeometry x="1388" y="366" width="400" height="130" as="geometry" />
    </mxCell>
    <mxCell id="node95" parent="1" vertex="1" value="&lt;p style=&quot;margin:0px;margin-top:4px;text-align:center;&quot;&gt;&lt;i&gt;&amp;lt;&amp;lt;interface&amp;gt;&amp;gt;&lt;/i&gt;&lt;br/&gt;&lt;b&gt;ICtkmService&lt;/b&gt;&lt;/p&gt;&lt;hr size=&quot;1&quot;/&gt;&lt;p style=&quot;margin:0 0 0 4px;line-height:1.6;&quot;&gt;+ getAllAvailableToTalPage(Pageable): int&lt;br/&gt;+ getAllNotAvailableToTalPage(Pageable): int&lt;br/&gt;+ getAllAvailable(Pageable): List&amp;lt;CtkmDTO&amp;gt;&lt;br/&gt;+ getAllNotAvailable(Pageable): List&amp;lt;CtkmDTO&amp;gt;&lt;/p&gt;" style="verticalAlign=top;align=left;overflow=fill;fontSize=14;fontFamily=Helvetica;html=1;rounded=0;shadow=0;comic=0;labelBackgroundColor=none;strokeWidth=1;">
      <mxGeometry x="2923" y="355" width="311" height="158" as="geometry" />
    </mxCell>
    <mxCell id="node111" parent="1" vertex="1" value="&lt;p style=&quot;margin:0px;margin-top:4px;text-align:center;&quot;&gt;&lt;i&gt;&amp;lt;&amp;lt;interface&amp;gt;&amp;gt;&lt;/i&gt;&lt;br/&gt;&lt;b&gt;IDanhMucRepository&lt;/b&gt;&lt;/p&gt;&lt;hr size=&quot;1&quot;/&gt;&lt;p style=&quot;margin:0 0 0 4px;line-height:1.6;&quot;&gt;+ findAllByDanhMucCha(DanhMuc): List&amp;lt;DanhMuc&amp;gt;&lt;br/&gt;+ findAllByKeyword(String): List&amp;lt;DanhMuc&amp;gt;&lt;/p&gt;" style="verticalAlign=top;align=left;overflow=fill;fontSize=14;fontFamily=Helvetica;html=1;rounded=0;shadow=0;comic=0;labelBackgroundColor=none;strokeWidth=1;">
      <mxGeometry x="3079" y="4553" width="336" height="103" as="geometry" />
    </mxCell>
    <mxCell id="node27" parent="1" vertex="1" value="&lt;p style=&quot;margin:0px;margin-top:4px;text-align:center;&quot;&gt;&lt;i&gt;&amp;lt;&amp;lt;interface&amp;gt;&amp;gt;&lt;/i&gt;&lt;br/&gt;&lt;b&gt;IDanhMucService&lt;/b&gt;&lt;/p&gt;&lt;hr size=&quot;1&quot;/&gt;&lt;p style=&quot;margin:0 0 0 4px;line-height:1.6;&quot;&gt; allDanhMucCha: List&amp;lt;DanhMucDTO&amp;gt;&lt;/p&gt;" style="verticalAlign=top;align=left;overflow=fill;fontSize=14;fontFamily=Helvetica;html=1;rounded=0;shadow=0;comic=0;labelBackgroundColor=none;strokeWidth=1;">
      <mxGeometry x="666" y="388" width="260" height="75" as="geometry" />
    </mxCell>
    <mxCell id="node66" parent="1" vertex="1" value="&lt;p style=&quot;margin:0px;margin-top:4px;text-align:center;&quot;&gt;&lt;i&gt;&amp;lt;&amp;lt;interface&amp;gt;&amp;gt;&lt;/i&gt;&lt;br/&gt;&lt;b&gt;IDonHangChiTetService&lt;/b&gt;&lt;/p&gt;&lt;hr size=&quot;1&quot;/&gt;&lt;p style=&quot;margin:0 0 0 4px;line-height:1.6;&quot;&gt;+ getAllByDonHang(DonHangDTO): List&amp;lt;ChiTietDonHangDTO&amp;gt;&lt;/p&gt;" style="verticalAlign=top;align=left;overflow=fill;fontSize=14;fontFamily=Helvetica;html=1;rounded=0;shadow=0;comic=0;labelBackgroundColor=none;strokeWidth=1;">
      <mxGeometry x="187" y="388" width="397" height="75" as="geometry" />
    </mxCell>
    <mxCell id="node71" parent="1" vertex="1" value="&lt;p style=&quot;margin:0px;margin-top:4px;text-align:center;&quot;&gt;&lt;i&gt;&amp;lt;&amp;lt;interface&amp;gt;&amp;gt;&lt;/i&gt;&lt;br/&gt;&lt;b&gt;IDonHangChiTietRepository&lt;/b&gt;&lt;/p&gt;&lt;hr size=&quot;1&quot;/&gt;&lt;p style=&quot;margin:0 0 0 4px;line-height:1.6;&quot;&gt;+ findAllByDonHang(DonHang): List&amp;lt;ChiTietDonHang&amp;gt;&lt;/p&gt;" style="verticalAlign=top;align=left;overflow=fill;fontSize=14;fontFamily=Helvetica;html=1;rounded=0;shadow=0;comic=0;labelBackgroundColor=none;strokeWidth=1;">
      <mxGeometry x="4177" y="4553" width="348" height="75" as="geometry" />
    </mxCell>
    <mxCell id="node103" parent="1" vertex="1" value="&lt;p style=&quot;margin:0px;margin-top:4px;text-align:center;&quot;&gt;&lt;i&gt;&amp;lt;&amp;lt;interface&amp;gt;&amp;gt;&lt;/i&gt;&lt;br/&gt;&lt;b&gt;IDonHangRepository&lt;/b&gt;&lt;/p&gt;&lt;hr size=&quot;1&quot;/&gt;&lt;p style=&quot;margin:0 0 0 4px;line-height:1.6;&quot;&gt;+ findDailyRevenueForDate(int, int, int): Long&lt;br/&gt;+ findAllByKeyword(String): List&amp;lt;DonHang&amp;gt;&lt;br/&gt;+ findDailyExpenseForMonth(int, int): Long&lt;br/&gt;+ findDailyExpenseForDate(int, int, int): Long&lt;br/&gt;+ findDailyRevenueForMonth(int, int): Long&lt;/p&gt;" style="verticalAlign=top;align=left;overflow=fill;fontSize=14;fontFamily=Helvetica;html=1;rounded=0;shadow=0;comic=0;labelBackgroundColor=none;strokeWidth=1;">
      <mxGeometry x="-161" y="4360" width="291" height="148" as="geometry" />
    </mxCell>
    <mxCell id="node21" parent="1" vertex="1" value="&lt;p style=&quot;margin:0px;margin-top:4px;text-align:center;&quot;&gt;&lt;i&gt;&amp;lt;&amp;lt;interface&amp;gt;&amp;gt;&lt;/i&gt;&lt;br/&gt;&lt;b&gt;IDonHangService&lt;/b&gt;&lt;/p&gt;&lt;hr size=&quot;1&quot;/&gt;" style="verticalAlign=top;align=left;overflow=fill;fontSize=14;fontFamily=Helvetica;html=1;rounded=0;shadow=0;comic=0;labelBackgroundColor=none;strokeWidth=1;">
      <mxGeometry x="1879" y="405" width="174" height="34" as="geometry" />
    </mxCell>
    <mxCell id="node99" parent="1" vertex="1" value="&lt;p style=&quot;margin:0px;margin-top:4px;text-align:center;&quot;&gt;&lt;i&gt;&amp;lt;&amp;lt;interface&amp;gt;&amp;gt;&lt;/i&gt;&lt;br/&gt;&lt;b&gt;IKhachHangRepository&lt;/b&gt;&lt;/p&gt;&lt;hr size=&quot;1&quot;/&gt;&lt;p style=&quot;margin:0 0 0 4px;line-height:1.6;&quot;&gt;+ getCountInvoiceByUid(int): Integer&lt;br/&gt;+ findAllByKeyword(String): List&amp;lt;KhachHang&amp;gt;&lt;/p&gt;" style="verticalAlign=top;align=left;overflow=fill;fontSize=14;fontFamily=Helvetica;html=1;rounded=0;shadow=0;comic=0;labelBackgroundColor=none;strokeWidth=1;">
      <mxGeometry x="3835" y="4553" width="297" height="103" as="geometry" />
    </mxCell>
    <mxCell id="node106" parent="1" vertex="1" value="&lt;p style=&quot;margin:0px;margin-top:4px;text-align:center;&quot;&gt;&lt;i&gt;&amp;lt;&amp;lt;interface&amp;gt;&amp;gt;&lt;/i&gt;&lt;br/&gt;&lt;b&gt;IKhachHangService&lt;/b&gt;&lt;/p&gt;&lt;hr size=&quot;1&quot;/&gt;&lt;p style=&quot;margin:0 0 0 4px;line-height:1.6;&quot;&gt;+ addPoint(DonHangDTO): void&lt;br/&gt;+ usePoint(DonHangDTO, int): void&lt;/p&gt;" style="verticalAlign=top;align=left;overflow=fill;fontSize=14;fontFamily=Helvetica;html=1;rounded=0;shadow=0;comic=0;labelBackgroundColor=none;strokeWidth=1;">
      <mxGeometry x="-114" y="377" width="235" height="103" as="geometry" />
    </mxCell>
    <mxCell id="node57" parent="1" vertex="1" value="&lt;p style=&quot;margin:0px;margin-top:4px;text-align:center;&quot;&gt;&lt;i&gt;&amp;lt;&amp;lt;interface&amp;gt;&amp;gt;&lt;/i&gt;&lt;br/&gt;&lt;b&gt;ILichSuNhapHangRepository&lt;/b&gt;&lt;/p&gt;&lt;hr size=&quot;1&quot;/&gt;&lt;p style=&quot;margin:0 0 0 4px;line-height:1.6;&quot;&gt;+ findAllByIdSach(Integer): List&amp;lt;LichSuNhapHang&amp;gt;&lt;br/&gt;+ findAllByKeyword(String): List&amp;lt;LichSuNhapHang&amp;gt;&lt;/p&gt;" style="verticalAlign=top;align=left;overflow=fill;fontSize=14;fontFamily=Helvetica;html=1;rounded=0;shadow=0;comic=0;labelBackgroundColor=none;strokeWidth=1;">
      <mxGeometry x="3460" y="4553" width="330" height="103" as="geometry" />
    </mxCell>
    <mxCell id="node1" parent="1" vertex="1" value="&lt;p style=&quot;margin:0px;margin-top:4px;text-align:center;&quot;&gt;&lt;i&gt;&amp;lt;&amp;lt;interface&amp;gt;&amp;gt;&lt;/i&gt;&lt;br/&gt;&lt;b&gt;ILichSuNhapHangService&lt;/b&gt;&lt;/p&gt;&lt;hr size=&quot;1&quot;/&gt;&lt;p style=&quot;margin:0 0 0 4px;line-height:1.6;&quot;&gt;+ getAllByIdSach(Integer): List&amp;lt;LichSuNhapHangDTO&amp;gt;&lt;/p&gt;" style="verticalAlign=top;align=left;overflow=fill;fontSize=14;fontFamily=Helvetica;html=1;rounded=0;shadow=0;comic=0;labelBackgroundColor=none;strokeWidth=1;">
      <mxGeometry x="1014" y="388" width="348" height="75" as="geometry" />
    </mxCell>
    <mxCell id="node115" parent="1" vertex="1" value="&lt;p style=&quot;margin:0px;margin-top:4px;text-align:center;&quot;&gt;&lt;i&gt;&amp;lt;&amp;lt;interface&amp;gt;&amp;gt;&lt;/i&gt;&lt;br/&gt;&lt;b&gt;ISachRepository&lt;/b&gt;&lt;/p&gt;&lt;hr size=&quot;1&quot;/&gt;&lt;p style=&quot;margin:0 0 0 4px;line-height:1.6;&quot;&gt;+ findAllSachNotInCTKM(): List&amp;lt;Sach&amp;gt;&lt;br/&gt;+ findAllCtkmSachInAllAvailablePromote(Pageable): Page&amp;lt;Sach&amp;gt;&lt;br/&gt;+ findByBarCode(String): Optional&amp;lt;Sach&amp;gt;&lt;br/&gt;+ findAllSachInOrNotInCTKM(): List&amp;lt;Sach&amp;gt;&lt;br/&gt;+ findAllCtkmSachNotAllAvailablePromote(Pageable): Page&amp;lt;Sach&amp;gt;&lt;br/&gt;+ findAllByKeyword(String): List&amp;lt;Sach&amp;gt;&lt;/p&gt;" style="verticalAlign=top;align=left;overflow=fill;fontSize=14;fontFamily=Helvetica;html=1;rounded=0;shadow=0;comic=0;labelBackgroundColor=none;strokeWidth=1;">
      <mxGeometry x="2581" y="4111" width="416" height="170" as="geometry" />
    </mxCell>
    <mxCell id="node6" parent="1" vertex="1" value="&lt;p style=&quot;margin:0px;margin-top:4px;text-align:center;&quot;&gt;&lt;i&gt;&amp;lt;&amp;lt;interface&amp;gt;&amp;gt;&lt;/i&gt;&lt;br/&gt;&lt;b&gt;ISachService&lt;/b&gt;&lt;/p&gt;&lt;hr size=&quot;1&quot;/&gt;&lt;p style=&quot;margin:0 0 0 4px;line-height:1.6;&quot;&gt;+ getAllSachByKeyWord(String): List&amp;lt;SachDTO&amp;gt;&lt;br/&gt;+ getToTalPageCtkSachInAllAvailablePromote(Pageable): int&lt;br/&gt;+ getAllCtkSachInAllAvailablePromote(Pageable): List&amp;lt;SachDTO&amp;gt;&lt;br/&gt;+ getToTalPageCtkSachNotInAllAvailablePromote(Pageable): int&lt;br/&gt;+ getByBarCode(String): SachDTO&lt;br/&gt;+ getAllCtkSachNotInAllAvailablePromote(Pageable): List&amp;lt;SachDTO&amp;gt;&lt;br/&gt;+ getAllSachByIdDanhMuc(Integer): List&amp;lt;SachDTO&amp;gt;&lt;/p&gt;&lt;hr size=&quot;1&quot;/&gt;&lt;p style=&quot;margin:0 0 0 4px;line-height:1.6;&quot;&gt; allSachInOrNotInCTKM: List&amp;lt;SachDTO&amp;gt;&lt;br/&gt; allSachNotInCTKM: List&amp;lt;SachDTO&amp;gt;&lt;/p&gt;" style="verticalAlign=top;align=left;overflow=fill;fontSize=14;fontFamily=Helvetica;html=1;rounded=0;shadow=0;comic=0;labelBackgroundColor=none;strokeWidth=1;">
      <mxGeometry x="2143" y="298" width="430" height="240" as="geometry" />
    </mxCell>
    <mxCell id="node43" parent="1" vertex="1" value="&lt;p style=&quot;margin:0px;margin-top:4px;text-align:center;&quot;&gt;&lt;i&gt;&amp;lt;&amp;lt;interface&amp;gt;&amp;gt;&lt;/i&gt;&lt;br/&gt;&lt;b&gt;IThongKeService&lt;/b&gt;&lt;/p&gt;&lt;hr size=&quot;1&quot;/&gt;&lt;p style=&quot;margin:0 0 0 4px;line-height:1.6;&quot;&gt;+ getAllTongTienTheoNam(int): List&amp;lt;DoanhThuNamDTO&amp;gt;&lt;br/&gt;+ countAllDonhang(): Integer&lt;br/&gt;+ getAllTongTienTheoThang(int, int): List&amp;lt;DoanhThuNgayDTO&amp;gt;&lt;br/&gt;+ countDonHangByNhanVien(Integer): Integer&lt;/p&gt;" style="verticalAlign=top;align=left;overflow=fill;fontSize=14;fontFamily=Helvetica;html=1;rounded=0;shadow=0;comic=0;labelBackgroundColor=none;strokeWidth=1;">
      <mxGeometry x="4388" y="3203" width="399" height="158" as="geometry" />
    </mxCell>
    <mxCell id="node100" parent="1" vertex="1" value="&lt;p style=&quot;margin:0px;margin-top:4px;text-align:center;&quot;&gt;&lt;b&gt;ImageUtils&lt;/b&gt;&lt;/p&gt;&lt;hr size=&quot;1&quot;/&gt;&lt;p style=&quot;margin:0 0 0 4px;line-height:1.6;&quot;&gt;+ ImageUtils(): &lt;/p&gt;&lt;hr size=&quot;1&quot;/&gt;&lt;p style=&quot;margin:0 0 0 4px;line-height:1.6;&quot;&gt;+ saveImage(File): String&lt;br/&gt;+ convertMatToBufferedImage(Mat): BufferedImage&lt;br/&gt;+ readImage(String): BufferedImage&lt;br/&gt;+ readSVG(String): FlatSVGIcon?&lt;br/&gt;+ saveBufferImageToFile(BufferedImage, String): void&lt;br/&gt;+ makeCircleImage(BufferedImage, int): BufferedImage&lt;br/&gt;+ getCircleImage(String, int, int, Color, int): JLayeredPane&lt;br/&gt;+ openImageFile(JPanel): String?&lt;br/&gt;+ getFile(String): File&lt;br/&gt;+ applyQualityRenderingHints(Graphics2D): void&lt;/p&gt;" style="verticalAlign=top;align=left;overflow=fill;fontSize=14;fontFamily=Helvetica;html=1;rounded=0;shadow=0;comic=0;labelBackgroundColor=none;strokeWidth=1;">
      <mxGeometry x="1048" y="3738" width="362" height="284" as="geometry" />
    </mxCell>
    <mxCell id="node86" parent="1" vertex="1" value="&lt;p style=&quot;margin:0px;margin-top:4px;text-align:center;&quot;&gt;&lt;b&gt;ItemMenu&lt;/b&gt;&lt;/p&gt;&lt;hr size=&quot;1&quot;/&gt;&lt;p style=&quot;margin:0 0 0 4px;line-height:1.6;&quot;&gt;+ ItemMenu(MenuModel): &lt;/p&gt;" style="verticalAlign=top;align=left;overflow=fill;fontSize=14;fontFamily=Helvetica;html=1;rounded=0;shadow=0;comic=0;labelBackgroundColor=none;strokeWidth=1;">
      <mxGeometry x="837" y="4684" width="185" height="65" as="geometry" />
    </mxCell>
    <mxCell id="node35" parent="1" vertex="1" value="&lt;p style=&quot;margin:0px;margin-top:4px;text-align:center;&quot;&gt;&lt;b&gt;JdbcConnection&lt;/b&gt;&lt;/p&gt;&lt;hr size=&quot;1&quot;/&gt;&lt;p style=&quot;margin:0 0 0 4px;line-height:1.6;&quot;&gt;+ JdbcConnection(): &lt;/p&gt;&lt;hr size=&quot;1&quot;/&gt;&lt;p style=&quot;margin:0 0 0 4px;line-height:1.6;&quot;&gt; connection: Connection&lt;/p&gt;" style="verticalAlign=top;align=left;overflow=fill;fontSize=14;fontFamily=Helvetica;html=1;rounded=0;shadow=0;comic=0;labelBackgroundColor=none;strokeWidth=1;">
      <mxGeometry x="2436" y="4553" width="180" height="93" as="geometry" />
    </mxCell>
    <mxCell id="node96" parent="1" vertex="1" value="&lt;p style=&quot;margin:0px;margin-top:4px;text-align:center;&quot;&gt;&lt;b&gt;JpaConfig&lt;/b&gt;&lt;/p&gt;&lt;hr size=&quot;1&quot;/&gt;&lt;p style=&quot;margin:0 0 0 4px;line-height:1.6;&quot;&gt;+ JpaConfig(): &lt;/p&gt;&lt;hr size=&quot;1&quot;/&gt;&lt;p style=&quot;margin:0 0 0 4px;line-height:1.6;&quot;&gt;+ transactionManager(): PlatformTransactionManager&lt;br/&gt;~ additionalProperties(): Properties&lt;br/&gt;+ entityManagerFactory(): LocalContainerEntityManagerFactoryBean&lt;br/&gt;+ dataSource(): DataSource&lt;/p&gt;" style="verticalAlign=top;align=left;overflow=fill;fontSize=14;fontFamily=Helvetica;html=1;rounded=0;shadow=0;comic=0;labelBackgroundColor=none;strokeWidth=1;">
      <mxGeometry x="3042" y="4111" width="427" height="152" as="geometry" />
    </mxCell>
    <mxCell id="node42" parent="1" vertex="1" value="&lt;p style=&quot;margin:0px;margin-top:4px;text-align:center;&quot;&gt;&lt;b&gt;KhachHang&lt;/b&gt;&lt;/p&gt;&lt;hr size=&quot;1&quot;/&gt;&lt;p style=&quot;margin:0 0 0 4px;line-height:1.6;&quot;&gt;+ KhachHang(int, String, String, Integer, LocalDateTime, boolean, Collection&amp;lt;DonHang&amp;gt;): &lt;br/&gt;+ KhachHang(): &lt;/p&gt;&lt;hr size=&quot;1&quot;/&gt;&lt;p style=&quot;margin:0 0 0 4px;line-height:1.6;&quot;&gt;- tenKhach: String&lt;br/&gt;- ngayThem: LocalDateTime&lt;br/&gt;- sdt: String&lt;br/&gt;- diem: Integer&lt;br/&gt;- hoaDonsById: Collection&amp;lt;DonHang&amp;gt;&lt;br/&gt;- id: int&lt;br/&gt;- gioiTinh: boolean&lt;/p&gt;&lt;hr size=&quot;1&quot;/&gt;&lt;p style=&quot;margin:0 0 0 4px;line-height:1.6;&quot;&gt; diem: Integer&lt;br/&gt; gioiTinh: boolean&lt;br/&gt; hoaDonsById: Collection&amp;lt;DonHang&amp;gt;&lt;br/&gt; tenKhach: String&lt;br/&gt; ngayThem: LocalDateTime&lt;br/&gt; id: int&lt;br/&gt; sdt: String&lt;/p&gt;" style="verticalAlign=top;align=left;overflow=fill;fontSize=14;fontFamily=Helvetica;html=1;rounded=0;shadow=0;comic=0;labelBackgroundColor=none;strokeWidth=1;">
      <mxGeometry x="1430" y="3203" width="391" height="398" as="geometry" />
    </mxCell>
    <mxCell id="node122" parent="1" vertex="1" value="&lt;p style=&quot;margin:0px;margin-top:4px;text-align:center;&quot;&gt;&lt;b&gt;KhachHangDTO&lt;/b&gt;&lt;/p&gt;&lt;hr size=&quot;1&quot;/&gt;&lt;p style=&quot;margin:0 0 0 4px;line-height:1.6;&quot;&gt;+ KhachHangDTO(String, String, Integer, LocalDateTime, boolean): &lt;br/&gt;+ KhachHangDTO(): &lt;br/&gt;+ KhachHangDTO(String, String, Integer, boolean): &lt;/p&gt;&lt;hr size=&quot;1&quot;/&gt;&lt;p style=&quot;margin:0 0 0 4px;line-height:1.6;&quot;&gt;- sdt: String&lt;br/&gt;- ngayThem: LocalDateTime&lt;br/&gt;- gioiTinh: boolean&lt;br/&gt;- tenKhach: String&lt;br/&gt;- diem: Integer&lt;/p&gt;&lt;hr size=&quot;1&quot;/&gt;&lt;p style=&quot;margin:0 0 0 4px;line-height:1.6;&quot;&gt;+ toString(): String&lt;br/&gt;+ equals(Object): boolean&lt;br/&gt;+ hashCode(): int&lt;br/&gt;# canEqual(Object): boolean&lt;/p&gt;&lt;hr size=&quot;1&quot;/&gt;&lt;p style=&quot;margin:0 0 0 4px;line-height:1.6;&quot;&gt; diem: Integer&lt;br/&gt; gioiTinh: boolean&lt;br/&gt; sdt: String&lt;br/&gt; tenKhach: String&lt;br/&gt; ngayThem: LocalDateTime&lt;/p&gt;" style="verticalAlign=top;align=left;overflow=fill;fontSize=14;fontFamily=Helvetica;html=1;rounded=0;shadow=0;comic=0;labelBackgroundColor=none;strokeWidth=1;">
      <mxGeometry x="305" y="1571" width="411" height="424" as="geometry" />
    </mxCell>
    <mxCell id="node26" parent="1" vertex="1" value="&lt;p style=&quot;margin:0px;margin-top:4px;text-align:center;&quot;&gt;&lt;b&gt;KhachHangDialog&lt;/b&gt;&lt;/p&gt;&lt;hr size=&quot;1&quot;/&gt;&lt;p style=&quot;margin:0 0 0 4px;line-height:1.6;&quot;&gt;+ KhachHangDialog(): &lt;/p&gt;&lt;hr size=&quot;1&quot;/&gt;&lt;p style=&quot;margin:0 0 0 4px;line-height:1.6;&quot;&gt;- initComponent(): void&lt;br/&gt;+ fillForm(): void&lt;br/&gt;- save(): void&lt;br/&gt;- readForm(): KhachHangDTO?&lt;/p&gt;" style="verticalAlign=top;align=left;overflow=fill;fontSize=14;fontFamily=Helvetica;html=1;rounded=0;shadow=0;comic=0;labelBackgroundColor=none;strokeWidth=1;">
      <mxGeometry x="4462" y="4111" width="214" height="152" as="geometry" />
    </mxCell>
    <mxCell id="node39" parent="1" vertex="1" value="&lt;p style=&quot;margin:0px;margin-top:4px;text-align:center;&quot;&gt;&lt;b&gt;KhachHangPane&lt;/b&gt;&lt;/p&gt;&lt;hr size=&quot;1&quot;/&gt;&lt;p style=&quot;margin:0 0 0 4px;line-height:1.6;&quot;&gt;+ KhachHangPane(): &lt;/p&gt;&lt;hr size=&quot;1&quot;/&gt;&lt;p style=&quot;margin:0 0 0 4px;line-height:1.6;&quot;&gt;- delete(): void&lt;br/&gt;- update(): void&lt;br/&gt;+ initComponent(): void&lt;br/&gt;+ fillTable(List&amp;lt;AbstractViewObject&amp;gt;): void&lt;br/&gt;+ selectSizeDisplay(): void&lt;br/&gt;+ searchByKeyword(): void&lt;br/&gt;+ selectPageDisplay(): void&lt;br/&gt;+ fillListPage(int): void&lt;br/&gt;- createUIComponents(): void&lt;br/&gt;- add(): void&lt;/p&gt;" style="verticalAlign=top;align=left;overflow=fill;fontSize=14;fontFamily=Helvetica;html=1;rounded=0;shadow=0;comic=0;labelBackgroundColor=none;strokeWidth=1;">
      <mxGeometry x="1455" y="3738" width="279" height="284" as="geometry" />
    </mxCell>
    <mxCell id="node4" parent="1" vertex="1" value="&lt;p style=&quot;margin:0px;margin-top:4px;text-align:center;&quot;&gt;&lt;b&gt;KhachHangService&lt;/b&gt;&lt;/p&gt;&lt;hr size=&quot;1&quot;/&gt;&lt;p style=&quot;margin:0 0 0 4px;line-height:1.6;&quot;&gt;+ KhachHangService(): &lt;/p&gt;&lt;hr size=&quot;1&quot;/&gt;&lt;p style=&quot;margin:0 0 0 4px;line-height:1.6;&quot;&gt;+ delete(Integer): void&lt;br/&gt;+ searchByKeyword(String): List&amp;lt;KhachHangDTO&amp;gt;&lt;br/&gt;+ usePoint(DonHangDTO, int): void&lt;br/&gt;+ addPoint(DonHangDTO): void&lt;br/&gt;+ getTotalPage(Pageable): int&lt;br/&gt;+ update(KhachHangDTO): void&lt;br/&gt;+ getPage(Pageable): List&amp;lt;KhachHangDTO&amp;gt;&lt;br/&gt;+ getAllByIds(List&amp;lt;Integer&amp;gt;): List&amp;lt;KhachHangDTO&amp;gt;&lt;br/&gt;+ deleteAll(Set&amp;lt;Integer&amp;gt;): void&lt;br/&gt;+ getById(Integer): KhachHangDTO&lt;br/&gt;+ insert(KhachHangDTO): KhachHangDTO&lt;/p&gt;&lt;hr size=&quot;1&quot;/&gt;&lt;p style=&quot;margin:0 0 0 4px;line-height:1.6;&quot;&gt; all: List&amp;lt;KhachHangDTO&amp;gt;&lt;/p&gt;" style="verticalAlign=top;align=left;overflow=fill;fontSize=14;fontFamily=Helvetica;html=1;rounded=0;shadow=0;comic=0;labelBackgroundColor=none;strokeWidth=1;">
      <mxGeometry x="-161" y="676" width="328" height="332" as="geometry" />
    </mxCell>
    <mxCell id="node8" parent="1" vertex="1" value="&lt;p style=&quot;margin:0px;margin-top:4px;text-align:center;&quot;&gt;&lt;b&gt;KhachHangViewObject&lt;/b&gt;&lt;/p&gt;&lt;hr size=&quot;1&quot;/&gt;&lt;p style=&quot;margin:0 0 0 4px;line-height:1.6;&quot;&gt;+ KhachHangViewObject(KhachHangDTO): &lt;/p&gt;&lt;hr size=&quot;1&quot;/&gt;&lt;p style=&quot;margin:0 0 0 4px;line-height:1.6;&quot;&gt;- diemTichLuy: int&lt;br/&gt;- ngayThem: LocalDateTime&lt;br/&gt;- sdt: String&lt;br/&gt;- gioiTinh: boolean&lt;/p&gt;&lt;hr size=&quot;1&quot;/&gt;&lt;p style=&quot;margin:0 0 0 4px;line-height:1.6;&quot;&gt;+ equals(Object): boolean&lt;br/&gt;# canEqual(Object): boolean&lt;br/&gt;+ hashCode(): int&lt;br/&gt;+ toString(): String&lt;br/&gt;+ toObject(ExecutorService, JTable, Set, List&amp;lt;JCheckBox&amp;gt;): Object[]&lt;/p&gt;&lt;hr size=&quot;1&quot;/&gt;&lt;p style=&quot;margin:0 0 0 4px;line-height:1.6;&quot;&gt; diemTichLuy: int&lt;br/&gt; sdt: String&lt;br/&gt; gioiTinh: String&lt;br/&gt; ngayThem: LocalDateTime&lt;/p&gt;" style="verticalAlign=top;align=left;overflow=fill;fontSize=14;fontFamily=Helvetica;html=1;rounded=0;shadow=0;comic=0;labelBackgroundColor=none;strokeWidth=1;">
      <mxGeometry x="-161" y="2690" width="429" height="358" as="geometry" />
    </mxCell>
    <mxCell id="node68" parent="1" vertex="1" value="&lt;p style=&quot;margin:0px;margin-top:4px;text-align:center;&quot;&gt;&lt;b&gt;KhuyenMaiPane&lt;/b&gt;&lt;/p&gt;&lt;hr size=&quot;1&quot;/&gt;&lt;p style=&quot;margin:0 0 0 4px;line-height:1.6;&quot;&gt;+ KhuyenMaiPane(): &lt;/p&gt;&lt;hr size=&quot;1&quot;/&gt;&lt;p style=&quot;margin:0 0 0 4px;line-height:1.6;&quot;&gt;+ fillCboCtkm(): void&lt;br/&gt;+ fillTableSP(List&amp;lt;AbstractViewObject&amp;gt;): void&lt;br/&gt;- createUIComponents(): void&lt;br/&gt;+ searchByKeywordSP(): void&lt;br/&gt;+ fillListPage(int): void&lt;br/&gt;+ fillTableKM(List&amp;lt;AbstractViewObject&amp;gt;): void&lt;br/&gt;- updateSP(): void&lt;br/&gt;+ selectPageDisplay(): void&lt;br/&gt;+ locSPCtkm(): void&lt;br/&gt;+ searchByKeywordKM(): void&lt;br/&gt;+ selectSizeDisplay(): void&lt;br/&gt;+ initComponent(): void&lt;br/&gt;- deleteKM(): void&lt;br/&gt;+ addSP(): void&lt;br/&gt;- updateKM(): void&lt;br/&gt;- addKM(): void&lt;br/&gt;- deleteSP(): void&lt;/p&gt;" style="verticalAlign=top;align=left;overflow=fill;fontSize=14;fontFamily=Helvetica;html=1;rounded=0;shadow=0;comic=0;labelBackgroundColor=none;strokeWidth=1;">
      <mxGeometry x="1087" y="3203" width="298" height="438" as="geometry" />
    </mxCell>
    <mxCell id="node60" parent="1" vertex="1" value="&lt;p style=&quot;margin:0px;margin-top:4px;text-align:center;&quot;&gt;&lt;b&gt;LichSuNhapHang&lt;/b&gt;&lt;/p&gt;&lt;hr size=&quot;1&quot;/&gt;&lt;p style=&quot;margin:0 0 0 4px;line-height:1.6;&quot;&gt;+ LichSuNhapHang(Integer, LocalDateTime, long, int, int, Sach): &lt;br/&gt;+ LichSuNhapHang(): &lt;/p&gt;&lt;hr size=&quot;1&quot;/&gt;&lt;p style=&quot;margin:0 0 0 4px;line-height:1.6;&quot;&gt;- sach: Sach&lt;br/&gt;- ngayNhap: LocalDateTime&lt;br/&gt;- soLuong: int&lt;br/&gt;- id: Integer&lt;br/&gt;- idSach: int&lt;br/&gt;- giaNhap: long&lt;/p&gt;&lt;hr size=&quot;1&quot;/&gt;&lt;p style=&quot;margin:0 0 0 4px;line-height:1.6;&quot;&gt;+ hashCode(): int&lt;br/&gt;+ toString(): String&lt;br/&gt;+ equals(Object): boolean&lt;br/&gt;# canEqual(Object): boolean&lt;/p&gt;&lt;hr size=&quot;1&quot;/&gt;&lt;p style=&quot;margin:0 0 0 4px;line-height:1.6;&quot;&gt; giaNhap: long&lt;br/&gt; sach: Sach&lt;br/&gt; idSach: int&lt;br/&gt; soLuong: int&lt;br/&gt; id: Integer&lt;br/&gt; ngayNhap: LocalDateTime&lt;/p&gt;" style="verticalAlign=top;align=left;overflow=fill;fontSize=14;fontFamily=Helvetica;html=1;rounded=0;shadow=0;comic=0;labelBackgroundColor=none;strokeWidth=1;">
      <mxGeometry x="640" y="3203" width="402" height="446" as="geometry" />
    </mxCell>
    <mxCell id="node19" parent="1" vertex="1" value="&lt;p style=&quot;margin:0px;margin-top:4px;text-align:center;&quot;&gt;&lt;b&gt;LichSuNhapHangDTO&lt;/b&gt;&lt;/p&gt;&lt;hr size=&quot;1&quot;/&gt;&lt;p style=&quot;margin:0 0 0 4px;line-height:1.6;&quot;&gt;+ LichSuNhapHangDTO(SachDTO, long, LocalDateTime, Integer): &lt;br/&gt;+ LichSuNhapHangDTO(): &lt;/p&gt;&lt;hr size=&quot;1&quot;/&gt;&lt;p style=&quot;margin:0 0 0 4px;line-height:1.6;&quot;&gt;- giaNhap: long&lt;br/&gt;~ sach: SachDTO&lt;br/&gt;- ngayNhap: LocalDateTime&lt;br/&gt;- soLuong: Integer&lt;/p&gt;&lt;hr size=&quot;1&quot;/&gt;&lt;p style=&quot;margin:0 0 0 4px;line-height:1.6;&quot;&gt;+ equals(Object): boolean&lt;br/&gt;+ hashCode(): int&lt;br/&gt;# canEqual(Object): boolean&lt;br/&gt;+ toString(): String&lt;/p&gt;&lt;hr size=&quot;1&quot;/&gt;&lt;p style=&quot;margin:0 0 0 4px;line-height:1.6;&quot;&gt; giaNhap: long&lt;br/&gt; sach: SachDTO&lt;br/&gt; ngayNhap: LocalDateTime&lt;br/&gt; soLuong: Integer&lt;/p&gt;" style="verticalAlign=top;align=left;overflow=fill;fontSize=14;fontFamily=Helvetica;html=1;rounded=0;shadow=0;comic=0;labelBackgroundColor=none;strokeWidth=1;">
      <mxGeometry x="1465" y="1604" width="412" height="358" as="geometry" />
    </mxCell>
    <mxCell id="node119" parent="1" vertex="1" value="&lt;p style=&quot;margin:0px;margin-top:4px;text-align:center;&quot;&gt;&lt;b&gt;LichSuNhapHangService&lt;/b&gt;&lt;/p&gt;&lt;hr size=&quot;1&quot;/&gt;&lt;p style=&quot;margin:0 0 0 4px;line-height:1.6;&quot;&gt;+ LichSuNhapHangService(): &lt;/p&gt;&lt;hr size=&quot;1&quot;/&gt;&lt;p style=&quot;margin:0 0 0 4px;line-height:1.6;&quot;&gt;+ getAllByIdSach(Integer): List&amp;lt;LichSuNhapHangDTO&amp;gt;&lt;br/&gt;+ searchByKeyword(String): List&amp;lt;LichSuNhapHangDTO&amp;gt;&lt;br/&gt;+ insert(LichSuNhapHangDTO): LichSuNhapHangDTO&lt;br/&gt;+ update(LichSuNhapHangDTO): void&lt;br/&gt;+ deleteAll(Set&amp;lt;Integer&amp;gt;): void&lt;br/&gt;+ getById(Integer): LichSuNhapHangDTO&lt;br/&gt;+ getAllByIds(List&amp;lt;Integer&amp;gt;): List&amp;lt;LichSuNhapHangDTO&amp;gt;&lt;br/&gt;+ getPage(Pageable): List&amp;lt;LichSuNhapHangDTO&amp;gt;&lt;br/&gt;+ getTotalPage(Pageable): int&lt;br/&gt;+ delete(Integer): void&lt;/p&gt;&lt;hr size=&quot;1&quot;/&gt;&lt;p style=&quot;margin:0 0 0 4px;line-height:1.6;&quot;&gt; all: List&amp;lt;LichSuNhapHangDTO&amp;gt;&lt;/p&gt;" style="verticalAlign=top;align=left;overflow=fill;fontSize=14;fontFamily=Helvetica;html=1;rounded=0;shadow=0;comic=0;labelBackgroundColor=none;strokeWidth=1;">
      <mxGeometry x="1007" y="687" width="361" height="310" as="geometry" />
    </mxCell>
    <mxCell id="node97" parent="1" vertex="1" value="&lt;p style=&quot;margin:0px;margin-top:4px;text-align:center;&quot;&gt;&lt;b&gt;ListPageNumber&lt;/b&gt;&lt;/p&gt;&lt;hr size=&quot;1&quot;/&gt;&lt;p style=&quot;margin:0 0 0 4px;line-height:1.6;&quot;&gt;+ ListPageNumber(): &lt;/p&gt;" style="verticalAlign=top;align=left;overflow=fill;fontSize=14;fontFamily=Helvetica;html=1;rounded=0;shadow=0;comic=0;labelBackgroundColor=none;strokeWidth=1;">
      <mxGeometry x="1738" y="4684" width="170" height="65" as="geometry" />
    </mxCell>
    <mxCell id="node0" parent="1" vertex="1" value="&lt;p style=&quot;margin:0px;margin-top:4px;text-align:center;&quot;&gt;&lt;b&gt;Loading&lt;/b&gt;&lt;/p&gt;&lt;hr size=&quot;1&quot;/&gt;&lt;p style=&quot;margin:0 0 0 4px;line-height:1.6;&quot;&gt;+ Loading(): &lt;/p&gt;&lt;hr size=&quot;1&quot;/&gt;&lt;p style=&quot;margin:0 0 0 4px;line-height:1.6;&quot;&gt;- createUIComponents(): void&lt;/p&gt;" style="verticalAlign=top;align=left;overflow=fill;fontSize=14;fontFamily=Helvetica;html=1;rounded=0;shadow=0;comic=0;labelBackgroundColor=none;strokeWidth=1;">
      <mxGeometry x="1686" y="4553" width="205" height="93" as="geometry" />
    </mxCell>
    <mxCell id="node73" parent="1" vertex="1" value="&lt;p style=&quot;margin:0px;margin-top:4px;text-align:center;&quot;&gt;&lt;b&gt;LoginView&lt;/b&gt;&lt;/p&gt;&lt;hr size=&quot;1&quot;/&gt;&lt;p style=&quot;margin:0 0 0 4px;line-height:1.6;&quot;&gt;+ LoginView(Application): &lt;/p&gt;&lt;hr size=&quot;1&quot;/&gt;&lt;p style=&quot;margin:0 0 0 4px;line-height:1.6;&quot;&gt;- createUIComponents(): void&lt;br/&gt;- readForm(): AccountDTO&lt;br/&gt;- login(): void&lt;br/&gt;- openQuenMatKhau(): void&lt;br/&gt;- initComponent(): void&lt;/p&gt;" style="verticalAlign=top;align=left;overflow=fill;fontSize=14;fontFamily=Helvetica;html=1;rounded=0;shadow=0;comic=0;labelBackgroundColor=none;strokeWidth=1;">
      <mxGeometry x="-95" y="3519" width="205" height="174" as="geometry" />
    </mxCell>
    <mxCell id="node93" parent="1" vertex="1" value="&lt;p style=&quot;margin:0px;margin-top:4px;text-align:center;&quot;&gt;&lt;b&gt;MailService&lt;/b&gt;&lt;/p&gt;&lt;hr size=&quot;1&quot;/&gt;&lt;p style=&quot;margin:0 0 0 4px;line-height:1.6;&quot;&gt;+ MailService(): &lt;/p&gt;&lt;hr size=&quot;1&quot;/&gt;&lt;p style=&quot;margin:0 0 0 4px;line-height:1.6;&quot;&gt;+ sendEmail(String): void&lt;br/&gt;- generateRandomString(): String&lt;br/&gt;+ checkMail(String): boolean&lt;/p&gt;" style="verticalAlign=top;align=left;overflow=fill;fontSize=14;fontFamily=Helvetica;html=1;rounded=0;shadow=0;comic=0;labelBackgroundColor=none;strokeWidth=1;">
      <mxGeometry x="789" y="4360" width="224" height="140" as="geometry" />
    </mxCell>
    <mxCell id="node17" parent="1" vertex="1" value="&lt;p style=&quot;margin:0px;margin-top:4px;text-align:center;&quot;&gt;&lt;b&gt;MenuModel&lt;/b&gt;&lt;/p&gt;&lt;hr size=&quot;1&quot;/&gt;&lt;p style=&quot;margin:0 0 0 4px;line-height:1.6;&quot;&gt;+ MenuModel(String, String, String): &lt;/p&gt;&lt;hr size=&quot;1&quot;/&gt;&lt;p style=&quot;margin:0 0 0 4px;line-height:1.6;&quot;&gt;- iconContrast: String&lt;br/&gt;- name: String&lt;br/&gt;- icon: String&lt;/p&gt;&lt;hr size=&quot;1&quot;/&gt;&lt;p style=&quot;margin:0 0 0 4px;line-height:1.6;&quot;&gt;+ equals(Object): boolean&lt;br/&gt;# canEqual(Object): boolean&lt;br/&gt;+ hashCode(): int&lt;br/&gt;+ toString(): String&lt;/p&gt;&lt;hr size=&quot;1&quot;/&gt;&lt;p style=&quot;margin:0 0 0 4px;line-height:1.6;&quot;&gt; iconContrast: String&lt;br/&gt; icon: String&lt;br/&gt; name: String&lt;/p&gt;" style="verticalAlign=top;align=left;overflow=fill;fontSize=14;fontFamily=Helvetica;html=1;rounded=0;shadow=0;comic=0;labelBackgroundColor=none;strokeWidth=1;">
      <mxGeometry x="487" y="3738" width="242" height="292" as="geometry" />
    </mxCell>
    <mxCell id="node130" parent="1" vertex="1" value="&lt;p style=&quot;margin:0px;margin-top:4px;text-align:center;&quot;&gt;&lt;b&gt;ModelData&lt;/b&gt;&lt;/p&gt;&lt;hr size=&quot;1&quot;/&gt;&lt;p style=&quot;margin:0 0 0 4px;line-height:1.6;&quot;&gt;+ ModelData(String, double, double, double): &lt;br/&gt;+ ModelData(): &lt;/p&gt;&lt;hr size=&quot;1&quot;/&gt;&lt;p style=&quot;margin:0 0 0 4px;line-height:1.6;&quot;&gt;- month: String&lt;br/&gt;- amount: double&lt;br/&gt;- cost: double&lt;br/&gt;- profit: double&lt;/p&gt;&lt;hr size=&quot;1&quot;/&gt;&lt;p style=&quot;margin:0 0 0 4px;line-height:1.6;&quot;&gt; amount: double&lt;br/&gt; month: String&lt;br/&gt; cost: double&lt;br/&gt; profit: double&lt;/p&gt;" style="verticalAlign=top;align=left;overflow=fill;fontSize=14;fontFamily=Helvetica;html=1;rounded=0;shadow=0;comic=0;labelBackgroundColor=none;strokeWidth=1;">
      <mxGeometry x="2556" y="3738" width="292" height="266" as="geometry" />
    </mxCell>
    <mxCell id="node98" parent="1" vertex="1" value="&lt;p style=&quot;margin:0px;margin-top:4px;text-align:center;&quot;&gt;&lt;b&gt;ModernScrollBarUI&lt;/b&gt;&lt;/p&gt;&lt;hr size=&quot;1&quot;/&gt;&lt;p style=&quot;margin:0 0 0 4px;line-height:1.6;&quot;&gt;+ ModernScrollBarUI(): &lt;/p&gt;&lt;hr size=&quot;1&quot;/&gt;&lt;p style=&quot;margin:0 0 0 4px;line-height:1.6;&quot;&gt;# createIncreaseButton(int): JButton&lt;br/&gt;# createDecreaseButton(int): JButton&lt;br/&gt;# paintTrack(Graphics, JComponent, Rectangle): void&lt;br/&gt;# paintThumb(Graphics, JComponent, Rectangle): void&lt;/p&gt;" style="verticalAlign=top;align=left;overflow=fill;fontSize=14;fontFamily=Helvetica;html=1;rounded=0;shadow=0;comic=0;labelBackgroundColor=none;strokeWidth=1;">
      <mxGeometry x="3514" y="4111" width="346" height="152" as="geometry" />
    </mxCell>
    <mxCell id="node89" parent="1" vertex="1" value="&lt;p style=&quot;margin:0px;margin-top:4px;text-align:center;&quot;&gt;&lt;b&gt;MsgBox&lt;/b&gt;&lt;/p&gt;&lt;hr size=&quot;1&quot;/&gt;&lt;p style=&quot;margin:0 0 0 4px;line-height:1.6;&quot;&gt;+ MsgBox(): &lt;/p&gt;&lt;hr size=&quot;1&quot;/&gt;&lt;p style=&quot;margin:0 0 0 4px;line-height:1.6;&quot;&gt;+ confirm(Component, String): boolean&lt;br/&gt;+ prompt(Component, String): String&lt;br/&gt;+ alert(Component, String): void&lt;/p&gt;" style="verticalAlign=top;align=left;overflow=fill;fontSize=14;fontFamily=Helvetica;html=1;rounded=0;shadow=0;comic=0;labelBackgroundColor=none;strokeWidth=1;">
      <mxGeometry x="490" y="4360" width="254" height="140" as="geometry" />
    </mxCell>
    <mxCell id="node123" parent="1" vertex="1" value="&lt;p style=&quot;margin:0px;margin-top:4px;text-align:center;&quot;&gt;&lt;b&gt;NameItem&lt;/b&gt;&lt;/p&gt;&lt;hr size=&quot;1&quot;/&gt;&lt;p style=&quot;margin:0 0 0 4px;line-height:1.6;&quot;&gt;+ NameItem(String, String): &lt;/p&gt;&lt;hr size=&quot;1&quot;/&gt;&lt;p style=&quot;margin:0 0 0 4px;line-height:1.6;&quot;&gt;- createUIComponents(): void&lt;/p&gt;" style="verticalAlign=top;align=left;overflow=fill;fontSize=14;fontFamily=Helvetica;html=1;rounded=0;shadow=0;comic=0;labelBackgroundColor=none;strokeWidth=1;">
      <mxGeometry x="2186" y="4553" width="205" height="93" as="geometry" />
    </mxCell>
    <mxCell id="node37" parent="1" vertex="1" value="&lt;p style=&quot;margin:0px;margin-top:4px;text-align:center;&quot;&gt;&lt;b&gt;NhanVienDialog&lt;/b&gt;&lt;/p&gt;&lt;hr size=&quot;1&quot;/&gt;&lt;p style=&quot;margin:0 0 0 4px;line-height:1.6;&quot;&gt;+ NhanVienDialog(): &lt;/p&gt;&lt;hr size=&quot;1&quot;/&gt;&lt;p style=&quot;margin:0 0 0 4px;line-height:1.6;&quot;&gt;- panelRole: JPanel&lt;/p&gt;&lt;hr size=&quot;1&quot;/&gt;&lt;p style=&quot;margin:0 0 0 4px;line-height:1.6;&quot;&gt;- createUIComponents(): void&lt;br/&gt;+ fillForm(): void&lt;br/&gt;- readForm(): AccountDTO&lt;br/&gt;- save(): void&lt;br/&gt;- initComponent(): void&lt;/p&gt;&lt;hr size=&quot;1&quot;/&gt;&lt;p style=&quot;margin:0 0 0 4px;line-height:1.6;&quot;&gt; panelRole: JPanel&lt;/p&gt;" style="verticalAlign=top;align=left;overflow=fill;fontSize=14;fontFamily=Helvetica;html=1;rounded=0;shadow=0;comic=0;labelBackgroundColor=none;strokeWidth=1;">
      <mxGeometry x="3999" y="3738" width="205" height="226" as="geometry" />
    </mxCell>
    <mxCell id="node81" parent="1" vertex="1" value="&lt;p style=&quot;margin:0px;margin-top:4px;text-align:center;&quot;&gt;&lt;b&gt;NhanVienPane&lt;/b&gt;&lt;/p&gt;&lt;hr size=&quot;1&quot;/&gt;&lt;p style=&quot;margin:0 0 0 4px;line-height:1.6;&quot;&gt;+ NhanVienPane(): &lt;/p&gt;&lt;hr size=&quot;1&quot;/&gt;&lt;p style=&quot;margin:0 0 0 4px;line-height:1.6;&quot;&gt;- add(): void&lt;br/&gt;+ selectPageDisplay(): void&lt;br/&gt;+ searchByKeyword(): void&lt;br/&gt;- update(): void&lt;br/&gt;- delete(): void&lt;br/&gt;+ fillTable(List&amp;lt;AbstractViewObject&amp;gt;): void&lt;br/&gt;+ initComponent(): void&lt;br/&gt;- openDoiMatKhau(): void&lt;br/&gt;+ fillListPage(int): void&lt;br/&gt;+ selectSizeDisplay(): void&lt;br/&gt;- createUIComponents(): void&lt;/p&gt;" style="verticalAlign=top;align=left;overflow=fill;fontSize=14;fontFamily=Helvetica;html=1;rounded=0;shadow=0;comic=0;labelBackgroundColor=none;strokeWidth=1;">
      <mxGeometry x="163" y="3738" width="279" height="306" as="geometry" />
    </mxCell>
    <mxCell id="node55" parent="1" vertex="1" value="&lt;p style=&quot;margin:0px;margin-top:4px;text-align:center;&quot;&gt;&lt;b&gt;NhanVienView&lt;/b&gt;&lt;/p&gt;&lt;hr size=&quot;1&quot;/&gt;&lt;p style=&quot;margin:0 0 0 4px;line-height:1.6;&quot;&gt;+ NhanVienView(): &lt;/p&gt;&lt;hr size=&quot;1&quot;/&gt;&lt;p style=&quot;margin:0 0 0 4px;line-height:1.6;&quot;&gt;+ searchByKeyword(): void&lt;br/&gt;- fillSach(List&amp;lt;SachDTO&amp;gt;, JPanel): void&lt;br/&gt;- clear(): void&lt;br/&gt;- save(): void&lt;br/&gt;- openScan(): void&lt;br/&gt;- chonDanhMuc(): void&lt;br/&gt;- fillDanhMuc(): void&lt;br/&gt;- intiComponent(): void&lt;br/&gt;+ fillKhachHang(List&amp;lt;KhachHangDTO&amp;gt;): void&lt;br/&gt;- readCart(): DonHangDTO&lt;br/&gt;- createUIComponents(): void&lt;br/&gt;- fillDiem(): void&lt;br/&gt;- openDonHang(): void&lt;br/&gt;- openUserPopup(): void&lt;/p&gt;&lt;hr size=&quot;1&quot;/&gt;&lt;p style=&quot;margin:0 0 0 4px;line-height:1.6;&quot;&gt; selected: ProductItem&lt;/p&gt;" style="verticalAlign=top;align=left;overflow=fill;fontSize=14;fontFamily=Helvetica;html=1;rounded=0;shadow=0;comic=0;labelBackgroundColor=none;strokeWidth=1;">
      <mxGeometry x="1866" y="3203" width="293" height="398" as="geometry" />
    </mxCell>
    <mxCell id="node107" parent="1" vertex="1" value="&lt;p style=&quot;margin:0px;margin-top:4px;text-align:center;&quot;&gt;&lt;b&gt;NhanVienViewObject&lt;/b&gt;&lt;/p&gt;&lt;hr size=&quot;1&quot;/&gt;&lt;p style=&quot;margin:0 0 0 4px;line-height:1.6;&quot;&gt;+ NhanVienViewObject(AccountDTO): &lt;/p&gt;&lt;hr size=&quot;1&quot;/&gt;&lt;p style=&quot;margin:0 0 0 4px;line-height:1.6;&quot;&gt;- gioiTinh: boolean&lt;br/&gt;- email: String&lt;br/&gt;- hinhAnh: String&lt;br/&gt;- sdt: String&lt;br/&gt;- trangThai: boolean&lt;br/&gt;- vaiTro: boolean&lt;br/&gt;- username: String&lt;br/&gt;- password: String&lt;br/&gt;- ngayThem: LocalDateTime&lt;/p&gt;&lt;hr size=&quot;1&quot;/&gt;&lt;p style=&quot;margin:0 0 0 4px;line-height:1.6;&quot;&gt;+ hashCode(): int&lt;br/&gt;# canEqual(Object): boolean&lt;br/&gt;+ toString(): String&lt;br/&gt;+ equals(Object): boolean&lt;br/&gt;+ toObject(ExecutorService, JTable, Set, List&amp;lt;JCheckBox&amp;gt;): Object[]&lt;/p&gt;&lt;hr size=&quot;1&quot;/&gt;&lt;p style=&quot;margin:0 0 0 4px;line-height:1.6;&quot;&gt; password: String&lt;br/&gt; hinhAnh: String&lt;br/&gt; vaiTro: boolean&lt;br/&gt; email: String&lt;br/&gt; gioiTinh: String&lt;br/&gt; ngayThem: LocalDateTime&lt;br/&gt; trangThai: boolean&lt;br/&gt; username: String&lt;br/&gt; sdt: String&lt;/p&gt;" style="verticalAlign=top;align=left;overflow=fill;fontSize=14;fontFamily=Helvetica;html=1;rounded=0;shadow=0;comic=0;labelBackgroundColor=none;strokeWidth=1;">
      <mxGeometry x="288" y="2580" width="429" height="578" as="geometry" />
    </mxCell>
    <mxCell id="node30" parent="1" vertex="1" value="&lt;p style=&quot;margin:0px;margin-top:4px;text-align:center;&quot;&gt;&lt;b&gt;NhapHangDialog&lt;/b&gt;&lt;/p&gt;&lt;hr size=&quot;1&quot;/&gt;&lt;p style=&quot;margin:0 0 0 4px;line-height:1.6;&quot;&gt;+ NhapHangDialog(): &lt;/p&gt;&lt;hr size=&quot;1&quot;/&gt;&lt;p style=&quot;margin:0 0 0 4px;line-height:1.6;&quot;&gt;- createUIComponents(): void&lt;br/&gt;+ readForm(): LichSuNhapHangDTO&lt;br/&gt;- initComponent(): void&lt;br/&gt;+ fillTable(): void&lt;/p&gt;" style="verticalAlign=top;align=left;overflow=fill;fontSize=14;fontFamily=Helvetica;html=1;rounded=0;shadow=0;comic=0;labelBackgroundColor=none;strokeWidth=1;">
      <mxGeometry x="3905" y="4111" width="240" height="152" as="geometry" />
    </mxCell>
    <mxCell id="node38" parent="1" vertex="1" value="&lt;p style=&quot;margin:0px;margin-top:4px;text-align:center;&quot;&gt;&lt;b&gt;PanelItem&lt;/b&gt;&lt;/p&gt;&lt;hr size=&quot;1&quot;/&gt;&lt;p style=&quot;margin:0 0 0 4px;line-height:1.6;&quot;&gt;+ PanelItem(): &lt;/p&gt;" style="verticalAlign=top;align=left;overflow=fill;fontSize=14;fontFamily=Helvetica;html=1;rounded=0;shadow=0;comic=0;labelBackgroundColor=none;strokeWidth=1;">
      <mxGeometry x="2353" y="4684" width="123" height="65" as="geometry" />
    </mxCell>
    <mxCell id="node80" parent="1" vertex="1" value="&lt;p style=&quot;margin:0px;margin-top:4px;text-align:center;&quot;&gt;&lt;b&gt;PanelShadow&lt;/b&gt;&lt;/p&gt;&lt;hr size=&quot;1&quot;/&gt;&lt;p style=&quot;margin:0 0 0 4px;line-height:1.6;&quot;&gt;+ PanelShadow(int): &lt;/p&gt;&lt;hr size=&quot;1&quot;/&gt;&lt;p style=&quot;margin:0 0 0 4px;line-height:1.6;&quot;&gt;- shadowOpacity: float&lt;br/&gt;- shadowType: ShadowType&lt;br/&gt;- shadowSize: int&lt;br/&gt;- shadowColor: Color&lt;/p&gt;&lt;hr size=&quot;1&quot;/&gt;&lt;p style=&quot;margin:0 0 0 4px;line-height:1.6;&quot;&gt;# paintComponent(Graphics): void&lt;br/&gt;- createShadow(Graphics): void&lt;/p&gt;&lt;hr size=&quot;1&quot;/&gt;&lt;p style=&quot;margin:0 0 0 4px;line-height:1.6;&quot;&gt; shadowOpacity: float&lt;br/&gt; shadowSize: int&lt;br/&gt; shadowColor: Color&lt;br/&gt; shadowType: ShadowType&lt;/p&gt;" style="verticalAlign=top;align=left;overflow=fill;fontSize=14;fontFamily=Helvetica;html=1;rounded=0;shadow=0;comic=0;labelBackgroundColor=none;strokeWidth=1;">
      <mxGeometry x="774" y="3738" width="229" height="292" as="geometry" />
    </mxCell>
    <mxCell id="node25" parent="1" vertex="1" value="&lt;p style=&quot;margin:0px;margin-top:4px;text-align:center;&quot;&gt;&lt;b&gt;PictureBox&lt;/b&gt;&lt;/p&gt;&lt;hr size=&quot;1&quot;/&gt;&lt;p style=&quot;margin:0 0 0 4px;line-height:1.6;&quot;&gt;+ PictureBox(): &lt;/p&gt;&lt;hr size=&quot;1&quot;/&gt;&lt;p style=&quot;margin:0 0 0 4px;line-height:1.6;&quot;&gt;- image: Icon&lt;/p&gt;&lt;hr size=&quot;1&quot;/&gt;&lt;p style=&quot;margin:0 0 0 4px;line-height:1.6;&quot;&gt;- getAutoSize(Icon): Rectangle&lt;br/&gt;- toImage(Icon): Image&lt;br/&gt;# paintComponent(Graphics): void&lt;/p&gt;&lt;hr size=&quot;1&quot;/&gt;&lt;p style=&quot;margin:0 0 0 4px;line-height:1.6;&quot;&gt; image: Icon&lt;/p&gt;" style="verticalAlign=top;align=left;overflow=fill;fontSize=14;fontFamily=Helvetica;html=1;rounded=0;shadow=0;comic=0;labelBackgroundColor=none;strokeWidth=1;">
      <mxGeometry x="1645" y="4111" width="229" height="182" as="geometry" />
    </mxCell>
    <mxCell id="node82" parent="1" vertex="1" value="&lt;p style=&quot;margin:0px;margin-top:4px;text-align:center;&quot;&gt;&lt;b&gt;ProductItem&lt;/b&gt;&lt;/p&gt;&lt;hr size=&quot;1&quot;/&gt;&lt;p style=&quot;margin:0 0 0 4px;line-height:1.6;&quot;&gt;+ ProductItem(JXTable, JLabel, JLabel, JLabel, JCheckBox): &lt;/p&gt;&lt;hr size=&quot;1&quot;/&gt;&lt;p style=&quot;margin:0 0 0 4px;line-height:1.6;&quot;&gt;- btnAddToCart: JButton&lt;br/&gt;- selected: boolean&lt;br/&gt;- data: SachDTO&lt;/p&gt;&lt;hr size=&quot;1&quot;/&gt;&lt;p style=&quot;margin:0 0 0 4px;line-height:1.6;&quot;&gt;+ paintComponent(Graphics): void&lt;br/&gt;- createUIComponents(): void&lt;/p&gt;&lt;hr size=&quot;1&quot;/&gt;&lt;p style=&quot;margin:0 0 0 4px;line-height:1.6;&quot;&gt; btnAddToCart: JButton&lt;br/&gt; data: SachDTO&lt;br/&gt; selected: boolean&lt;/p&gt;" style="verticalAlign=top;align=left;overflow=fill;fontSize=14;fontFamily=Helvetica;html=1;rounded=0;shadow=0;comic=0;labelBackgroundColor=none;strokeWidth=1;">
      <mxGeometry x="3217" y="3738" width="384" height="248" as="geometry" />
    </mxCell>
    <mxCell id="node112" parent="1" vertex="1" value="&lt;p style=&quot;margin:0px;margin-top:4px;text-align:center;&quot;&gt;&lt;b&gt;QuanLyView&lt;/b&gt;&lt;/p&gt;&lt;hr size=&quot;1&quot;/&gt;&lt;p style=&quot;margin:0 0 0 4px;line-height:1.6;&quot;&gt;+ QuanLyView(): &lt;/p&gt;&lt;hr size=&quot;1&quot;/&gt;&lt;p style=&quot;margin:0 0 0 4px;line-height:1.6;&quot;&gt;- addCustomEventListener(): void&lt;br/&gt;- dangXuat(): void&lt;br/&gt;- createUIComponents(): void&lt;br/&gt;- initComponent(): void&lt;/p&gt;" style="verticalAlign=top;align=left;overflow=fill;fontSize=14;fontFamily=Helvetica;html=1;rounded=0;shadow=0;comic=0;labelBackgroundColor=none;strokeWidth=1;">
      <mxGeometry x="4190" y="4111" width="227" height="152" as="geometry" />
    </mxCell>
    <mxCell id="node22" parent="1" vertex="1" value="&lt;p style=&quot;margin:0px;margin-top:4px;text-align:center;&quot;&gt;&lt;b&gt;QuenMatKhauDialog&lt;/b&gt;&lt;/p&gt;&lt;hr size=&quot;1&quot;/&gt;&lt;p style=&quot;margin:0 0 0 4px;line-height:1.6;&quot;&gt;+ QuenMatKhauDialog(): &lt;/p&gt;&lt;hr size=&quot;1&quot;/&gt;&lt;p style=&quot;margin:0 0 0 4px;line-height:1.6;&quot;&gt;- startTimer(): void&lt;br/&gt;- initComponent(): void&lt;br/&gt;- changePass(): void&lt;br/&gt;- enableSendButton(): void&lt;br/&gt;- sendOtp(): AccountDTO&lt;br/&gt;- disableSendButton(): void&lt;/p&gt;" style="verticalAlign=top;align=left;overflow=fill;fontSize=14;fontFamily=Helvetica;html=1;rounded=0;shadow=0;comic=0;labelBackgroundColor=none;strokeWidth=1;">
      <mxGeometry x="1040" y="4111" width="197" height="196" as="geometry" />
    </mxCell>
    <mxCell id="node76" parent="1" vertex="1" value="&lt;p style=&quot;margin:0px;margin-top:4px;text-align:center;&quot;&gt;&lt;b&gt;ReadSachXlsxFile&lt;/b&gt;&lt;/p&gt;&lt;hr size=&quot;1&quot;/&gt;&lt;p style=&quot;margin:0 0 0 4px;line-height:1.6;&quot;&gt;+ ReadSachXlsxFile(): &lt;/p&gt;&lt;hr size=&quot;1&quot;/&gt;&lt;p style=&quot;margin:0 0 0 4px;line-height:1.6;&quot;&gt;- handleStringCell(int, Cell, SachDTO): void&lt;br/&gt;- readImage(Workbook, List&amp;lt;SachDTO&amp;gt;): List&amp;lt;SachDTO&amp;gt;&lt;br/&gt;+ readExcelFile(String): List&amp;lt;SachDTO&amp;gt;&lt;br/&gt;- handleNumericCell(int, Cell, SachDTO): void&lt;br/&gt;- handleBooleanCell(int, Cell, SachDTO): void&lt;/p&gt;" style="verticalAlign=top;align=left;overflow=fill;fontSize=14;fontFamily=Helvetica;html=1;rounded=0;shadow=0;comic=0;labelBackgroundColor=none;strokeWidth=1;">
      <mxGeometry x="1919" y="4111" width="367" height="174" as="geometry" />
    </mxCell>
    <mxCell id="node91" parent="1" vertex="1" value="&lt;p style=&quot;margin:0px;margin-top:4px;text-align:center;&quot;&gt;&lt;b&gt;RoundPanel&lt;/b&gt;&lt;/p&gt;&lt;hr size=&quot;1&quot;/&gt;&lt;p style=&quot;margin:0 0 0 4px;line-height:1.6;&quot;&gt;+ RoundPanel(int): &lt;/p&gt;&lt;hr size=&quot;1&quot;/&gt;&lt;p style=&quot;margin:0 0 0 4px;line-height:1.6;&quot;&gt;# paintComponent(Graphics): void&lt;/p&gt;" style="verticalAlign=top;align=left;overflow=fill;fontSize=14;fontFamily=Helvetica;html=1;rounded=0;shadow=0;comic=0;labelBackgroundColor=none;strokeWidth=1;">
      <mxGeometry x="1143" y="4553" width="229" height="93" as="geometry" />
    </mxCell>
    <mxCell id="node70" parent="1" vertex="1" value="&lt;p style=&quot;margin:0px;margin-top:4px;text-align:center;&quot;&gt;&lt;b&gt;RoundedPanel&lt;/b&gt;&lt;/p&gt;&lt;hr size=&quot;1&quot;/&gt;&lt;p style=&quot;margin:0 0 0 4px;line-height:1.6;&quot;&gt;+ RoundedPanel(int, Color, int): &lt;/p&gt;" style="verticalAlign=top;align=left;overflow=fill;fontSize=14;fontFamily=Helvetica;html=1;rounded=0;shadow=0;comic=0;labelBackgroundColor=none;strokeWidth=1;">
      <mxGeometry x="100" y="4684" width="216" height="65" as="geometry" />
    </mxCell>
    <mxCell id="node33" parent="1" vertex="1" value="&lt;p style=&quot;margin:0px;margin-top:4px;text-align:center;&quot;&gt;&lt;b&gt;Sach&lt;/b&gt;&lt;/p&gt;&lt;hr size=&quot;1&quot;/&gt;&lt;p style=&quot;margin:0 0 0 4px;line-height:1.6;&quot;&gt;+ Sach(int, String, String, long, String, int, LocalDateTime, LocalDateTime, boolean, String, Set&amp;lt;DanhMuc&amp;gt;, List&amp;lt;CtkmSach&amp;gt;, Collection&amp;lt;ChiTietDonHang&amp;gt;, List&amp;lt;LichSuNhapHang&amp;gt;): &lt;br/&gt;+ Sach(): &lt;/p&gt;&lt;hr size=&quot;1&quot;/&gt;&lt;p style=&quot;margin:0 0 0 4px;line-height:1.6;&quot;&gt;- barCode: String&lt;br/&gt;- chiTietDonHangs: Collection&amp;lt;ChiTietDonHang&amp;gt;&lt;br/&gt;- ngaySua: LocalDateTime&lt;br/&gt;~ setDanhMuc: Set&amp;lt;DanhMuc&amp;gt;&lt;br/&gt;- CtkmSach: List&amp;lt;CtkmSach&amp;gt;&lt;br/&gt;- hinhAnh: String&lt;br/&gt;- giaBan: long&lt;br/&gt;- tenSach: String&lt;br/&gt;- trangThai: boolean&lt;br/&gt;~ lichSuNhapHangList: List&amp;lt;LichSuNhapHang&amp;gt;&lt;br/&gt;- id: int&lt;br/&gt;- ngayThem: LocalDateTime&lt;br/&gt;- soLuong: int&lt;br/&gt;- nxb: String&lt;/p&gt;&lt;hr size=&quot;1&quot;/&gt;&lt;p style=&quot;margin:0 0 0 4px;line-height:1.6;&quot;&gt; hinhAnh: String&lt;br/&gt; soLuong: int&lt;br/&gt; barCode: String&lt;br/&gt; ngaySua: LocalDateTime&lt;br/&gt; id: int&lt;br/&gt; giaBan: long&lt;br/&gt; tenSach: String&lt;br/&gt; lichSuNhapHangList: List&amp;lt;LichSuNhapHang&amp;gt;&lt;br/&gt; chiTietDonHangs: Collection&amp;lt;ChiTietDonHang&amp;gt;&lt;br/&gt; CtkmSach: List&amp;lt;CtkmSach&amp;gt;&lt;br/&gt; ngayThem: LocalDateTime&lt;br/&gt; nxb: String&lt;br/&gt; setDanhMuc: Set&amp;lt;DanhMuc&amp;gt;&lt;br/&gt; trangThai: boolean&lt;/p&gt;" style="verticalAlign=top;align=left;overflow=fill;fontSize=14;fontFamily=Helvetica;html=1;rounded=0;shadow=0;comic=0;labelBackgroundColor=none;strokeWidth=1;">
      <mxGeometry x="3007" y="2194" width="377" height="706" as="geometry" />
    </mxCell>
    <mxCell id="node12" parent="1" vertex="1" value="&lt;p style=&quot;margin:0px;margin-top:4px;text-align:center;&quot;&gt;&lt;b&gt;SachDTO&lt;/b&gt;&lt;/p&gt;&lt;hr size=&quot;1&quot;/&gt;&lt;p style=&quot;margin:0 0 0 4px;line-height:1.6;&quot;&gt;+ SachDTO(String, String, Long, Integer, LocalDateTime, LocalDateTime, Boolean, String, String, Set&amp;lt;DanhMucDTO&amp;gt;, long): &lt;br/&gt;+ SachDTO(): &lt;br/&gt;+ SachDTO(int, String, Long, Integer, String): &lt;br/&gt;+ SachDTO(int, String, String, Long, Integer, Boolean, String, String, Set&amp;lt;DanhMucDTO&amp;gt;): &lt;br/&gt;+ SachDTO(String, String, Long, Integer, LocalDateTime, LocalDateTime, Boolean, String, String, Set&amp;lt;DanhMucDTO&amp;gt;): &lt;/p&gt;&lt;hr size=&quot;1&quot;/&gt;&lt;p style=&quot;margin:0 0 0 4px;line-height:1.6;&quot;&gt;- hinhAnh: String&lt;br/&gt;- ngaySua: LocalDateTime&lt;br/&gt;- setDanhMuc: Set&amp;lt;DanhMucDTO&amp;gt;&lt;br/&gt;- trangThai: Boolean&lt;br/&gt;- tenSach: String&lt;br/&gt;- giaBan: Long&lt;br/&gt;- nxb: String&lt;br/&gt;- soLuong: Integer&lt;br/&gt;- ngayThem: LocalDateTime&lt;br/&gt;- barCode: String&lt;br/&gt;- giaGiam: long&lt;/p&gt;&lt;hr size=&quot;1&quot;/&gt;&lt;p style=&quot;margin:0 0 0 4px;line-height:1.6;&quot;&gt;+ equals(Object): boolean&lt;br/&gt;+ hashCode(): int&lt;br/&gt;# canEqual(Object): boolean&lt;br/&gt;+ toString(): String&lt;/p&gt;&lt;hr size=&quot;1&quot;/&gt;&lt;p style=&quot;margin:0 0 0 4px;line-height:1.6;&quot;&gt; hinhAnh: String&lt;br/&gt; giaGiam: long&lt;br/&gt; giaBan: Long&lt;br/&gt; soLuong: Integer&lt;br/&gt; ngaySua: LocalDateTime&lt;br/&gt; trangThai: Boolean&lt;br/&gt; ngayThem: LocalDateTime&lt;br/&gt; nxb: String&lt;br/&gt; barCode: String&lt;br/&gt; setDanhMuc: Set&amp;lt;DanhMucDTO&amp;gt;&lt;br/&gt; tenSach: String&lt;/p&gt;" style="verticalAlign=top;align=left;overflow=fill;fontSize=14;fontFamily=Helvetica;html=1;rounded=0;shadow=0;comic=0;labelBackgroundColor=none;strokeWidth=1;">
      <mxGeometry x="1897" y="1417" width="390" height="732" as="geometry" />
    </mxCell>
    <mxCell id="node24" parent="1" vertex="1" value="&lt;p style=&quot;margin:0px;margin-top:4px;text-align:center;&quot;&gt;&lt;b&gt;SachDialog&lt;/b&gt;&lt;/p&gt;&lt;hr size=&quot;1&quot;/&gt;&lt;p style=&quot;margin:0 0 0 4px;line-height:1.6;&quot;&gt;+ SachDialog(): &lt;/p&gt;&lt;hr size=&quot;1&quot;/&gt;&lt;p style=&quot;margin:0 0 0 4px;line-height:1.6;&quot;&gt;+ fillDanhMuc(): void&lt;br/&gt;- initComponent(): void&lt;br/&gt;- readForm(): SachDTO?&lt;br/&gt;+ fillForm(): void&lt;br/&gt;- scanQR(): void&lt;br/&gt;- save(): void&lt;br/&gt;- createUIComponents(): void&lt;/p&gt;" style="verticalAlign=top;align=left;overflow=fill;fontSize=14;fontFamily=Helvetica;html=1;rounded=0;shadow=0;comic=0;labelBackgroundColor=none;strokeWidth=1;">
      <mxGeometry x="4573" y="3738" width="205" height="218" as="geometry" />
    </mxCell>
    <mxCell id="node131" parent="1" vertex="1" value="&lt;p style=&quot;margin:0px;margin-top:4px;text-align:center;&quot;&gt;&lt;b&gt;SachService&lt;/b&gt;&lt;/p&gt;&lt;hr size=&quot;1&quot;/&gt;&lt;p style=&quot;margin:0 0 0 4px;line-height:1.6;&quot;&gt;+ SachService(): &lt;/p&gt;&lt;hr size=&quot;1&quot;/&gt;&lt;p style=&quot;margin:0 0 0 4px;line-height:1.6;&quot;&gt;+ searchByKeyword(String): List&amp;lt;SachDTO&amp;gt;&lt;br/&gt;+ getToTalPageCtkSachNotInAllAvailablePromote(Pageable): int&lt;br/&gt;+ delete(Integer): void&lt;br/&gt;+ getToTalPageCtkSachInAllAvailablePromote(Pageable): int&lt;br/&gt;+ getAllCtkSachInAllAvailablePromote(Pageable): List&amp;lt;SachDTO&amp;gt;&lt;br/&gt;+ getPage(Pageable): List&amp;lt;SachDTO&amp;gt;&lt;br/&gt;+ insert(SachDTO): SachDTO&lt;br/&gt;+ getAllSachByKeyWord(String): List&amp;lt;SachDTO&amp;gt;&lt;br/&gt;~ findAllGiaGiam(List&amp;lt;Sach&amp;gt;): List&amp;lt;SachDTO&amp;gt;&lt;br/&gt;+ getTotalPage(Pageable): int&lt;br/&gt;+ deleteAll(Set&amp;lt;Integer&amp;gt;): void&lt;br/&gt;+ getAllSachByIdDanhMuc(Integer): List&amp;lt;SachDTO&amp;gt;&lt;br/&gt;+ getByBarCode(String): SachDTO&lt;br/&gt;+ getById(Integer): SachDTO&lt;br/&gt;+ getAllCtkSachNotInAllAvailablePromote(Pageable): List&amp;lt;SachDTO&amp;gt;&lt;br/&gt;+ update(SachDTO): void&lt;br/&gt;+ getAllByIds(List&amp;lt;Integer&amp;gt;): List&amp;lt;SachDTO&amp;gt;&lt;/p&gt;&lt;hr size=&quot;1&quot;/&gt;&lt;p style=&quot;margin:0 0 0 4px;line-height:1.6;&quot;&gt; all: List&amp;lt;SachDTO&amp;gt;&lt;br/&gt; allSachInOrNotInCTKM: List&amp;lt;SachDTO&amp;gt;&lt;br/&gt; allSachNotInCTKM: List&amp;lt;SachDTO&amp;gt;&lt;/p&gt;" style="verticalAlign=top;align=left;overflow=fill;fontSize=14;fontFamily=Helvetica;html=1;rounded=0;shadow=0;comic=0;labelBackgroundColor=none;strokeWidth=1;">
      <mxGeometry x="2143" y="588" width="430" height="508" as="geometry" />
    </mxCell>
    <mxCell id="node45" parent="1" vertex="1" value="&lt;p style=&quot;margin:0px;margin-top:4px;text-align:center;&quot;&gt;&lt;b&gt;SachViewObject&lt;/b&gt;&lt;/p&gt;&lt;hr size=&quot;1&quot;/&gt;&lt;p style=&quot;margin:0 0 0 4px;line-height:1.6;&quot;&gt;+ SachViewObject(SachDTO): &lt;/p&gt;&lt;hr size=&quot;1&quot;/&gt;&lt;p style=&quot;margin:0 0 0 4px;line-height:1.6;&quot;&gt;- soLuong: int&lt;br/&gt;- hinhAnh: String&lt;br/&gt;- trangThai: boolean&lt;br/&gt;- barcode: String&lt;br/&gt;- giaBan: String&lt;br/&gt;- danhMucList: List&amp;lt;String&amp;gt;&lt;br/&gt;- ngayThem: LocalDateTime&lt;/p&gt;&lt;hr size=&quot;1&quot;/&gt;&lt;p style=&quot;margin:0 0 0 4px;line-height:1.6;&quot;&gt;# canEqual(Object): boolean&lt;br/&gt;+ toString(): String&lt;br/&gt;+ equals(Object): boolean&lt;br/&gt;+ hashCode(): int&lt;br/&gt;+ toObject(ExecutorService, JTable, Set, List&amp;lt;JCheckBox&amp;gt;): Object[]&lt;/p&gt;&lt;hr size=&quot;1&quot;/&gt;&lt;p style=&quot;margin:0 0 0 4px;line-height:1.6;&quot;&gt; hinhAnh: String&lt;br/&gt; soLuong: int&lt;br/&gt; danhMucList: List&amp;lt;String&amp;gt;&lt;br/&gt; ngayThem: LocalDateTime&lt;br/&gt; barcode: String&lt;br/&gt; trangThai: boolean&lt;br/&gt; giaBan: String&lt;/p&gt;" style="verticalAlign=top;align=left;overflow=fill;fontSize=14;fontFamily=Helvetica;html=1;rounded=0;shadow=0;comic=0;labelBackgroundColor=none;strokeWidth=1;">
      <mxGeometry x="2084" y="2624" width="429" height="490" as="geometry" />
    </mxCell>
    <mxCell id="node85" parent="1" vertex="1" value="&lt;p style=&quot;margin:0px;margin-top:4px;text-align:center;&quot;&gt;&lt;b&gt;SanPhamPane&lt;/b&gt;&lt;/p&gt;&lt;hr size=&quot;1&quot;/&gt;&lt;p style=&quot;margin:0 0 0 4px;line-height:1.6;&quot;&gt;+ SanPhamPane(): &lt;/p&gt;&lt;hr size=&quot;1&quot;/&gt;&lt;p style=&quot;margin:0 0 0 4px;line-height:1.6;&quot;&gt;- delete(): void&lt;br/&gt;- createUIComponents(): void&lt;br/&gt;- add(): void&lt;br/&gt;+ selectSizeDisplay(): void&lt;br/&gt;+ searchByKeyword(): void&lt;br/&gt;+ fillTable(List&amp;lt;AbstractViewObject&amp;gt;): void&lt;br/&gt;+ selectPageDisplay(): void&lt;br/&gt;- update(): void&lt;br/&gt;- nhapHang(): void&lt;br/&gt;- importExcel(): void&lt;br/&gt;+ initComponent(): void&lt;br/&gt;+ fillListPage(int): void&lt;/p&gt;" style="verticalAlign=top;align=left;overflow=fill;fontSize=14;fontFamily=Helvetica;html=1;rounded=0;shadow=0;comic=0;labelBackgroundColor=none;strokeWidth=1;">
      <mxGeometry x="-161" y="3738" width="279" height="328" as="geometry" />
    </mxCell>
    <mxCell id="node79" parent="1" vertex="1" value="&lt;p style=&quot;margin:0px;margin-top:4px;text-align:center;&quot;&gt;&lt;b&gt;ScrollBar&lt;/b&gt;&lt;/p&gt;&lt;hr size=&quot;1&quot;/&gt;&lt;p style=&quot;margin:0 0 0 4px;line-height:1.6;&quot;&gt;+ ScrollBar(): &lt;/p&gt;" style="verticalAlign=top;align=left;overflow=fill;fontSize=14;fontFamily=Helvetica;html=1;rounded=0;shadow=0;comic=0;labelBackgroundColor=none;strokeWidth=1;">
      <mxGeometry x="2521" y="4684" width="117" height="65" as="geometry" />
    </mxCell>
    <mxCell id="node3" parent="1" vertex="1" value="&lt;p style=&quot;margin:0px;margin-top:4px;text-align:center;&quot;&gt;&lt;b&gt;Search&lt;/b&gt;&lt;/p&gt;&lt;hr size=&quot;1&quot;/&gt;&lt;p style=&quot;margin:0 0 0 4px;line-height:1.6;&quot;&gt;+ Search(): &lt;/p&gt;&lt;hr size=&quot;1&quot;/&gt;&lt;p style=&quot;margin:0 0 0 4px;line-height:1.6;&quot;&gt;- createUIComponents(): void&lt;/p&gt;" style="verticalAlign=top;align=left;overflow=fill;fontSize=14;fontFamily=Helvetica;html=1;rounded=0;shadow=0;comic=0;labelBackgroundColor=none;strokeWidth=1;">
      <mxGeometry x="1936" y="4553" width="205" height="93" as="geometry" />
    </mxCell>
    <mxCell id="node108" parent="1" vertex="1" value="&lt;p style=&quot;margin:0px;margin-top:4px;text-align:center;&quot;&gt;&lt;b&gt;Session&lt;/b&gt;&lt;/p&gt;&lt;hr size=&quot;1&quot;/&gt;&lt;p style=&quot;margin:0 0 0 4px;line-height:1.6;&quot;&gt;+ Session(): &lt;/p&gt;&lt;hr size=&quot;1&quot;/&gt;&lt;p style=&quot;margin:0 0 0 4px;line-height:1.6;&quot;&gt;+ chonTatCa(JCheckBox, JTable, List&amp;lt;JCheckBox&amp;gt;, Set): void&lt;br/&gt;- startTimer(JButton): void&lt;br/&gt;- disableSendButton(JButton): void&lt;br/&gt;- enableSendButton(JButton): void&lt;br/&gt;+ isValidEmail(String): boolean&lt;br/&gt;+ fillListPage(int, DefaultListModel, ICrudServices, Pageable, JList): void&lt;br/&gt;+ logout(): void&lt;br/&gt;+ fillTable(List&amp;lt;AbstractViewObject&amp;gt;, JXTable, JCheckBox, ExecutorService, Set, List&amp;lt;JCheckBox&amp;gt;): void&lt;/p&gt;&lt;hr size=&quot;1&quot;/&gt;&lt;p style=&quot;margin:0 0 0 4px;line-height:1.6;&quot;&gt; config: Map&amp;lt;String, String&amp;gt;&lt;/p&gt;" style="verticalAlign=top;align=left;overflow=fill;fontSize=14;fontFamily=Helvetica;html=1;rounded=0;shadow=0;comic=0;labelBackgroundColor=none;strokeWidth=1;">
      <mxGeometry x="2103" y="3738" width="408" height="266" as="geometry" />
    </mxCell>
    <mxCell id="node5" parent="1" vertex="1" value="&lt;p style=&quot;margin:0px;margin-top:4px;text-align:center;&quot;&gt;&lt;b&gt;ShadowRenderer&lt;/b&gt;&lt;/p&gt;&lt;hr size=&quot;1&quot;/&gt;&lt;p style=&quot;margin:0 0 0 4px;line-height:1.6;&quot;&gt;+ ShadowRenderer(int, float, Color): &lt;br/&gt;+ ShadowRenderer(): &lt;/p&gt;&lt;hr size=&quot;1&quot;/&gt;&lt;p style=&quot;margin:0 0 0 4px;line-height:1.6;&quot;&gt;- opacity: float&lt;br/&gt;- color: Color&lt;br/&gt;- size: int&lt;/p&gt;&lt;hr size=&quot;1&quot;/&gt;&lt;p style=&quot;margin:0 0 0 4px;line-height:1.6;&quot;&gt;+ createShadow(BufferedImage): BufferedImage&lt;/p&gt;&lt;hr size=&quot;1&quot;/&gt;&lt;p style=&quot;margin:0 0 0 4px;line-height:1.6;&quot;&gt; opacity: float&lt;br/&gt; color: Color&lt;br/&gt; size: int&lt;/p&gt;" style="verticalAlign=top;align=left;overflow=fill;fontSize=14;fontFamily=Helvetica;html=1;rounded=0;shadow=0;comic=0;labelBackgroundColor=none;strokeWidth=1;">
      <mxGeometry x="3646" y="3738" width="308" height="248" as="geometry" />
    </mxCell>
    <mxCell id="node94" parent="1" vertex="1" value="&lt;p style=&quot;margin:0px;margin-top:4px;text-align:center;&quot;&gt;&lt;i&gt;&amp;lt;&amp;lt;enumeration&amp;gt;&amp;gt;&lt;/i&gt;&lt;br/&gt;&lt;b&gt;ShadowType&lt;/b&gt;&lt;/p&gt;&lt;hr size=&quot;1&quot;/&gt;&lt;p style=&quot;margin:0 0 0 4px;line-height:1.6;&quot;&gt;+ ShadowType(): &lt;/p&gt;&lt;hr size=&quot;1&quot;/&gt;&lt;p style=&quot;margin:0 0 0 4px;line-height:1.6;&quot;&gt;+ valueOf(String): ShadowType&lt;br/&gt;+ values(): ShadowType[]&lt;/p&gt;" style="verticalAlign=top;align=left;overflow=fill;fontSize=14;fontFamily=Helvetica;html=1;rounded=0;shadow=0;comic=0;labelBackgroundColor=none;strokeWidth=1;">
      <mxGeometry x="2576" y="4360" width="214" height="135" as="geometry" />
    </mxCell>
    <mxCell id="node105" parent="1" vertex="1" value="&lt;p style=&quot;margin:0px;margin-top:4px;text-align:center;&quot;&gt;&lt;b&gt;SplineRenderer&lt;/b&gt;&lt;/p&gt;&lt;hr size=&quot;1&quot;/&gt;&lt;p style=&quot;margin:0 0 0 4px;line-height:1.6;&quot;&gt;+ SplineRenderer(): &lt;br/&gt;+ SplineRenderer(int): &lt;/p&gt;&lt;hr size=&quot;1&quot;/&gt;&lt;p style=&quot;margin:0 0 0 4px;line-height:1.6;&quot;&gt;- precision: int&lt;/p&gt;&lt;hr size=&quot;1&quot;/&gt;&lt;p style=&quot;margin:0 0 0 4px;line-height:1.6;&quot;&gt;+ equals(Object): boolean&lt;br/&gt;+ initialise(Graphics2D, Rectangle2D, XYPlot, XYDataset, PlotRenderingInfo): XYItemRendererState&lt;br/&gt;# drawPrimaryLineAsPath(XYItemRendererState, Graphics2D, XYPlot, XYDataset, int, int, int, ValueAxis, ValueAxis, Rectangle2D): void&lt;/p&gt;&lt;hr size=&quot;1&quot;/&gt;&lt;p style=&quot;margin:0 0 0 4px;line-height:1.6;&quot;&gt; precision: int&lt;/p&gt;" style="verticalAlign=top;align=left;overflow=fill;fontSize=14;fontFamily=Helvetica;html=1;rounded=0;shadow=0;comic=0;labelBackgroundColor=none;strokeWidth=1;">
      <mxGeometry x="-161" y="4111" width="489" height="204" as="geometry" />
    </mxCell>
    <mxCell id="node16" parent="1" vertex="1" value="&lt;p style=&quot;margin:0px;margin-top:4px;text-align:center;&quot;&gt;&lt;b&gt;TaiKhoanDialog&lt;/b&gt;&lt;/p&gt;&lt;hr size=&quot;1&quot;/&gt;&lt;p style=&quot;margin:0 0 0 4px;line-height:1.6;&quot;&gt;+ TaiKhoanDialog(): &lt;/p&gt;&lt;hr size=&quot;1&quot;/&gt;&lt;p style=&quot;margin:0 0 0 4px;line-height:1.6;&quot;&gt;+ fillForm(): void&lt;br/&gt;- add(): void&lt;br/&gt;- initComponent(): void&lt;br/&gt;- readForm(): AccountDTO?&lt;/p&gt;" style="verticalAlign=top;align=left;overflow=fill;fontSize=14;fontFamily=Helvetica;html=1;rounded=0;shadow=0;comic=0;labelBackgroundColor=none;strokeWidth=1;">
      <mxGeometry x="4721" y="4111" width="195" height="152" as="geometry" />
    </mxCell>
    <mxCell id="node90" parent="1" vertex="1" value="&lt;p style=&quot;margin:0px;margin-top:4px;text-align:center;&quot;&gt;&lt;b&gt;ThongKePane&lt;/b&gt;&lt;/p&gt;&lt;hr size=&quot;1&quot;/&gt;&lt;p style=&quot;margin:0 0 0 4px;line-height:1.6;&quot;&gt;+ ThongKePane(): &lt;/p&gt;&lt;hr size=&quot;1&quot;/&gt;&lt;p style=&quot;margin:0 0 0 4px;line-height:1.6;&quot;&gt;- createUIComponents(): void&lt;br/&gt;- hienThiTheoNam(): void&lt;br/&gt;- initComponent(): void&lt;br/&gt;- hienThiTheoThang(): void&lt;br/&gt;- fillBieuDo(XYDataset, JPanel): void&lt;br/&gt;- createSplineChart(XYDataset): JFreeChart&lt;/p&gt;" style="verticalAlign=top;align=left;overflow=fill;fontSize=14;fontFamily=Helvetica;html=1;rounded=0;shadow=0;comic=0;labelBackgroundColor=none;strokeWidth=1;">
      <mxGeometry x="708" y="4111" width="287" height="196" as="geometry" />
    </mxCell>
    <mxCell id="node59" parent="1" vertex="1" value="&lt;p style=&quot;margin:0px;margin-top:4px;text-align:center;&quot;&gt;&lt;b&gt;ThongKeService&lt;/b&gt;&lt;/p&gt;&lt;hr size=&quot;1&quot;/&gt;&lt;p style=&quot;margin:0 0 0 4px;line-height:1.6;&quot;&gt;+ ThongKeService(): &lt;/p&gt;&lt;hr size=&quot;1&quot;/&gt;&lt;p style=&quot;margin:0 0 0 4px;line-height:1.6;&quot;&gt;+ countDonHangByNhanVien(Integer): Integer&lt;br/&gt;+ countAllDonhang(): Integer&lt;br/&gt;+ getAllTongTienTheoThang(int, int): List&amp;lt;DoanhThuNgayDTO&amp;gt;&lt;br/&gt;+ getAllTongTienTheoNam(int): List&amp;lt;DoanhThuNamDTO&amp;gt;&lt;/p&gt;" style="verticalAlign=top;align=left;overflow=fill;fontSize=14;fontFamily=Helvetica;html=1;rounded=0;shadow=0;comic=0;labelBackgroundColor=none;strokeWidth=1;">
      <mxGeometry x="4388" y="3379" width="399" height="152" as="geometry" />
    </mxCell>
    <mxCell id="node75" parent="1" vertex="1" value="&lt;p style=&quot;margin:0px;margin-top:4px;text-align:center;&quot;&gt;&lt;b&gt;UserPopup&lt;/b&gt;&lt;/p&gt;&lt;hr size=&quot;1&quot;/&gt;&lt;p style=&quot;margin:0 0 0 4px;line-height:1.6;&quot;&gt;+ UserPopup(JPanel): &lt;/p&gt;&lt;hr size=&quot;1&quot;/&gt;&lt;p style=&quot;margin:0 0 0 4px;line-height:1.6;&quot;&gt;- thongTinChiTiet(): void&lt;br/&gt;- dangXuat(): void&lt;br/&gt;- createUIComponents(): void&lt;/p&gt;" style="verticalAlign=top;align=left;overflow=fill;fontSize=14;fontFamily=Helvetica;html=1;rounded=0;shadow=0;comic=0;labelBackgroundColor=none;strokeWidth=1;">
      <mxGeometry x="1318" y="4360" width="205" height="140" as="geometry" />
    </mxCell>
    <mxCell id="node118" parent="1" vertex="1" value="&lt;p style=&quot;margin:0px;margin-top:4px;text-align:center;&quot;&gt;&lt;b&gt;WrapLayout&lt;/b&gt;&lt;/p&gt;&lt;hr size=&quot;1&quot;/&gt;&lt;p style=&quot;margin:0 0 0 4px;line-height:1.6;&quot;&gt;+ WrapLayout(int, int, int): &lt;br/&gt;+ WrapLayout(int): &lt;br/&gt;+ WrapLayout(): &lt;/p&gt;&lt;hr size=&quot;1&quot;/&gt;&lt;p style=&quot;margin:0 0 0 4px;line-height:1.6;&quot;&gt;+ preferredLayoutSize(Container): Dimension&lt;br/&gt;+ minimumLayoutSize(Container): Dimension&lt;br/&gt;- layoutSize(Container, boolean): Dimension&lt;br/&gt;- addRow(Dimension, int, int): void&lt;/p&gt;" style="verticalAlign=top;align=left;overflow=fill;fontSize=14;fontFamily=Helvetica;html=1;rounded=0;shadow=0;comic=0;labelBackgroundColor=none;strokeWidth=1;">
      <mxGeometry x="373" y="4111" width="290" height="196" as="geometry" />
    </mxCell>
    <mxCell id="edge33" edge="1" value="" parent="1" source="node124" target="node54" style="html=1;rounded=1;edgeStyle=orthogonalEdgeStyle;dashed=0;startArrow=none;endArrow=block;endSize=12;strokeColor=#000082;exitX=0.500;exitY=0.000;exitDx=0;exitDy=0;entryX=0.500;entryY=1.000;entryDx=0;entryDy=0;">
      <mxGeometry width="50" height="50" relative="1" as="geometry">
        <Array as="points">
          <mxPoint x="3222" y="1392" />
          <mxPoint x="1671" y="1392" />
        </Array>
      </mxGeometry>
    </mxCell>
    <mxCell id="edge3" edge="1" value="" parent="1" source="node114" target="node125" style="html=1;rounded=1;edgeStyle=orthogonalEdgeStyle;dashed=1;startArrow=none;endArrow=block;endSize=12;strokeColor=#008200;exitX=0.500;exitY=0.000;exitDx=0;exitDy=0;entryX=0.500;entryY=1.000;entryDx=0;entryDy=0;">
      <mxGeometry width="50" height="50" relative="1" as="geometry">
        <Array as="points" />
      </mxGeometry>
    </mxCell>
    <mxCell id="edge15" edge="1" value="" parent="1" source="node34" target="node54" style="html=1;rounded=1;edgeStyle=orthogonalEdgeStyle;dashed=0;startArrow=none;endArrow=block;endSize=12;strokeColor=#000082;exitX=0.500;exitY=0.000;exitDx=0;exitDy=0;entryX=0.500;entryY=1.000;entryDx=0;entryDy=0;">
      <mxGeometry width="50" height="50" relative="1" as="geometry">
        <Array as="points">
          <mxPoint x="1253" y="1392" />
          <mxPoint x="1671" y="1392" />
        </Array>
      </mxGeometry>
    </mxCell>
    <mxCell id="edge29" edge="1" value="" parent="1" source="node84" target="node54" style="html=1;rounded=1;edgeStyle=orthogonalEdgeStyle;dashed=0;startArrow=none;endArrow=block;endSize=12;strokeColor=#000082;exitX=0.500;exitY=0.000;exitDx=0;exitDy=0;entryX=0.500;entryY=1.000;entryDx=0;entryDy=0;">
      <mxGeometry width="50" height="50" relative="1" as="geometry">
        <Array as="points">
          <mxPoint x="2502" y="1392" />
          <mxPoint x="1671" y="1392" />
        </Array>
      </mxGeometry>
    </mxCell>
    <mxCell id="edge30" edge="1" value="" parent="1" source="node102" target="node54" style="html=1;rounded=1;edgeStyle=orthogonalEdgeStyle;dashed=0;startArrow=none;endArrow=block;endSize=12;strokeColor=#000082;exitX=0.500;exitY=0.000;exitDx=0;exitDy=0;entryX=0.500;entryY=1.000;entryDx=0;entryDy=0;">
      <mxGeometry width="50" height="50" relative="1" as="geometry">
        <Array as="points">
          <mxPoint x="2866" y="1392" />
          <mxPoint x="1671" y="1392" />
        </Array>
      </mxGeometry>
    </mxCell>
    <mxCell id="edge1" edge="1" value="" parent="1" source="node14" target="node69" style="html=1;rounded=1;edgeStyle=orthogonalEdgeStyle;dashed=1;startArrow=none;endArrow=block;endSize=12;strokeColor=#008200;exitX=0.500;exitY=0.000;exitDx=0;exitDy=0;entryX=0.500;entryY=1.000;entryDx=0;entryDy=0;">
      <mxGeometry width="50" height="50" relative="1" as="geometry">
        <Array as="points" />
      </mxGeometry>
    </mxCell>
    <mxCell id="edge5" edge="1" value="" parent="1" source="node104" target="node77" style="html=1;rounded=1;edgeStyle=orthogonalEdgeStyle;dashed=0;startArrow=none;endArrow=block;endSize=12;strokeColor=#000082;exitX=0.500;exitY=0.000;exitDx=0;exitDy=0;entryX=0.500;entryY=1.000;entryDx=0;entryDy=0;">
      <mxGeometry width="50" height="50" relative="1" as="geometry">
        <Array as="points">
          <mxPoint x="952" y="2555" />
          <mxPoint x="1401" y="2555" />
        </Array>
      </mxGeometry>
    </mxCell>
    <mxCell id="edge26" edge="1" value="" parent="1" source="node31" target="node95" style="html=1;rounded=1;edgeStyle=orthogonalEdgeStyle;dashed=1;startArrow=none;endArrow=block;endSize=12;strokeColor=#008200;exitX=0.500;exitY=0.000;exitDx=0;exitDy=0;entryX=0.500;entryY=1.000;entryDx=0;entryDy=0;">
      <mxGeometry width="50" height="50" relative="1" as="geometry">
        <Array as="points" />
      </mxGeometry>
    </mxCell>
    <mxCell id="edge34" edge="1" value="" parent="1" source="node74" target="node77" style="html=1;rounded=1;edgeStyle=orthogonalEdgeStyle;dashed=0;startArrow=none;endArrow=block;endSize=12;strokeColor=#000082;exitX=0.500;exitY=0.000;exitDx=0;exitDy=0;entryX=0.500;entryY=1.000;entryDx=0;entryDy=0;">
      <mxGeometry width="50" height="50" relative="1" as="geometry">
        <Array as="points">
          <mxPoint x="2748" y="2555" />
          <mxPoint x="1401" y="2555" />
        </Array>
      </mxGeometry>
    </mxCell>
    <mxCell id="edge16" edge="1" value="" parent="1" source="node18" target="node61" style="html=1;rounded=1;edgeStyle=orthogonalEdgeStyle;dashed=0;startArrow=none;endArrow=block;endSize=12;strokeColor=#000082;exitX=0.500;exitY=0.000;exitDx=0;exitDy=0;entryX=0.500;entryY=1.000;entryDx=0;entryDy=0;">
      <mxGeometry width="50" height="50" relative="1" as="geometry">
        <Array as="points" />
      </mxGeometry>
    </mxCell>
    <mxCell id="edge10" edge="1" value="" parent="1" source="node32" target="node54" style="html=1;rounded=1;edgeStyle=orthogonalEdgeStyle;dashed=0;startArrow=none;endArrow=block;endSize=12;strokeColor=#000082;exitX=0.500;exitY=0.000;exitDx=0;exitDy=0;entryX=0.500;entryY=1.000;entryDx=0;entryDy=0;">
      <mxGeometry width="50" height="50" relative="1" as="geometry">
        <Array as="points">
          <mxPoint x="888" y="1392" />
          <mxPoint x="1671" y="1392" />
        </Array>
      </mxGeometry>
    </mxCell>
    <mxCell id="edge36" edge="1" value="" parent="1" source="node44" target="node27" style="html=1;rounded=1;edgeStyle=orthogonalEdgeStyle;dashed=1;startArrow=none;endArrow=block;endSize=12;strokeColor=#008200;exitX=0.500;exitY=0.000;exitDx=0;exitDy=0;entryX=0.500;entryY=1.000;entryDx=0;entryDy=0;">
      <mxGeometry width="50" height="50" relative="1" as="geometry">
        <Array as="points" />
      </mxGeometry>
    </mxCell>
    <mxCell id="edge27" edge="1" value="" parent="1" source="node127" target="node77" style="html=1;rounded=1;edgeStyle=orthogonalEdgeStyle;dashed=0;startArrow=none;endArrow=block;endSize=12;strokeColor=#000082;exitX=0.500;exitY=0.000;exitDx=0;exitDy=0;entryX=0.500;entryY=1.000;entryDx=0;entryDy=0;">
      <mxGeometry width="50" height="50" relative="1" as="geometry">
        <Array as="points">
          <mxPoint x="1850" y="2555" />
          <mxPoint x="1401" y="2555" />
        </Array>
      </mxGeometry>
    </mxCell>
    <mxCell id="edge2" edge="1" value="" parent="1" source="node120" target="node126" style="html=1;rounded=1;edgeStyle=orthogonalEdgeStyle;dashed=0;startArrow=none;endArrow=block;endSize=12;strokeColor=#000082;exitX=0.500;exitY=0.000;exitDx=0;exitDy=0;entryX=0.500;entryY=1.000;entryDx=0;entryDy=0;">
      <mxGeometry width="50" height="50" relative="1" as="geometry">
        <Array as="points">
          <mxPoint x="3839" y="2577" />
          <mxPoint x="3699" y="2577" />
        </Array>
      </mxGeometry>
    </mxCell>
    <mxCell id="edge7" edge="1" value="" parent="1" source="node29" target="node126" style="html=1;rounded=1;edgeStyle=orthogonalEdgeStyle;dashed=0;startArrow=none;endArrow=block;endSize=12;strokeColor=#000082;exitX=0.500;exitY=0.000;exitDx=0;exitDy=0;entryX=0.500;entryY=1.000;entryDx=0;entryDy=0;">
      <mxGeometry width="50" height="50" relative="1" as="geometry">
        <Array as="points">
          <mxPoint x="3560" y="2577" />
          <mxPoint x="3699" y="2577" />
        </Array>
      </mxGeometry>
    </mxCell>
    <mxCell id="edge20" edge="1" value="" parent="1" source="node48" target="node66" style="html=1;rounded=1;edgeStyle=orthogonalEdgeStyle;dashed=1;startArrow=none;endArrow=block;endSize=12;strokeColor=#008200;exitX=0.500;exitY=0.000;exitDx=0;exitDy=0;entryX=0.500;entryY=1.000;entryDx=0;entryDy=0;">
      <mxGeometry width="50" height="50" relative="1" as="geometry">
        <Array as="points" />
      </mxGeometry>
    </mxCell>
    <mxCell id="edge35" edge="1" value="" parent="1" source="node9" target="node54" style="html=1;rounded=1;edgeStyle=orthogonalEdgeStyle;dashed=0;startArrow=none;endArrow=block;endSize=12;strokeColor=#000082;exitX=0.500;exitY=0.000;exitDx=0;exitDy=0;entryX=0.500;entryY=1.000;entryDx=0;entryDy=0;">
      <mxGeometry width="50" height="50" relative="1" as="geometry">
        <Array as="points">
          <mxPoint x="62" y="1392" />
          <mxPoint x="1671" y="1392" />
        </Array>
      </mxGeometry>
    </mxCell>
    <mxCell id="edge37" edge="1" value="" parent="1" source="node88" target="node21" style="html=1;rounded=1;edgeStyle=orthogonalEdgeStyle;dashed=1;startArrow=none;endArrow=block;endSize=12;strokeColor=#008200;exitX=0.500;exitY=0.000;exitDx=0;exitDy=0;entryX=0.500;entryY=1.001;entryDx=0;entryDy=0;">
      <mxGeometry width="50" height="50" relative="1" as="geometry">
        <Array as="points" />
      </mxGeometry>
    </mxCell>
    <mxCell id="edge24" edge="1" value="" parent="1" source="node13" target="node77" style="html=1;rounded=1;edgeStyle=orthogonalEdgeStyle;dashed=0;startArrow=none;endArrow=block;endSize=12;strokeColor=#000082;exitX=0.500;exitY=0.000;exitDx=0;exitDy=0;entryX=0.500;entryY=1.000;entryDx=0;entryDy=0;">
      <mxGeometry width="50" height="50" relative="1" as="geometry">
        <Array as="points" />
      </mxGeometry>
    </mxCell>
    <mxCell id="edge31" edge="1" value="" parent="1" source="node125" target="node23" style="html=1;rounded=1;edgeStyle=orthogonalEdgeStyle;dashed=0;startArrow=none;endArrow=block;endSize=12;strokeColor=#008200;exitX=0.500;exitY=0.000;exitDx=0;exitDy=0;entryX=0.500;entryY=1.000;entryDx=0;entryDy=0;">
      <mxGeometry width="50" height="50" relative="1" as="geometry">
        <Array as="points">
          <mxPoint x="2748" y="273" />
          <mxPoint x="1588" y="273" />
        </Array>
      </mxGeometry>
    </mxCell>
    <mxCell id="edge17" edge="1" value="" parent="1" source="node69" target="node23" style="html=1;rounded=1;edgeStyle=orthogonalEdgeStyle;dashed=0;startArrow=none;endArrow=block;endSize=12;strokeColor=#008200;exitX=0.500;exitY=0.000;exitDx=0;exitDy=0;entryX=0.500;entryY=1.000;entryDx=0;entryDy=0;">
      <mxGeometry width="50" height="50" relative="1" as="geometry">
        <Array as="points" />
      </mxGeometry>
    </mxCell>
    <mxCell id="edge38" edge="1" value="" parent="1" source="node95" target="node23" style="html=1;rounded=1;edgeStyle=orthogonalEdgeStyle;dashed=0;startArrow=none;endArrow=block;endSize=12;strokeColor=#008200;exitX=0.500;exitY=0.000;exitDx=0;exitDy=0;entryX=0.500;entryY=1.000;entryDx=0;entryDy=0;">
      <mxGeometry width="50" height="50" relative="1" as="geometry">
        <Array as="points">
          <mxPoint x="3079" y="273" />
          <mxPoint x="1588" y="273" />
        </Array>
      </mxGeometry>
    </mxCell>
    <mxCell id="edge11" edge="1" value="" parent="1" source="node27" target="node23" style="html=1;rounded=1;edgeStyle=orthogonalEdgeStyle;dashed=0;startArrow=none;endArrow=block;endSize=12;strokeColor=#008200;exitX=0.500;exitY=0.000;exitDx=0;exitDy=0;entryX=0.500;entryY=1.000;entryDx=0;entryDy=0;">
      <mxGeometry width="50" height="50" relative="1" as="geometry">
        <Array as="points">
          <mxPoint x="796" y="273" />
          <mxPoint x="1588" y="273" />
        </Array>
      </mxGeometry>
    </mxCell>
    <mxCell id="edge6" edge="1" value="" parent="1" source="node66" target="node23" style="html=1;rounded=1;edgeStyle=orthogonalEdgeStyle;dashed=0;startArrow=none;endArrow=block;endSize=12;strokeColor=#008200;exitX=0.500;exitY=0.000;exitDx=0;exitDy=0;entryX=0.500;entryY=1.000;entryDx=0;entryDy=0;">
      <mxGeometry width="50" height="50" relative="1" as="geometry">
        <Array as="points">
          <mxPoint x="386" y="273" />
          <mxPoint x="1588" y="273" />
        </Array>
      </mxGeometry>
    </mxCell>
    <mxCell id="edge18" edge="1" value="" parent="1" source="node21" target="node23" style="html=1;rounded=1;edgeStyle=orthogonalEdgeStyle;dashed=0;startArrow=none;endArrow=block;endSize=12;strokeColor=#008200;exitX=0.500;exitY=0.001;exitDx=0;exitDy=0;entryX=0.500;entryY=1.000;entryDx=0;entryDy=0;">
      <mxGeometry width="50" height="50" relative="1" as="geometry">
        <Array as="points">
          <mxPoint x="1966" y="273" />
          <mxPoint x="1588" y="273" />
        </Array>
      </mxGeometry>
    </mxCell>
    <mxCell id="edge32" edge="1" value="" parent="1" source="node106" target="node23" style="html=1;rounded=1;edgeStyle=orthogonalEdgeStyle;dashed=0;startArrow=none;endArrow=block;endSize=12;strokeColor=#008200;exitX=0.500;exitY=0.000;exitDx=0;exitDy=0;entryX=0.500;entryY=1.000;entryDx=0;entryDy=0;">
      <mxGeometry width="50" height="50" relative="1" as="geometry">
        <Array as="points">
          <mxPoint x="3" y="273" />
          <mxPoint x="1588" y="273" />
        </Array>
      </mxGeometry>
    </mxCell>
    <mxCell id="edge12" edge="1" value="" parent="1" source="node1" target="node23" style="html=1;rounded=1;edgeStyle=orthogonalEdgeStyle;dashed=0;startArrow=none;endArrow=block;endSize=12;strokeColor=#008200;exitX=0.500;exitY=0.000;exitDx=0;exitDy=0;entryX=0.500;entryY=1.000;entryDx=0;entryDy=0;">
      <mxGeometry width="50" height="50" relative="1" as="geometry">
        <Array as="points">
          <mxPoint x="1188" y="273" />
          <mxPoint x="1588" y="273" />
        </Array>
      </mxGeometry>
    </mxCell>
    <mxCell id="edge25" edge="1" value="" parent="1" source="node6" target="node23" style="html=1;rounded=1;edgeStyle=orthogonalEdgeStyle;dashed=0;startArrow=none;endArrow=block;endSize=12;strokeColor=#008200;exitX=0.500;exitY=0.000;exitDx=0;exitDy=0;entryX=0.500;entryY=1.000;entryDx=0;entryDy=0;">
      <mxGeometry width="50" height="50" relative="1" as="geometry">
        <Array as="points">
          <mxPoint x="2358" y="273" />
          <mxPoint x="1588" y="273" />
        </Array>
      </mxGeometry>
    </mxCell>
    <mxCell id="edge9" edge="1" value="" parent="1" source="node122" target="node54" style="html=1;rounded=1;edgeStyle=orthogonalEdgeStyle;dashed=0;startArrow=none;endArrow=block;endSize=12;strokeColor=#000082;exitX=0.500;exitY=0.000;exitDx=0;exitDy=0;entryX=0.500;entryY=1.000;entryDx=0;entryDy=0;">
      <mxGeometry width="50" height="50" relative="1" as="geometry">
        <Array as="points">
          <mxPoint x="511" y="1392" />
          <mxPoint x="1671" y="1392" />
        </Array>
      </mxGeometry>
    </mxCell>
    <mxCell id="edge8" edge="1" value="" parent="1" source="node4" target="node106" style="html=1;rounded=1;edgeStyle=orthogonalEdgeStyle;dashed=1;startArrow=none;endArrow=block;endSize=12;strokeColor=#008200;exitX=0.500;exitY=0.000;exitDx=0;exitDy=0;entryX=0.500;entryY=1.000;entryDx=0;entryDy=0;">
      <mxGeometry width="50" height="50" relative="1" as="geometry">
        <Array as="points" />
      </mxGeometry>
    </mxCell>
    <mxCell id="edge14" edge="1" value="" parent="1" source="node8" target="node77" style="html=1;rounded=1;edgeStyle=orthogonalEdgeStyle;dashed=0;startArrow=none;endArrow=block;endSize=12;strokeColor=#000082;exitX=0.500;exitY=0.000;exitDx=0;exitDy=0;entryX=0.500;entryY=1.000;entryDx=0;entryDy=0;">
      <mxGeometry width="50" height="50" relative="1" as="geometry">
        <Array as="points">
          <mxPoint x="54" y="2555" />
          <mxPoint x="1401" y="2555" />
        </Array>
      </mxGeometry>
    </mxCell>
    <mxCell id="edge21" edge="1" value="" parent="1" source="node19" target="node54" style="html=1;rounded=1;edgeStyle=orthogonalEdgeStyle;dashed=0;startArrow=none;endArrow=block;endSize=12;strokeColor=#000082;exitX=0.500;exitY=0.000;exitDx=0;exitDy=0;entryX=0.500;entryY=1.000;entryDx=0;entryDy=0;">
      <mxGeometry width="50" height="50" relative="1" as="geometry">
        <Array as="points" />
      </mxGeometry>
    </mxCell>
    <mxCell id="edge19" edge="1" value="" parent="1" source="node119" target="node1" style="html=1;rounded=1;edgeStyle=orthogonalEdgeStyle;dashed=1;startArrow=none;endArrow=block;endSize=12;strokeColor=#008200;exitX=0.500;exitY=0.000;exitDx=0;exitDy=0;entryX=0.500;entryY=1.000;entryDx=0;entryDy=0;">
      <mxGeometry width="50" height="50" relative="1" as="geometry">
        <Array as="points" />
      </mxGeometry>
    </mxCell>
    <mxCell id="edge23" edge="1" value="" parent="1" source="node73" target="node18" style="html=1;rounded=1;edgeStyle=orthogonalEdgeStyle;dashed=0;startArrow=none;endArrow=block;endSize=12;strokeColor=#000082;exitX=0.500;exitY=0.000;exitDx=0;exitDy=0;entryX=0.500;entryY=1.000;entryDx=0;entryDy=0;">
      <mxGeometry width="50" height="50" relative="1" as="geometry">
        <Array as="points" />
      </mxGeometry>
    </mxCell>
    <mxCell id="edge4" edge="1" value="" parent="1" source="node107" target="node77" style="html=1;rounded=1;edgeStyle=orthogonalEdgeStyle;dashed=0;startArrow=none;endArrow=block;endSize=12;strokeColor=#000082;exitX=0.500;exitY=0.000;exitDx=0;exitDy=0;entryX=0.500;entryY=1.000;entryDx=0;entryDy=0;">
      <mxGeometry width="50" height="50" relative="1" as="geometry">
        <Array as="points">
          <mxPoint x="503" y="2555" />
          <mxPoint x="1401" y="2555" />
        </Array>
      </mxGeometry>
    </mxCell>
    <mxCell id="edge22" edge="1" value="" parent="1" source="node12" target="node54" style="html=1;rounded=1;edgeStyle=orthogonalEdgeStyle;dashed=0;startArrow=none;endArrow=block;endSize=12;strokeColor=#000082;exitX=0.500;exitY=0.000;exitDx=0;exitDy=0;entryX=0.500;entryY=1.000;entryDx=0;entryDy=0;">
      <mxGeometry width="50" height="50" relative="1" as="geometry">
        <Array as="points">
          <mxPoint x="2092" y="1392" />
          <mxPoint x="1671" y="1392" />
        </Array>
      </mxGeometry>
    </mxCell>
    <mxCell id="edge0" edge="1" value="" parent="1" source="node131" target="node6" style="html=1;rounded=1;edgeStyle=orthogonalEdgeStyle;dashed=1;startArrow=none;endArrow=block;endSize=12;strokeColor=#008200;exitX=0.500;exitY=0.000;exitDx=0;exitDy=0;entryX=0.500;entryY=1.000;entryDx=0;entryDy=0;">
      <mxGeometry width="50" height="50" relative="1" as="geometry">
        <Array as="points" />
      </mxGeometry>
    </mxCell>
    <mxCell id="edge28" edge="1" value="" parent="1" source="node45" target="node77" style="html=1;rounded=1;edgeStyle=orthogonalEdgeStyle;dashed=0;startArrow=none;endArrow=block;endSize=12;strokeColor=#000082;exitX=0.500;exitY=0.000;exitDx=0;exitDy=0;entryX=0.500;entryY=1.000;entryDx=0;entryDy=0;">
      <mxGeometry width="50" height="50" relative="1" as="geometry">
        <Array as="points">
          <mxPoint x="2299" y="2555" />
          <mxPoint x="1401" y="2555" />
        </Array>
      </mxGeometry>
    </mxCell>
    <mxCell id="edge13" edge="1" value="" parent="1" source="node59" target="node43" style="html=1;rounded=1;edgeStyle=orthogonalEdgeStyle;dashed=1;startArrow=none;endArrow=block;endSize=12;strokeColor=#008200;exitX=0.500;exitY=0.000;exitDx=0;exitDy=0;entryX=0.500;entryY=1.000;entryDx=0;entryDy=0;">
      <mxGeometry width="50" height="50" relative="1" as="geometry">
        <Array as="points" />
      </mxGeometry>
    </mxCell>
  </root>
</mxGraphModel>